<svg width="75" height="86" viewBox="0 0 75 86" fill="none" xmlns="http://www.w3.org/2000/svg">
<path d="M37.3579 0L0 20.924L0.142105 63.924L37.6421 86L75 65.076L74.8579 22.076L37.3579 0Z" fill="#666600"/>
<path d="M3.78158 46.9055L3.63158 46.9529V44.5464L4.24736 45.3354C4.04875 45.8449 3.89295 46.3701 3.78158 46.9055V46.9055Z" stroke="#CC6600" stroke-miterlimit="10"/>
<path d="M9.50526 49.2094C9.42403 48.2499 9.72515 47.2971 10.3431 46.5584C10.9611 45.8196 11.846 45.3546 12.8052 45.2644C13.5223 45.2001 14.2423 45.3498 14.8742 45.6946C15.5062 46.0393 16.0216 46.5636 16.3553 47.2011C16.689 47.8387 16.826 48.5608 16.749 49.2761C16.672 49.9915 16.3844 50.668 15.9227 51.22C15.4609 51.772 14.8457 52.1748 14.1549 52.3773C13.4641 52.5798 12.7286 52.573 12.0417 52.3578C11.3547 52.1425 10.7471 51.7285 10.2956 51.1681C9.84408 50.6077 9.56904 49.926 9.50526 49.2094V49.2094Z" stroke="#CC6600" stroke-miterlimit="10"/>
<path d="M14.5263 37.8558L15.15 39.6073C15.6886 39.7102 16.217 39.8607 16.7289 40.0571L19.0974 38.3371C19.2303 38.2437 19.3888 38.1936 19.5513 38.1936C19.7138 38.1936 19.8723 38.2437 20.0053 38.3371L22.3026 40.1833C22.429 40.286 22.5172 40.4282 22.553 40.587C22.5888 40.7459 22.5701 40.9121 22.5 41.0591L21.2526 43.6628C21.5575 44.1118 21.8217 44.587 22.0421 45.0829L25.05 45.4932C25.2123 45.5121 25.3633 45.5857 25.4781 45.7019C25.5929 45.818 25.6647 45.9699 25.6816 46.1323L25.9816 49.0279C25.9955 49.1895 25.9549 49.3512 25.8662 49.487C25.7775 49.6229 25.6458 49.7251 25.4921 49.7774L22.6342 50.7794C22.5233 51.3175 22.3675 51.8453 22.1684 52.3574L23.9211 54.6613C24.023 54.7875 24.0785 54.9449 24.0785 55.1071C24.0785 55.2693 24.023 55.4266 23.9211 55.5528L21.9711 57.8172C21.8647 57.9435 21.7191 58.0307 21.5575 58.065C21.3959 58.0993 21.2275 58.0788 21.0789 58.0066L18.4342 56.7837C17.9767 57.084 17.4963 57.3478 16.9974 57.5727L16.5789 60.4367C16.5449 60.5949 16.463 60.7387 16.3443 60.8488C16.2257 60.9589 16.0761 61.0299 15.9158 61.0521L12.9711 61.3519C12.8055 61.3649 12.6402 61.3253 12.4984 61.2389C12.3567 61.1525 12.2458 61.0236 12.1816 60.8706L11.1868 58.1486C10.648 58.043 10.1197 57.8899 9.6079 57.691L7.23948 59.4189C7.10654 59.5123 6.94801 59.5624 6.78552 59.5624C6.62304 59.5624 6.46453 59.5123 6.33159 59.4189L4.03422 57.5727C3.90727 57.4721 3.81849 57.3313 3.78259 57.1734C3.7467 57.0156 3.76584 56.8503 3.83685 56.7048L5.08421 54.0932C4.77946 53.6469 4.51525 53.1742 4.29473 52.6809L3.57631 52.5705V62.0384L37.5237 82.0393" stroke="#CC6600" stroke-miterlimit="10"/>
<path d="M12.8052 45.1934C13.5223 45.1291 14.2423 45.2788 14.8742 45.6236C15.5062 45.9683 16.0216 46.4926 16.3553 47.1301C16.689 47.7677 16.826 48.4898 16.749 49.2051C16.672 49.9205 16.3844 50.597 15.9227 51.149C15.4609 51.701 14.8457 52.1038 14.1549 52.3063C13.4641 52.5088 12.7286 52.502 12.0417 52.2868C11.3547 52.0715 10.7471 51.6575 10.2956 51.0971C9.84408 50.5367 9.56904 49.855 9.50526 49.1384C9.42403 48.1789 9.72515 47.2261 10.3431 46.4874C10.9611 45.7486 11.846 45.2836 12.8052 45.1934Z" fill="#CC6600"/>
<path d="M3.6158 40.8303L3.56053 40.8934V37.8558H9.68685L9.37105 40.1833C8.86555 40.4 8.38181 40.6642 7.92632 40.9723L5.28158 39.7415C5.13155 39.6769 4.96519 39.6605 4.80541 39.6944C4.64563 39.7283 4.5003 39.8109 4.38947 39.9308L3.6158 40.8303Z" fill="#CC6600"/>
<path d="M3.63158 46.9529H3.57631V44.4438L3.63158 44.5228L4.24737 45.3117C4.05041 45.811 3.89463 46.3256 3.78158 46.8503L3.63158 46.9529Z" fill="#CC6600"/>
<path d="M40.0737 50.5901C40.1718 51.3124 40.0534 52.0476 39.7333 52.7026C39.4133 53.3576 38.906 53.903 38.2757 54.2699C37.6454 54.6367 36.9204 54.8084 36.1924 54.7634C35.4644 54.7183 34.7662 54.4584 34.186 54.0167C33.6058 53.5749 33.1698 52.9711 32.9331 52.2816C32.6964 51.5921 32.6696 50.8479 32.8562 50.1432C33.0428 49.4386 33.4343 48.805 33.9813 48.3228C34.5283 47.8406 35.2061 47.5313 35.9289 47.4341C36.4091 47.3643 36.8985 47.3909 37.3683 47.5124C37.838 47.6339 38.2788 47.8479 38.6648 48.1418C39.0508 48.4357 39.3742 48.8036 39.6162 49.224C39.8581 49.6444 40.0136 50.1088 40.0737 50.5901Z" fill="#CC6600"/>
<path d="M32.5895 69.9204L30.6079 69.7547H30.5684C30.4591 69.7562 30.3541 69.7982 30.274 69.8725C30.1938 69.9468 30.144 70.0482 30.1342 70.1571C30.1299 70.2141 30.1369 70.2714 30.1549 70.3257C30.1728 70.38 30.2013 70.4302 30.2387 70.4735C30.2761 70.5167 30.3217 70.5522 30.3729 70.5777C30.424 70.6033 30.4798 70.6186 30.5368 70.6226L32.5184 70.7883C32.6279 70.7889 32.7337 70.7489 32.8154 70.676C32.8971 70.6031 32.9488 70.5026 32.9605 70.3938C32.9739 70.2819 32.9424 70.1692 32.8728 70.0805C32.8033 69.9918 32.7014 69.9342 32.5895 69.9204ZM32.5895 68.4055L30.6079 68.2398H30.5684C30.4603 68.2411 30.3564 68.282 30.2764 68.3547C30.1964 68.4274 30.1458 68.5269 30.1342 68.6343C30.1288 68.6915 30.1351 68.7493 30.1526 68.804C30.1701 68.8588 30.1985 68.9094 30.2361 68.9529C30.2737 68.9964 30.3198 69.0319 30.3715 69.0571C30.4231 69.0824 30.4794 69.0969 30.5368 69.0998L32.5184 69.2655H32.5579C32.6673 69.264 32.7722 69.222 32.8524 69.1477C32.9326 69.0734 32.9823 68.972 32.9921 68.8631C32.9986 68.7493 32.96 68.6375 32.8847 68.5518C32.8093 68.4662 32.7033 68.4136 32.5895 68.4055ZM32.5895 66.8985L30.6079 66.7328H30.5684C30.4533 66.7328 30.3428 66.7786 30.2614 66.8599C30.18 66.9413 30.1342 67.0517 30.1342 67.1668C30.1342 67.2819 30.18 67.3923 30.2614 67.4736C30.3428 67.555 30.4533 67.6007 30.5684 67.6007L32.55 67.7664H32.5895C32.6981 67.7669 32.803 67.7266 32.8833 67.6536C32.9637 67.5806 33.0138 67.48 33.0237 67.3719C33.0305 67.3115 33.0242 67.2502 33.0053 67.1924C32.9865 67.1345 32.9554 67.0814 32.9143 67.0366C32.8731 66.9917 32.8229 66.9562 32.7668 66.9324C32.7108 66.9086 32.6503 66.897 32.5895 66.8985ZM34.7605 66.4883L60.221 69.3286L71.4947 63.0167V59.0165H71.2816L68.25 58.2749C67.8337 58.6744 67.3848 59.0386 66.9079 59.3637L67.0737 62.4407C67.0812 62.6158 67.0301 62.7883 66.9287 62.9312C66.8272 63.0741 66.681 63.1791 66.5132 63.2297L63.4974 64.1292C63.3288 64.1835 63.1468 64.1796 62.9807 64.1181C62.8146 64.0565 62.674 63.941 62.5816 63.7899L61.0026 61.1547C60.4228 61.1465 59.8446 61.091 59.2737 60.989L57.1895 63.2771C57.0723 63.4082 56.9148 63.4965 56.7417 63.528C56.5686 63.5594 56.39 63.5322 56.2342 63.4507L53.4474 61.991C53.2973 61.908 53.1784 61.7784 53.1086 61.6218C53.0388 61.4652 53.0219 61.2901 53.0605 61.1231L53.8105 58.1407C53.4037 57.7352 53.0339 57.2942 52.7053 56.8231L49.5474 56.973C49.3752 56.982 49.2048 56.9344 49.0623 56.8376C48.9197 56.7407 48.8128 56.5998 48.7579 56.4365L47.8342 53.4699C47.789 53.304 47.7993 53.128 47.8634 52.9685C47.9275 52.809 48.042 52.6747 48.1895 52.5862L50.8658 51.0083C50.8673 50.4392 50.9201 49.8715 51.0237 49.3119L48.7026 47.2527C48.5768 47.1372 48.4918 46.984 48.4605 46.8161C48.4291 46.6482 48.4532 46.4747 48.5289 46.3216L50.0132 43.576C50.097 43.4229 50.2293 43.3019 50.3893 43.2319C50.5493 43.1619 50.7279 43.147 50.8974 43.1894L53.9289 43.931C54.3389 43.5299 54.7856 43.168 55.2631 42.8501L55.0658 39.6941C55.0583 39.5191 55.1093 39.3465 55.2108 39.2037C55.3123 39.0608 55.4585 38.9558 55.6263 38.9051L58.6421 37.9978C58.8096 37.9454 58.9899 37.9503 59.1543 38.0118C59.3187 38.0732 59.458 38.1877 59.55 38.3371L61.1921 41.0118C61.7719 41.0134 62.3505 41.0662 62.9211 41.1695L65.0053 38.8815C65.1234 38.7516 65.2814 38.6648 65.4544 38.6348C65.6274 38.6048 65.8055 38.6333 65.9605 38.7158L68.7474 40.1675C68.899 40.2509 69.019 40.3818 69.0889 40.5401C69.1588 40.6983 69.1747 40.8751 69.1342 41.0433L68.3921 44.0257C68.796 44.4317 69.1633 44.8726 69.4895 45.3433L71.4474 45.2328V37.8558H14.5263L15.15 39.6073C15.6886 39.7102 16.217 39.8607 16.7289 40.0571L19.0974 38.3371C19.2303 38.2437 19.3888 38.1936 19.5513 38.1936C19.7138 38.1936 19.8723 38.2437 20.0052 38.3371L22.3026 40.1833C22.429 40.286 22.5172 40.4282 22.553 40.587C22.5888 40.7459 22.5701 40.9121 22.5 41.0591L21.2526 43.6628C21.5575 44.1118 21.8217 44.587 22.0421 45.0829L25.05 45.4932C25.2123 45.5121 25.3633 45.5857 25.4781 45.7019C25.5929 45.818 25.6647 45.9699 25.6816 46.1323L25.9816 49.0279C25.9955 49.1895 25.9549 49.3512 25.8662 49.487C25.7775 49.6229 25.6458 49.7251 25.4921 49.7774L22.6342 50.7794C22.5233 51.3175 22.3675 51.8453 22.1684 52.3574L23.9211 54.6613C24.0229 54.7875 24.0785 54.9449 24.0785 55.1071C24.0785 55.2693 24.0229 55.4266 23.9211 55.5528L21.9711 57.8172C21.8647 57.9435 21.7191 58.0307 21.5575 58.065C21.3959 58.0993 21.2275 58.0788 21.0789 58.0066L18.4342 56.7837C17.9767 57.084 17.4963 57.3478 16.9974 57.5727L16.5789 60.4367C16.5449 60.5949 16.463 60.7387 16.3443 60.8488C16.2257 60.9589 16.0761 61.0299 15.9158 61.0521L12.9711 61.3519C12.8055 61.3649 12.6402 61.3253 12.4984 61.2389C12.3567 61.1525 12.2458 61.0236 12.1816 60.8706L11.1868 58.1486C10.648 58.043 10.1196 57.8899 9.60789 57.691L7.23947 59.4189C7.10653 59.5123 6.948 59.5624 6.78551 59.5624C6.62303 59.5624 6.46452 59.5123 6.33158 59.4189L4.03421 57.5727C3.90726 57.4721 3.81848 57.3313 3.78258 57.1735C3.74669 57.0156 3.76583 56.8503 3.83684 56.7048L5.0842 54.0932C4.77945 53.6469 4.51524 53.1742 4.29473 52.6809L3.5763 52.5705H3.52106V62.0384L37.5237 82.055L51.9316 73.9837L34.0579 72.0191C32.2816 75.175 28.1447 74.5123 28.1447 74.5123L28.7684 67.2536C28.9105 66.291 28.2789 66.4646 28.2789 66.4646L23.7632 65.7939C25.4684 62.0226 29.7711 62.638 29.7711 62.638C30.8922 62.7126 31.9657 63.1195 32.8544 63.8067C33.7431 64.494 34.4068 65.4303 34.7605 66.4961V66.4883ZM27.6 70.5989L27.2684 74.3151C27.2684 74.3151 23.5974 73.242 23.2658 70.1807L27.6 70.5989ZM30.8684 61.7622C30.7397 61.862 30.5814 61.9162 30.4184 61.9162C30.2555 61.9162 30.0972 61.862 29.9684 61.7622L27.6 59.987C27.469 59.8897 27.3756 59.7503 27.3353 59.5922C27.295 59.4342 27.3105 59.2671 27.379 59.1191L28.5395 56.476C28.239 56.0353 27.975 55.5709 27.75 55.0873L24.8289 54.7481C24.6664 54.7364 24.5129 54.6687 24.3948 54.5564C24.2767 54.4442 24.2013 54.2944 24.1816 54.1327L23.7868 51.2528C23.7619 51.0879 23.7946 50.9193 23.8795 50.7756C23.9643 50.6319 24.0961 50.5218 24.2526 50.4638L26.9842 49.3908C27.0732 48.8535 27.2106 48.3254 27.3947 47.8129L25.5711 45.5642C25.4692 45.438 25.4136 45.2806 25.4136 45.1184C25.4136 44.9562 25.4692 44.7989 25.5711 44.6727L27.3711 42.353C27.4775 42.2294 27.6197 42.1417 27.778 42.1022C27.9364 42.0626 28.1031 42.0731 28.2553 42.1321L30.9474 43.2762C31.3917 42.9725 31.862 42.7084 32.3526 42.4872L32.6684 39.5127C32.6967 39.3535 32.7731 39.2068 32.8875 39.0925C33.0019 38.9782 33.1486 38.9018 33.3079 38.8736L36.2447 38.487C36.4075 38.4722 36.5709 38.5082 36.7123 38.5902C36.8538 38.6722 36.9662 38.796 37.0342 38.9446L38.1237 41.7297C38.6602 41.8237 39.1882 41.9609 39.7026 42.14L41.9921 40.3411C42.125 40.2477 42.2836 40.1976 42.4461 40.1976C42.6085 40.1976 42.7671 40.2477 42.9 40.3411L45.2684 42.1163C45.3994 42.2136 45.4929 42.353 45.5331 42.511C45.5734 42.6691 45.5579 42.8362 45.4895 42.9842L44.329 45.6273C44.6322 46.0662 44.8964 46.5309 45.1184 47.016L48.1421 47.3395C48.3049 47.3543 48.4577 47.4241 48.5754 47.5374C48.6931 47.6507 48.7686 47.8008 48.7895 47.9628L49.1842 50.8426C49.2091 51.0076 49.1764 51.1761 49.0916 51.3198C49.0067 51.4635 48.875 51.5736 48.7184 51.6316L45.8921 52.7204C45.797 53.2571 45.657 53.785 45.4737 54.2984L47.2974 56.5549C47.3993 56.6811 47.4548 56.8384 47.4548 57.0006C47.4548 57.1628 47.3993 57.3202 47.2974 57.4464L45.4974 59.7661C45.3909 59.8897 45.2487 59.9773 45.0904 60.0169C44.932 60.0565 44.7653 60.046 44.6132 59.987L41.929 58.8429C41.4819 59.1467 41.009 59.4107 40.5158 59.6319L40.1842 62.5039C40.1646 62.6673 40.0911 62.8196 39.9753 62.9368C39.8596 63.0539 39.7081 63.1292 39.5447 63.1508L36.6158 63.5295C36.4539 63.545 36.2911 63.5101 36.1498 63.4296C36.0085 63.3491 35.8955 63.2269 35.8263 63.0798L34.7447 60.3894C34.2074 60.2991 33.679 60.1618 33.1658 59.9791L30.8684 61.7622ZM32.5895 66.9064L30.6079 66.7407H30.5684C30.4533 66.7407 30.3428 66.7865 30.2614 66.8678C30.18 66.9492 30.1342 67.0596 30.1342 67.1747C30.1342 67.2898 30.18 67.4001 30.2614 67.4815C30.3428 67.5629 30.4533 67.6086 30.5684 67.6086L32.55 67.7743H32.5895C32.6981 67.7748 32.803 67.7345 32.8833 67.6615C32.9637 67.5884 33.0138 67.4879 33.0237 67.3798C33.0317 67.3187 33.0264 67.2566 33.0081 67.1978C32.9897 67.139 32.9589 67.0849 32.9176 67.0391C32.8763 66.9934 32.8256 66.9571 32.769 66.9329C32.7123 66.9086 32.6511 66.8969 32.5895 66.8985V66.9064ZM32.5895 68.4134L30.6079 68.2477H30.5684C30.4603 68.249 30.3564 68.2899 30.2764 68.3626C30.1964 68.4353 30.1458 68.5348 30.1342 68.6422C30.1288 68.6994 30.1351 68.7572 30.1526 68.8119C30.1701 68.8667 30.1985 68.9173 30.2361 68.9608C30.2737 69.0043 30.3198 69.0398 30.3715 69.065C30.4231 69.0902 30.4794 69.1048 30.5368 69.1077L32.5184 69.2734H32.5579C32.6673 69.2719 32.7722 69.2299 32.8524 69.1556C32.9326 69.0813 32.9823 68.9799 32.9921 68.871C32.9964 68.814 32.9894 68.7567 32.9715 68.7024C32.9535 68.6481 32.925 68.5979 32.8876 68.5546C32.8502 68.5114 32.8046 68.4759 32.7534 68.4503C32.7023 68.4247 32.6465 68.4095 32.5895 68.4055V68.4134ZM30.6079 69.7626H30.5684C30.4591 69.7641 30.3541 69.8061 30.274 69.8804C30.1938 69.9547 30.144 70.0561 30.1342 70.165C30.1299 70.222 30.1369 70.2793 30.1549 70.3336C30.1728 70.3879 30.2013 70.4381 30.2387 70.4814C30.2761 70.5246 30.3217 70.5601 30.3729 70.5856C30.424 70.6112 30.4798 70.6265 30.5368 70.6305L32.5184 70.7962C32.6279 70.7968 32.7337 70.7568 32.8154 70.6839C32.8971 70.611 32.9488 70.5105 32.9605 70.4017C32.9659 70.3444 32.9597 70.2867 32.9422 70.2319C32.9246 70.1772 32.8962 70.1265 32.8586 70.083C32.821 70.0395 32.775 70.0041 32.7233 69.9789C32.6716 69.9536 32.6153 69.9391 32.5579 69.9361L30.6079 69.7626ZM32.5895 66.9064L30.6079 66.7407H30.5684C30.4533 66.7407 30.3428 66.7865 30.2614 66.8678C30.18 66.9492 30.1342 67.0596 30.1342 67.1747C30.1342 67.2898 30.18 67.4001 30.2614 67.4815C30.3428 67.5629 30.4533 67.6086 30.5684 67.6086L32.55 67.7743H32.5895C32.6981 67.7748 32.803 67.7345 32.8833 67.6615C32.9637 67.5884 33.0138 67.4879 33.0237 67.3798C33.0317 67.3187 33.0264 67.2566 33.0081 67.1978C32.9897 67.139 32.9589 67.0849 32.9176 67.0391C32.8763 66.9934 32.8256 66.9571 32.769 66.9329C32.7123 66.9086 32.6511 66.8969 32.5895 66.8985V66.9064ZM32.5895 68.4134L30.6079 68.2477H30.5684C30.4603 68.249 30.3564 68.2899 30.2764 68.3626C30.1964 68.4353 30.1458 68.5348 30.1342 68.6422C30.1288 68.6994 30.1351 68.7572 30.1526 68.8119C30.1701 68.8667 30.1985 68.9173 30.2361 68.9608C30.2737 69.0043 30.3198 69.0398 30.3715 69.065C30.4231 69.0902 30.4794 69.1048 30.5368 69.1077L32.5184 69.2734H32.5579C32.6673 69.2719 32.7722 69.2299 32.8524 69.1556C32.9326 69.0813 32.9823 68.9799 32.9921 68.871C32.9964 68.814 32.9894 68.7567 32.9715 68.7024C32.9535 68.6481 32.925 68.5979 32.8876 68.5546C32.8502 68.5114 32.8046 68.4759 32.7534 68.4503C32.7023 68.4247 32.6465 68.4095 32.5895 68.4055V68.4134ZM32.5895 69.9283L30.6079 69.7626H30.5684C30.4591 69.7641 30.3541 69.8061 30.274 69.8804C30.1938 69.9547 30.144 70.0561 30.1342 70.165C30.1299 70.222 30.1369 70.2793 30.1549 70.3336C30.1728 70.3879 30.2013 70.4381 30.2387 70.4814C30.2761 70.5246 30.3217 70.5601 30.3729 70.5856C30.424 70.6112 30.4798 70.6265 30.5368 70.6305L32.5184 70.7962C32.6279 70.7968 32.7337 70.7568 32.8154 70.6839C32.8971 70.611 32.9488 70.5105 32.9605 70.4017C32.9683 70.3456 32.9648 70.2886 32.9503 70.234C32.9357 70.1793 32.9105 70.1281 32.8759 70.0833C32.8414 70.0385 32.7983 70.001 32.7491 69.973C32.6999 69.9451 32.6456 69.9272 32.5895 69.9204V69.9283ZM71.4553 51.0793L71.2974 51.1739C71.2895 51.743 71.2341 52.3104 71.1316 52.8703L71.4553 53.1622V51.0793ZM64.8395 49.9273C64.5235 48.9379 63.8299 48.1129 62.9091 47.6313C61.9883 47.1498 60.9146 47.0506 59.9211 47.3552C59.4306 47.5006 58.9738 47.7416 58.577 48.0643C58.1802 48.3869 57.8512 48.7849 57.609 49.2352C57.3668 49.6856 57.2162 50.1794 57.1659 50.6881C57.1156 51.1969 57.1665 51.7106 57.3158 52.1996C57.6334 53.1876 58.3277 54.0108 59.2483 54.4908C60.1689 54.9708 61.2417 55.0689 62.2342 54.7639C62.725 54.6203 63.1822 54.3807 63.5796 54.059C63.9769 53.7373 64.3063 53.3399 64.5487 52.89C64.7911 52.44 64.9416 51.9464 64.9915 51.4378C65.0414 50.9292 64.9897 50.4158 64.8395 49.9273Z" fill="#CC6600"/>
<path d="M54.5092 29.3859H54.0187V29.3352C54.0443 29.3259 54.0699 29.3178 54.0955 29.3108C54.1223 29.3038 54.1508 29.298 54.181 29.2933V28.2547H53.914L53.8214 28.5043H53.7778C53.7743 28.4811 53.7714 28.4549 53.7691 28.4258C53.7667 28.3955 53.7644 28.3653 53.7621 28.335C53.7609 28.3036 53.7598 28.2733 53.7586 28.2442C53.7574 28.214 53.7568 28.1872 53.7568 28.1639H54.771C54.771 28.1872 54.7705 28.2134 54.7693 28.2425C54.7681 28.2716 54.7664 28.3018 54.7641 28.3333C54.7629 28.3635 54.7612 28.3938 54.7588 28.424C54.7577 28.4531 54.7553 28.4799 54.7518 28.5043H54.7065L54.6157 28.2547H54.3486V29.2933C54.3789 29.2992 54.4068 29.305 54.4324 29.3108C54.4592 29.3166 54.4848 29.3248 54.5092 29.3352V29.3859ZM55.1848 31.3859H54.7518V31.3352C54.7751 31.3259 54.7984 31.3184 54.8217 31.3125C54.8449 31.3056 54.8688 31.2992 54.8932 31.2933V30.5078L54.9002 30.3036H54.8863L54.8286 30.4904L54.4708 31.3859H54.4254L54.085 30.4904L54.0222 30.2861H54.0065L54.0082 30.5078V31.2933C54.0303 31.298 54.0524 31.3038 54.0745 31.3108C54.0967 31.3178 54.1188 31.3259 54.1409 31.3352V31.3859H53.776V31.3352C53.7982 31.3259 53.8209 31.3178 53.8441 31.3108C53.8686 31.3027 53.893 31.2963 53.9174 31.2916V30.2582C53.893 30.2535 53.8686 30.2477 53.8441 30.2407C53.8209 30.2326 53.7976 30.2239 53.7743 30.2146V30.1639H54.1322L54.4359 30.9617L54.4952 31.1415H54.497L54.5563 30.9582L54.8705 30.1639H55.1865V30.2146C55.1656 30.2239 55.144 30.2326 55.1219 30.2407C55.0998 30.2477 55.0771 30.2535 55.0538 30.2582V31.2951C55.0783 31.2997 55.101 31.3056 55.1219 31.3125C55.144 31.3184 55.165 31.3259 55.1848 31.3352V31.3859Z" fill="#333333"/>
<path d="M9.67895 37.8558L9.36317 40.1833C8.85767 40.4 8.37391 40.6642 7.91842 40.9723L5.2737 39.7415C5.12367 39.6769 4.95728 39.6605 4.79751 39.6944C4.63773 39.7283 4.49242 39.8109 4.38159 39.9308L3.59212 40.8618V37.8558L3.56053 22.9833L37.4289 4.04753L71.4553 24.0327L71.5184 45.225" stroke="#CC6600" stroke-miterlimit="10"/>
<path d="M14.3447 31.1494L13.0974 30.8496C13.0337 30.6328 12.9464 30.4238 12.8368 30.2262L13.4763 29.1769C13.5116 29.1189 13.5261 29.0506 13.5175 28.9832C13.5089 28.9158 13.4777 28.8534 13.4289 28.8061L12.5447 27.9303C12.4939 27.8845 12.4298 27.856 12.3617 27.8489C12.2936 27.8419 12.225 27.8565 12.1658 27.8908L11.1079 28.5141C10.903 28.4104 10.6889 28.3259 10.4684 28.2617L10.1684 27.0308C10.1494 26.9642 10.1089 26.9057 10.0532 26.8643C9.99758 26.823 9.92987 26.8011 9.86054 26.802H8.61315C8.54483 26.8015 8.47829 26.8237 8.42398 26.8651C8.36967 26.9065 8.33067 26.9648 8.31315 27.0308L8.01317 28.2617C7.79267 28.3259 7.57857 28.4104 7.37367 28.5141L6.31578 27.8908C6.25694 27.8553 6.18809 27.8399 6.11969 27.847C6.0513 27.8541 5.9871 27.8834 5.93685 27.9303L5.05264 28.8061C5.00389 28.8534 4.97264 28.9158 4.96403 28.9832C4.95543 29.0506 4.96996 29.1189 5.00525 29.1769L5.64475 30.2262C5.53595 30.4252 5.44606 30.6339 5.37631 30.8496L4.17632 31.1494C4.10945 31.1638 4.04951 31.2005 4.00644 31.2536C3.96336 31.3067 3.93975 31.3729 3.93948 31.4413V32.6721C3.93975 32.7405 3.96336 32.8067 4.00644 32.8598C4.04951 32.9129 4.10945 32.9497 4.17632 32.964L5.37631 33.2639C5.44604 33.4821 5.53592 33.6934 5.64475 33.8951L5.00525 34.9365C4.96996 34.9946 4.95543 35.0628 4.96403 35.1302C4.97264 35.1976 5.00389 35.26 5.05264 35.3074L5.93685 36.1831C5.98642 36.2312 6.05074 36.2613 6.11947 36.2685C6.18821 36.2756 6.25735 36.2595 6.31578 36.2226L7.37367 35.5993C7.57988 35.7022 7.79369 35.7893 8.01317 35.8597L8.31315 37.0431C8.33067 37.1091 8.36967 37.1674 8.42398 37.2088C8.47829 37.2503 8.54483 37.2725 8.61315 37.2719H9.87632C9.94566 37.2729 10.0134 37.251 10.069 37.2096C10.1247 37.1683 10.1652 37.1098 10.1842 37.0431L10.4842 35.8597C10.7037 35.7893 10.9175 35.7022 11.1237 35.5993L12.1816 36.2226C12.24 36.2595 12.3092 36.2756 12.3779 36.2685C12.4466 36.2613 12.511 36.2312 12.5605 36.1831L13.4447 35.3074C13.4935 35.26 13.5247 35.1976 13.5333 35.1302C13.5419 35.0628 13.5274 34.9946 13.4921 34.9365L12.8526 33.8951C12.9621 33.6947 13.0494 33.4831 13.1132 33.2639L14.3605 32.964C14.4274 32.9497 14.4873 32.9129 14.5304 32.8598C14.5735 32.8067 14.5971 32.7405 14.5974 32.6721V31.4413C14.5964 31.3707 14.5705 31.3027 14.5243 31.2493C14.4781 31.1959 14.4145 31.1605 14.3447 31.1494ZM9.23685 33.5952C8.93417 33.5875 8.6405 33.4907 8.39258 33.317C8.14467 33.1433 7.95349 32.9004 7.843 32.6186C7.73251 32.3369 7.70762 32.0289 7.7714 31.7331C7.83518 31.4373 7.98481 31.1669 8.2016 30.9556C8.41839 30.7444 8.69271 30.6017 8.99021 30.5455C9.28771 30.4892 9.59519 30.5219 9.8742 30.6395C10.1532 30.757 10.3914 30.9541 10.5588 31.2062C10.7263 31.4583 10.8157 31.7541 10.8158 32.0567C10.8055 32.4683 10.6346 32.8596 10.3396 33.1471C10.0446 33.4345 9.64886 33.5954 9.23685 33.5952Z" fill="#CC6600"/>
<path d="M16.6974 24.2299L15.9711 24.0563C15.9299 23.9307 15.8771 23.8092 15.8132 23.6934L16.1921 23.1016C16.2187 23.0726 16.2335 23.0346 16.2335 22.9951C16.2335 22.9557 16.2187 22.9177 16.1921 22.8886L15.679 22.3758C15.6468 22.3526 15.6081 22.3402 15.5684 22.3402C15.5288 22.3402 15.4901 22.3526 15.4579 22.3758L14.8342 22.7387C14.7146 22.6793 14.5905 22.6292 14.4632 22.5888L14.2895 21.8787C14.2791 21.8405 14.2566 21.8067 14.2252 21.7825C14.1939 21.7582 14.1554 21.7449 14.1158 21.7446H13.3895C13.3488 21.7445 13.3092 21.7575 13.2765 21.7817C13.2438 21.8058 13.2198 21.8399 13.2079 21.8787L13.0342 22.5888C12.9074 22.6306 12.7834 22.6807 12.6632 22.7387L12.0474 22.3758C12.0152 22.3526 11.9765 22.3402 11.9368 22.3402C11.8972 22.3402 11.8585 22.3526 11.8263 22.3758L11.3053 22.8886C11.2802 22.9185 11.2665 22.9562 11.2665 22.9951C11.2665 23.0341 11.2802 23.0718 11.3053 23.1016L11.6763 23.7171C11.6149 23.833 11.5647 23.9545 11.5263 24.08L10.8237 24.2536C10.784 24.2624 10.7484 24.2843 10.7226 24.3158C10.6968 24.3473 10.6824 24.3865 10.6816 24.4271V25.1451C10.6827 25.1848 10.6975 25.2229 10.7233 25.2531C10.7492 25.2833 10.7846 25.3036 10.8237 25.3108L11.5263 25.4923C11.5662 25.6172 11.6164 25.7386 11.6763 25.8552L11.3053 26.4628C11.2809 26.4944 11.2678 26.5333 11.2678 26.5732C11.2678 26.6131 11.2809 26.652 11.3053 26.6837L11.8263 27.1886C11.8574 27.2143 11.8965 27.2283 11.9368 27.2283C11.9772 27.2283 12.0163 27.2143 12.0474 27.1886L12.6632 26.8257C12.7819 26.8871 12.9061 26.9373 13.0342 26.9756L13.2079 27.662C13.2195 27.7017 13.2432 27.7368 13.2758 27.7623C13.3084 27.7878 13.3482 27.8024 13.3895 27.804H14.1158C14.1565 27.8032 14.1957 27.7888 14.2272 27.763C14.2587 27.7373 14.2806 27.7017 14.2895 27.662L14.4632 26.9756C14.5917 26.9387 14.7161 26.8884 14.8342 26.8257L15.4579 27.1886C15.4896 27.2129 15.5285 27.2261 15.5684 27.2261C15.6084 27.2261 15.6473 27.2129 15.679 27.1886L16.1921 26.6837C16.2193 26.6533 16.2343 26.614 16.2343 26.5732C16.2343 26.5324 16.2193 26.4931 16.1921 26.4628L15.8211 25.8552C15.8836 25.7388 15.9364 25.6174 15.979 25.4923L16.7053 25.3108C16.7436 25.3034 16.778 25.2827 16.8026 25.2524C16.8271 25.2221 16.8402 25.1841 16.8395 25.1451V24.4271C16.8464 24.3822 16.8353 24.3364 16.8087 24.2995C16.7822 24.2627 16.7422 24.2376 16.6974 24.2299ZM13.7211 25.658C13.5427 25.6595 13.368 25.6081 13.2189 25.5103C13.0699 25.4124 12.9533 25.2725 12.884 25.1082C12.8146 24.944 12.7957 24.7629 12.8295 24.5879C12.8633 24.4129 12.9484 24.252 13.074 24.1254C13.1995 23.9988 13.3599 23.9123 13.5347 23.877C13.7094 23.8416 13.8908 23.859 14.0557 23.9268C14.2206 23.9947 14.3617 24.1099 14.4609 24.258C14.5602 24.4061 14.6132 24.5803 14.6132 24.7585C14.6132 24.9957 14.5194 25.2233 14.3524 25.3918C14.1853 25.5602 13.9584 25.6559 13.7211 25.658Z" fill="#CC6600"/>
<path d="M27.6632 29.4136C24.8789 29.4136 23.4842 27.9908 23.479 25.1451V24.6402H26.4553V25.082C26.4273 25.6221 26.5217 26.1615 26.7316 26.66C26.8323 26.8248 26.9778 26.9575 27.1511 27.0427C27.3245 27.1279 27.5185 27.1621 27.7105 27.1413C27.9262 27.1479 28.1403 27.1019 28.3342 27.0072C28.4977 26.9097 28.623 26.7594 28.6895 26.5811C28.7716 26.3814 28.8273 26.1719 28.8553 25.9578C28.8832 25.6667 28.8963 25.3744 28.8947 25.082C28.935 24.4988 28.8091 23.9161 28.5316 23.4015C28.3724 23.2042 28.1681 23.0482 27.9359 22.9466C27.7036 22.845 27.4503 22.8007 27.1974 22.8176H26.7V20.7347H27.1421C27.393 20.7597 27.6464 20.7288 27.8839 20.6442C28.1215 20.5596 28.3372 20.4235 28.5158 20.2455C28.7464 19.7992 28.8753 19.3073 28.893 18.8053C28.9107 18.3032 28.817 17.8035 28.6184 17.342C28.5111 17.1905 28.3653 17.0703 28.1959 16.994C28.0266 16.9177 27.8399 16.888 27.6553 16.9081C27.4686 16.8861 27.2795 16.9201 27.1122 17.0058C26.9449 17.0915 26.8069 17.225 26.7158 17.3894C26.5239 17.829 26.4348 18.3066 26.4553 18.7859V19.4013H23.4947V18.6123C23.4623 18.0807 23.5434 17.5483 23.7326 17.0505C23.9218 16.5526 24.2148 16.1006 24.5921 15.7246C25.4374 14.997 26.534 14.6289 27.6474 14.6989C28.7637 14.6293 29.8654 14.9813 30.7342 15.6851C31.3301 16.3372 31.7033 17.1617 31.7998 18.0395C31.8962 18.9174 31.7111 19.8032 31.2711 20.569C30.9457 21.0877 30.4347 21.4629 29.8421 21.6183C31.1579 22.0602 31.8184 23.1832 31.8237 24.9873C31.8313 25.5895 31.7542 26.1897 31.5947 26.7704C31.4482 27.2694 31.2069 27.7354 30.8842 28.1433C30.5397 28.5559 30.0934 28.8713 29.5895 29.0585C28.9747 29.2943 28.3216 29.4146 27.6632 29.4136Z" fill="#333333" stroke="#CC6600" stroke-width="0.5" stroke-miterlimit="10"/>
<path d="M33.5605 29.1769V14.9356H38.4C41.0947 14.9356 42.4395 16.2979 42.4342 19.0226C42.4522 19.6682 42.345 20.3113 42.1184 20.9162C41.9322 21.4028 41.6153 21.8287 41.2026 22.147C40.795 22.4431 40.3339 22.6574 39.8447 22.7782C39.2767 22.9185 38.6929 22.9848 38.1079 22.9754H36.7184V29.1769H33.5605ZM36.7184 20.9477H37.7289C37.9794 20.9808 38.2341 20.9591 38.4753 20.8842C38.7166 20.8093 38.9387 20.6829 39.1263 20.5138C39.4072 20.0583 39.5319 19.5237 39.4816 18.991C39.4879 18.6954 39.4694 18.3998 39.4263 18.1074C39.3954 17.8918 39.3201 17.6849 39.2052 17.4998C39.0812 17.3065 38.8945 17.1617 38.6763 17.0895C38.3683 17.0023 38.0489 16.9624 37.7289 16.9712H36.7184V20.9477Z" fill="#333333" stroke="#CC6600" stroke-width="0.5" stroke-miterlimit="10"/>
<path d="M42.4421 29.1769L45.4737 14.9356H48.9237L51.9474 29.1769H49.0184L48.45 26.0209H45.9947L45.4263 29.1769H42.4421ZM46.2947 24.2299H48.1342L47.2105 18.5571L46.2947 24.2299Z" fill="#333333" stroke="#CC6600" stroke-width="0.5" stroke-miterlimit="10"/>
<path d="M16.6658 35.7886C16.5234 35.8075 16.3786 35.793 16.2429 35.7461C16.1071 35.6993 15.9841 35.6215 15.8837 35.5188C15.7834 35.4162 15.7083 35.2916 15.6645 35.1549C15.6208 35.0182 15.6095 34.8732 15.6316 34.7314V34.6051H16.3658V34.7156C16.3582 34.8475 16.3797 34.9795 16.4289 35.1022C16.4539 35.144 16.49 35.178 16.5333 35.2003C16.5765 35.2226 16.6252 35.2323 16.6737 35.2284C16.7264 35.2294 16.7783 35.2158 16.8237 35.189C16.8663 35.1669 16.8998 35.1306 16.9184 35.0864C16.937 35.0353 16.9502 34.9824 16.9579 34.9286C16.9625 34.8577 16.9625 34.7865 16.9579 34.7156C16.968 34.5709 16.9379 34.4262 16.871 34.2974C16.8302 34.2501 16.7792 34.2127 16.7217 34.1881C16.6643 34.1635 16.6019 34.1523 16.5395 34.1554H16.4132V33.6426H16.5237C16.5856 33.6499 16.6483 33.643 16.7071 33.6225C16.7659 33.602 16.8193 33.5684 16.8632 33.5242C16.9367 33.4094 16.97 33.2734 16.9579 33.1376C16.9641 33.0237 16.9424 32.9099 16.8948 32.8062C16.8673 32.768 16.8301 32.7376 16.7872 32.7182C16.7442 32.6988 16.6969 32.6911 16.65 32.6958C16.6045 32.6913 16.5586 32.7001 16.518 32.7211C16.4774 32.7421 16.4437 32.7744 16.4211 32.8141C16.3741 32.9236 16.3525 33.0423 16.3579 33.1613V33.3112H15.6237V33.1218C15.6154 32.99 15.635 32.8579 15.6812 32.7342C15.7275 32.6105 15.7994 32.4979 15.8921 32.4039C16.0006 32.312 16.1262 32.2423 16.2617 32.199C16.3972 32.1557 16.5398 32.1395 16.6816 32.1514C16.9662 32.1302 17.2483 32.2176 17.4711 32.396C17.617 32.5579 17.7084 32.7614 17.7325 32.9779C17.7566 33.1945 17.7121 33.4132 17.6053 33.6031C17.526 33.7335 17.3983 33.8271 17.25 33.8635C17.413 33.9286 17.5497 34.0463 17.6383 34.1977C17.727 34.3492 17.7626 34.5259 17.7395 34.6998C17.743 34.849 17.7244 34.9979 17.6842 35.1417C17.6506 35.2656 17.5914 35.3811 17.5105 35.4809C17.4239 35.5835 17.3125 35.6622 17.1869 35.7097C17.0208 35.7731 16.8431 35.7999 16.6658 35.7886Z" fill="#333333" stroke="#CC6600" stroke-width="0.2" stroke-miterlimit="10"/>
<path d="M19.35 35.7255V32.1987H20.55C20.6867 32.1802 20.8258 32.1937 20.9565 32.2381C21.0871 32.2824 21.2057 32.3564 21.3028 32.4543C21.4 32.5521 21.4731 32.6712 21.5165 32.8021C21.5598 32.933 21.5722 33.0721 21.5526 33.2086C21.5543 33.3672 21.5275 33.5249 21.4737 33.6741C21.4267 33.7955 21.3476 33.9019 21.2447 33.9818C21.1422 34.0548 21.0272 34.1083 20.9053 34.1396C20.7657 34.1732 20.6225 34.1891 20.479 34.187H20.1395V35.7255H19.35ZM20.1395 33.682H20.3921C20.4528 33.6903 20.5145 33.6854 20.573 33.6677C20.6316 33.65 20.6857 33.6199 20.7316 33.5794C20.8063 33.4681 20.8398 33.3341 20.8263 33.2007C20.8317 33.1272 20.8317 33.0533 20.8263 32.9798C20.8185 32.9265 20.7997 32.8755 20.7711 32.8299C20.739 32.7818 20.6918 32.7457 20.6369 32.7273C20.5609 32.7174 20.4839 32.7174 20.4079 32.7273H20.1395V33.682Z" fill="#333333" stroke="#CC6600" stroke-width="0.2" stroke-miterlimit="10"/>
<path d="M21.9079 35.7255V32.1987H22.8711C23.0471 32.1849 23.224 32.1849 23.4 32.1987C23.5367 32.2259 23.6676 32.2766 23.7868 32.3486C23.9008 32.4179 23.9915 32.5195 24.0474 32.6406C24.1059 32.783 24.1328 32.9364 24.1263 33.0903C24.1352 33.2798 24.1001 33.4688 24.0237 33.6426C23.9451 33.7902 23.8163 33.9049 23.6605 33.9661L24.1895 35.6861H23.4L22.9658 34.1081H22.6895V35.6861L21.9079 35.7255ZM22.6974 33.6978H22.8947C22.9658 33.7139 23.0397 33.7119 23.1098 33.692C23.1798 33.6721 23.2437 33.6349 23.2956 33.5838C23.3475 33.5328 23.3857 33.4694 23.4067 33.3997C23.4277 33.33 23.4308 33.2562 23.4158 33.185C23.425 33.0508 23.3889 32.9174 23.3132 32.8062C23.2645 32.7591 23.206 32.7233 23.1418 32.7014C23.0777 32.6796 23.0094 32.6723 22.9421 32.68H22.6974V33.6978Z" fill="#333333" stroke="#CC6600" stroke-width="0.2" stroke-miterlimit="10"/>
<path d="M25.7211 35.7807C25.5417 35.7825 25.3631 35.7559 25.1921 35.7018C25.0542 35.657 24.9313 35.5752 24.8369 35.4651C24.7478 35.3596 24.683 35.2356 24.6474 35.1022C24.6063 34.9425 24.5877 34.7779 24.5921 34.613V33.3112C24.5877 33.1464 24.6063 32.9817 24.6474 32.822C24.6813 32.6903 24.7462 32.5685 24.8369 32.467C24.9323 32.3599 25.0551 32.2807 25.1921 32.2382C25.3622 32.1802 25.5414 32.1535 25.7211 32.1593C25.8794 32.1439 26.0393 32.162 26.1902 32.2123C26.3412 32.2626 26.4799 32.344 26.5974 32.4512C26.7868 32.6962 26.8795 33.0023 26.8579 33.3112V34.613C26.88 34.9244 26.7873 35.2331 26.5974 35.4809C26.4803 35.5891 26.3418 35.6717 26.1909 35.7234C26.04 35.775 25.88 35.7945 25.7211 35.7807ZM25.5711 35.2363C25.6686 35.2677 25.7735 35.2677 25.8711 35.2363C25.9105 35.2213 25.9458 35.197 25.9737 35.1653C25.9983 35.1349 26.0171 35.1001 26.0289 35.0628C26.0357 35.0209 26.0357 34.9783 26.0289 34.9365C26.0333 34.8866 26.0333 34.8365 26.0289 34.7866V33.1376C26.0332 33.0904 26.0332 33.0428 26.0289 32.9956C26.0372 32.9539 26.0372 32.911 26.0289 32.8694C26.0188 32.8313 25.9999 32.7962 25.9737 32.7668C25.9458 32.7352 25.9105 32.7108 25.8711 32.6958C25.7735 32.6644 25.6686 32.6644 25.5711 32.6958C25.5316 32.6958 25.4921 32.6958 25.4763 32.7668C25.4471 32.794 25.4277 32.83 25.4211 32.8694C25.4175 32.9114 25.4175 32.9536 25.4211 32.9956V34.9365C25.4183 34.9785 25.4183 35.0207 25.4211 35.0628C25.4296 35.1014 25.4487 35.1369 25.4763 35.1653C25.4763 35.1653 25.5316 35.2127 25.5711 35.2363Z" fill="#333333" stroke="#CC6600" stroke-width="0.2" stroke-miterlimit="10"/>
<path d="M27.371 35.7255V32.1987H27.9158L28.7684 34.0292V32.1987H29.4158V35.7255H28.8947L28.0342 33.7846V35.7255H27.371Z" fill="#333333" stroke="#CC6600" stroke-width="0.2" stroke-miterlimit="10"/>
<path d="M30.9711 35.7807C30.8038 35.7837 30.6376 35.7542 30.4816 35.6939C30.3542 35.642 30.2426 35.5577 30.1579 35.4494C30.0767 35.3322 30.0179 35.2012 29.9842 35.0628C29.9477 34.8969 29.9292 34.7276 29.9289 34.5578V33.398C29.9196 33.2561 29.9196 33.1138 29.9289 32.9719C29.9504 32.8534 29.9904 32.7389 30.0474 32.6327C30.1003 32.5347 30.1698 32.4467 30.2526 32.3723C30.3513 32.3026 30.4606 32.2493 30.5763 32.2145C30.7227 32.1738 30.8744 32.1552 31.0263 32.1593C31.2001 32.1557 31.3733 32.1796 31.5395 32.2303C31.663 32.2689 31.7752 32.3374 31.8661 32.4296C31.9569 32.5217 32.0237 32.6348 32.0605 32.7589C32.1037 32.8995 32.125 33.0458 32.1237 33.1929V33.3585H31.3342V33.1219C31.3388 33.0694 31.3388 33.0165 31.3342 32.964C31.3282 32.8809 31.3039 32.8001 31.2632 32.7274C31.2345 32.6984 31.1993 32.6767 31.1605 32.6642C31.111 32.6546 31.0601 32.6546 31.0105 32.6642C30.9583 32.6544 30.9048 32.6544 30.8526 32.6642C30.8125 32.6818 30.7773 32.7089 30.75 32.7431C30.7224 32.7776 30.7034 32.8182 30.6947 32.8615V33.0035V34.6919C30.6865 34.828 30.7137 34.964 30.7737 35.0864C30.8033 35.1335 30.8458 35.1712 30.8962 35.195C30.9466 35.2187 31.0026 35.2276 31.0579 35.2205C31.115 35.2264 31.1726 35.2163 31.2242 35.1912C31.2758 35.1661 31.3194 35.1271 31.35 35.0785C31.4097 34.9503 31.4368 34.8094 31.4289 34.6683V34.3211H31.05V33.8793H32.1316V35.7255H31.6263L31.5711 35.402C31.5197 35.5173 31.4352 35.6148 31.3284 35.6822C31.2217 35.7496 31.0973 35.7839 30.9711 35.7807Z" fill="#333333" stroke="#CC6600" stroke-width="0.2" stroke-miterlimit="10"/>
<path d="M32.6921 35.7255V32.1987H34.35V32.6958H33.4579V33.6268H34.1526V34.1475H33.4579V35.2521H34.35V35.7255H32.6921Z" fill="#333333" stroke="#CC6600" stroke-width="0.2" stroke-miterlimit="10"/>
<path d="M34.7684 35.7255V32.1987H35.7C35.9041 32.1937 36.1081 32.2123 36.3079 32.2539C36.451 32.2915 36.5834 32.3617 36.6947 32.4591C36.7909 32.5528 36.8616 32.6696 36.9 32.7983C36.9414 32.9634 36.96 33.1332 36.9553 33.3033V34.5736C36.9599 34.7488 36.9413 34.9239 36.9 35.0943C36.8628 35.2258 36.7921 35.3455 36.6947 35.4415C36.5904 35.5501 36.4555 35.6244 36.3079 35.6545C36.1149 35.7063 35.9155 35.7302 35.7158 35.7255H34.7684ZM35.5579 35.2205H35.8658C35.8994 35.2296 35.9348 35.2296 35.9684 35.2205C35.9976 35.2141 36.0247 35.2005 36.0474 35.1811C36.0698 35.1639 36.0886 35.1425 36.1026 35.118C36.1174 35.0925 36.1305 35.0661 36.1421 35.0391C36.1465 35.005 36.1465 34.9706 36.1421 34.9365C36.1455 34.8971 36.1455 34.8575 36.1421 34.8182V33.2402C36.1469 33.1745 36.1469 33.1086 36.1421 33.0429C36.1503 32.9933 36.1503 32.9427 36.1421 32.893C36.1301 32.8521 36.1052 32.8161 36.071 32.7904L35.9368 32.7352H35.7237H35.5737L35.5579 35.2205Z" fill="#333333" stroke="#CC6600" stroke-width="0.2" stroke-miterlimit="10"/>
<path d="M38.4711 35.7255L39.2211 32.1987H40.0737L40.8237 35.7255H40.0974L39.9553 34.9365H39.3474L39.2053 35.7255H38.4711ZM39.4263 34.4947H39.8763L39.6474 33.0903L39.4263 34.4947Z" fill="#333333" stroke="#CC6600" stroke-width="0.2" stroke-miterlimit="10"/>
<path d="M41.2026 35.7255V32.1987H42.4027C42.5394 32.1802 42.6785 32.1937 42.8091 32.2381C42.9397 32.2824 43.0583 32.3564 43.1555 32.4543C43.2526 32.5521 43.3258 32.6712 43.3691 32.8021C43.4125 32.933 43.4248 33.0721 43.4053 33.2086C43.4069 33.3672 43.3801 33.5249 43.3263 33.6741C43.2793 33.7955 43.2002 33.9019 43.0974 33.9818C42.9948 34.0548 42.8798 34.1083 42.7579 34.1396C42.6183 34.1732 42.4751 34.1891 42.3316 34.187H41.9842V35.7255H41.2026ZM41.9921 33.682H42.2447C42.3066 33.6904 42.3695 33.6856 42.4294 33.6679C42.4893 33.6502 42.5447 33.6201 42.5921 33.5794C42.6602 33.4655 42.6906 33.3329 42.6789 33.2007C42.6844 33.1272 42.6844 33.0533 42.6789 32.9798C42.6712 32.9265 42.6524 32.8755 42.6237 32.8299C42.5916 32.7818 42.5444 32.7457 42.4895 32.7273C42.4135 32.7174 42.3365 32.7174 42.2605 32.7273H42.0079L41.9921 33.682Z" fill="#333333" stroke="#CC6600" stroke-width="0.2" stroke-miterlimit="10"/>
<path d="M43.8237 35.7255V32.1987H45.0158C45.1528 32.1785 45.2927 32.1908 45.4241 32.2345C45.5555 32.2783 45.6748 32.3523 45.7724 32.4505C45.8699 32.5488 45.943 32.6686 45.9858 32.8003C46.0285 32.932 46.0397 33.0718 46.0184 33.2086C46.0239 33.3675 45.997 33.5259 45.9395 33.6741C45.8952 33.797 45.8155 33.9041 45.7105 33.9818C45.6117 34.0561 45.4989 34.1097 45.3789 34.1396C45.2367 34.1731 45.0909 34.189 44.9447 34.187H44.5974V35.7255H43.8237ZM44.6132 33.682H44.8658C44.9277 33.6909 44.9907 33.6864 45.0507 33.6687C45.1106 33.651 45.1661 33.6205 45.2132 33.5794C45.2812 33.4655 45.3116 33.3329 45.3 33.2007C45.3047 33.1272 45.3047 33.0534 45.3 32.9798C45.2886 32.9275 45.27 32.8771 45.2447 32.8299C45.2111 32.7832 45.1644 32.7476 45.1105 32.7273C45.0319 32.7179 44.9523 32.7179 44.8737 32.7273H44.6211L44.6132 33.682Z" fill="#333333" stroke="#CC6600" stroke-width="0.2" stroke-miterlimit="10"/>
<path d="M46.3737 35.7255V32.1987H47.3447C47.5181 32.1844 47.6924 32.1844 47.8658 32.1987C48.005 32.2258 48.1385 32.2765 48.2605 32.3486C48.3722 32.4184 48.4602 32.5201 48.5132 32.6405C48.5744 32.7824 48.604 32.9359 48.6 33.0903C48.6066 33.2805 48.5688 33.4696 48.4895 33.6426C48.4139 33.7896 48.2877 33.9045 48.1342 33.966L48.6632 35.6861H47.8737L47.4316 34.1081H47.1632V35.6861L46.3737 35.7255ZM47.1632 33.6978H47.3605C47.5025 33.7107 47.6439 33.6683 47.7553 33.5795C47.8305 33.4616 47.8704 33.3247 47.8704 33.185C47.8704 33.0452 47.8305 32.9083 47.7553 32.7905C47.707 32.7428 47.6485 32.7067 47.5842 32.6849C47.52 32.663 47.4516 32.6559 47.3842 32.6642H47.1474L47.1632 33.6978Z" fill="#333333" stroke="#CC6600" stroke-width="0.2" stroke-miterlimit="10"/>
<path d="M50.1947 35.7807C50.0128 35.7824 49.8317 35.7558 49.6579 35.7018C49.5242 35.6531 49.4047 35.5718 49.3105 35.4651C49.2214 35.3596 49.1567 35.2356 49.121 35.1022C49.077 34.9429 49.0558 34.7782 49.0579 34.613V33.3112C49.0558 33.146 49.077 32.9813 49.121 32.822C49.1549 32.6903 49.2199 32.5685 49.3105 32.467C49.4038 32.361 49.5237 32.282 49.6579 32.2382C49.831 32.1811 50.0126 32.1544 50.1947 32.1593C50.352 32.143 50.5108 32.1607 50.6607 32.2111C50.8105 32.2614 50.9477 32.3433 51.0632 32.4512C51.2589 32.6933 51.3549 33.0008 51.3316 33.3112V34.613C51.3545 34.9258 51.2587 35.2357 51.0632 35.4809C50.9481 35.5898 50.8111 35.6728 50.6613 35.7245C50.5116 35.7762 50.3525 35.7954 50.1947 35.7807ZM50.0368 35.2363C50.0891 35.2452 50.1425 35.2452 50.1947 35.2363C50.2444 35.2446 50.2951 35.2446 50.3447 35.2363C50.3807 35.2192 50.4129 35.195 50.4395 35.1653C50.4668 35.1354 50.4882 35.1006 50.5026 35.0627V34.9365C50.5026 34.8971 50.5026 34.8418 50.5026 34.7866V33.1376C50.5026 33.0824 50.5026 33.035 50.5026 32.9956V32.8694C50.4902 32.8306 50.4685 32.7954 50.4395 32.7668C50.4129 32.7371 50.3807 32.7129 50.3447 32.6958C50.2951 32.6875 50.2444 32.6875 50.1947 32.6958C50.1425 32.6869 50.0891 32.6869 50.0368 32.6958C50.0009 32.7129 49.9687 32.7371 49.9421 32.7668C49.9159 32.7962 49.897 32.8313 49.8868 32.8694V32.9956C49.8868 32.9956 49.8868 33.0824 49.8868 33.1376V34.7866C49.8868 34.8418 49.8868 34.8971 49.8868 34.9365V35.0627C49.8987 35.1001 49.9175 35.1349 49.9421 35.1653C49.9687 35.195 50.0009 35.2192 50.0368 35.2363Z" fill="#333333" stroke="#CC6600" stroke-width="0.2" stroke-miterlimit="10"/>
<path d="M51.6474 35.7255L52.3974 32.1987H53.2974L54.0474 35.7255H53.2974L53.1553 34.9365H52.5079L52.3658 35.7255H51.6474ZM52.6026 34.4947H53.0605L52.8316 33.0903L52.6026 34.4947Z" fill="#333333" stroke="#CC6600" stroke-width="0.2" stroke-miterlimit="10"/>
<path d="M55.4527 35.7807C55.27 35.784 55.0881 35.7546 54.9158 35.6939C54.7798 35.6457 54.6597 35.5611 54.5684 35.4494C54.4807 35.3399 54.4163 35.2137 54.379 35.0785C54.3423 34.918 54.3237 34.754 54.3237 34.5894V33.3585C54.3228 33.1913 54.3414 33.0245 54.379 32.8615C54.4145 32.7256 54.4792 32.5991 54.5684 32.4906C54.6565 32.3756 54.7777 32.2903 54.9158 32.2461C55.0885 32.1875 55.2704 32.1608 55.4527 32.1671C55.6264 32.1635 55.7996 32.1875 55.9658 32.2382C56.0942 32.2765 56.2092 32.3504 56.2974 32.4512C56.3788 32.5416 56.4383 32.6496 56.4711 32.7668C56.5114 32.9024 56.5301 33.0435 56.5263 33.185V33.4927H55.7369V33.0745C55.74 33.0509 55.74 33.027 55.7369 33.0035C55.7422 32.9774 55.7422 32.9506 55.7369 32.9246V32.8615C55.7393 32.8405 55.7393 32.8193 55.7369 32.7984L55.6974 32.751C55.6824 32.7336 55.6635 32.72 55.6421 32.7116H55.5711H55.4763C55.4271 32.6989 55.3755 32.6989 55.3263 32.7116C55.2853 32.7235 55.2493 32.7484 55.2237 32.7826C55.1976 32.818 55.1788 32.8582 55.1684 32.9009C55.165 32.9456 55.165 32.9904 55.1684 33.035C55.1638 33.0875 55.1638 33.1404 55.1684 33.1928V34.7708C55.1604 34.901 55.1848 35.0311 55.2395 35.1495C55.268 35.1911 55.3073 35.2242 55.3532 35.2451C55.3991 35.2659 55.4499 35.2738 55.5 35.2679H55.6342C55.6674 35.2572 55.6973 35.2381 55.7211 35.2127L55.7763 35.1338C55.778 35.0996 55.778 35.0654 55.7763 35.0312C55.7798 34.9918 55.7798 34.9522 55.7763 34.9128C55.7811 34.8709 55.7811 34.8285 55.7763 34.7866V34.4394H56.5658V34.7393C56.5679 34.8827 56.552 35.0259 56.5184 35.1653C56.4832 35.2862 56.4241 35.3989 56.3447 35.4967C56.2577 35.6024 56.1429 35.6816 56.0132 35.7255C55.8309 35.776 55.6413 35.7947 55.4527 35.7807Z" fill="#333333" stroke="#CC6600" stroke-width="0.2" stroke-miterlimit="10"/>
<path d="M57.0079 35.7255V32.1987H57.7974V33.6426H58.4763V32.1987H59.2658V35.7255H58.4763V34.1475H57.7974V35.7255H57.0079Z" fill="#333333" stroke="#CC6600" stroke-width="0.2" stroke-miterlimit="10"/>
<path d="M6.01578 51.0161V47.229H7.05001C7.62633 47.229 7.91053 47.5919 7.91053 48.3178C7.9144 48.4888 7.8904 48.6594 7.83948 48.8228C7.8072 48.9459 7.74163 49.0578 7.64999 49.1462C7.5654 49.2233 7.46602 49.2823 7.35789 49.3198C7.23718 49.3536 7.11217 49.3695 6.98684 49.3672H6.71842V51.0161H6.01578ZM6.68684 48.8306H6.90789C6.96384 48.838 7.02076 48.8311 7.07326 48.8104C7.12576 48.7897 7.1721 48.7559 7.20789 48.7123C7.26482 48.5862 7.28924 48.4479 7.27894 48.3099C7.28378 48.2311 7.28378 48.152 7.27894 48.0732C7.27163 48.0184 7.25564 47.9652 7.23157 47.9154C7.22174 47.8891 7.20594 47.8654 7.18539 47.8462C7.16484 47.8271 7.1401 47.8129 7.11316 47.8049C7.0481 47.7911 6.98085 47.7911 6.91579 47.8049H6.71842L6.68684 48.8306Z" fill="#333333" stroke="#CC6600" stroke-width="0.2" stroke-miterlimit="10"/>
<path d="M8.25 51.0161V47.229H8.92894V48.807H9.50526V47.229H10.1842V51.0161H9.50526V49.3356H8.92894V51.0161H8.25Z" fill="#333333" stroke="#CC6600" stroke-width="0.2" stroke-miterlimit="10"/>
<path d="M11.1158 51.0161V49.5171L10.4684 47.229H11.1L11.4553 48.5703L11.7869 47.229H12.4026L11.7632 49.5171V51.0161H11.1158Z" fill="#333333" stroke="#CC6600" stroke-width="0.2" stroke-miterlimit="10"/>
<path d="M13.5395 51.0714C13.4098 51.0831 13.2792 51.0626 13.1593 51.0116C13.0395 50.9607 12.9341 50.8809 12.8526 50.7794C12.6838 50.5133 12.5986 50.2028 12.6079 49.8879L13.1921 49.7695C13.1825 49.9518 13.2093 50.1343 13.271 50.3061C13.2889 50.3567 13.3221 50.4005 13.3659 50.4316C13.4097 50.4627 13.462 50.4795 13.5158 50.4796C13.5489 50.4835 13.5825 50.4773 13.6121 50.4619C13.6417 50.4464 13.6659 50.4223 13.6816 50.3928C13.7218 50.3264 13.741 50.2494 13.7368 50.1719C13.7399 50.0404 13.7101 49.9102 13.65 49.7932C13.5773 49.6678 13.4869 49.5535 13.3816 49.4539L13.0342 49.1384C12.9555 49.0587 12.8817 48.9744 12.8132 48.8859C12.7546 48.7927 12.7094 48.6918 12.6789 48.586C12.6396 48.4529 12.621 48.3146 12.6237 48.1758C12.6095 47.9176 12.6942 47.6637 12.8605 47.4657C12.9446 47.3805 13.0458 47.314 13.1573 47.2705C13.2688 47.227 13.3883 47.2075 13.5079 47.2132C13.5916 47.1997 13.6769 47.1997 13.7605 47.2132C13.8307 47.2309 13.8974 47.2603 13.9579 47.3C14.015 47.3361 14.0657 47.3814 14.1079 47.4341C14.1478 47.4884 14.1822 47.5465 14.2105 47.6077C14.2105 47.6629 14.2579 47.7339 14.2816 47.805C14.3052 47.876 14.2816 47.947 14.3211 48.018C14.3605 48.089 14.3211 48.1521 14.3211 48.231L13.7447 48.3415C13.7414 48.2758 13.7414 48.2099 13.7447 48.1442V47.9864C13.734 47.9401 13.7182 47.8951 13.6974 47.8523C13.6773 47.8204 13.6503 47.7935 13.6184 47.7734C13.5821 47.7644 13.5442 47.7644 13.5079 47.7734C13.473 47.7761 13.4392 47.7867 13.4091 47.8045C13.379 47.8223 13.3534 47.8467 13.3342 47.876C13.2912 47.9415 13.2692 48.0185 13.271 48.0969C13.2628 48.1571 13.2628 48.2181 13.271 48.2784C13.2865 48.3343 13.3105 48.3875 13.3421 48.4361C13.3681 48.4801 13.3971 48.5223 13.4289 48.5624L13.5395 48.6807L13.8868 49.0279C13.9593 49.0981 14.0253 49.1747 14.0842 49.2567C14.1395 49.3277 14.1868 49.4066 14.2421 49.4934C14.2918 49.5909 14.329 49.6943 14.3526 49.8011C14.3786 49.915 14.3918 50.0314 14.3921 50.1483C14.4029 50.3964 14.3182 50.6392 14.1553 50.8268C14.0765 50.9097 13.9806 50.9745 13.8743 51.0168C13.7679 51.059 13.6537 51.0776 13.5395 51.0714Z" fill="#333333" stroke="#CC6600" stroke-width="0.2" stroke-miterlimit="10"/>
<path d="M14.7553 51.0161V47.229H15.4026V51.0161H14.7553Z" fill="#333333" stroke="#CC6600" stroke-width="0.2" stroke-miterlimit="10"/>
<path d="M16.8395 51.0714C16.679 51.0761 16.5196 51.0437 16.3737 50.9767C16.2502 50.9213 16.1458 50.8308 16.0737 50.7163C15.999 50.5919 15.9456 50.4559 15.9158 50.3139C15.8822 50.1424 15.8663 49.9679 15.8684 49.7932V48.4598C15.866 48.2798 15.8819 48.1001 15.9158 47.9233C15.9442 47.7833 15.9977 47.6497 16.0737 47.5288C16.1435 47.4124 16.2486 47.3212 16.3737 47.2684C16.5214 47.208 16.6799 47.1785 16.8395 47.1816C16.9907 47.1767 17.1414 47.2036 17.2816 47.2605C17.3949 47.3066 17.4932 47.383 17.5658 47.4814C17.6363 47.5843 17.6872 47.6993 17.7158 47.8207C17.7492 47.9709 17.7651 48.1245 17.7632 48.2783V48.6018H17.1079V48.0811C17.1079 48.0416 17.1079 48.0101 17.1079 47.9943V47.9233V47.8602V47.8128C17.1079 47.8128 17.1079 47.7734 17.0605 47.7655H16.9974H16.9184C16.8746 47.753 16.8281 47.753 16.7842 47.7655C16.7478 47.7846 16.7171 47.8128 16.6949 47.8474C16.6728 47.882 16.66 47.9217 16.6579 47.9627C16.6509 48.0125 16.6509 48.0629 16.6579 48.1127V49.9747C16.6491 50.1137 16.6679 50.2531 16.7132 50.3849C16.7339 50.4268 16.7669 50.4614 16.8078 50.4839C16.8488 50.5065 16.8956 50.516 16.9421 50.5112C16.9785 50.5193 17.0162 50.5193 17.0526 50.5112C17.084 50.4973 17.1112 50.4756 17.1316 50.4481L17.1789 50.3692C17.1814 50.3324 17.1814 50.2955 17.1789 50.2587C17.1789 50.2035 17.1789 50.164 17.1789 50.1325V49.6196H17.7711V49.9273C17.7735 50.0812 17.7576 50.2348 17.7237 50.3849C17.6992 50.5112 17.651 50.6317 17.5816 50.74C17.5114 50.8493 17.4095 50.9346 17.2895 50.9846C17.1477 51.0463 16.994 51.0759 16.8395 51.0714Z" fill="#333333" stroke="#CC6600" stroke-width="0.2" stroke-miterlimit="10"/>
<path d="M18.0079 51.0161L18.6474 47.229H19.3895L20.0289 51.0161H19.4053L19.2869 50.1798H18.7579L18.6395 51.0161H18.0079ZM18.7974 49.6985H19.1921L18.9947 48.1915L18.7974 49.6985Z" fill="#333333" stroke="#CC6600" stroke-width="0.2" stroke-miterlimit="10"/>
<path d="M20.3526 51.0161V47.229H21.0237V50.4954H21.8132V51.0161H20.3526Z" fill="#333333" stroke="#CC6600" stroke-width="0.2" stroke-miterlimit="10"/>
<path d="M29.4868 53.1622L29.55 49.375H30.3395L30.829 51.7893L31.3342 49.375H32.1237L32.1869 53.1622H31.6105L31.5632 50.6059L31.0579 53.1622H30.5842L30.0632 50.5901L30.0158 53.1622H29.4868Z" fill="#333333" stroke="#CC6600" stroke-width="0.2" stroke-miterlimit="10"/>
<path d="M32.7711 53.1622V49.375H34.4526V49.9273H33.5605V50.9293H34.2553V51.4659H33.5605V52.6494H34.4605V53.178L32.7711 53.1622Z" fill="#333333" stroke="#CC6600" stroke-width="0.2" stroke-miterlimit="10"/>
<path d="M34.879 53.1622V49.375H35.4237L36.2842 51.3396V49.375H36.9395V53.1622H36.4105L35.55 51.0714V53.1622H34.879Z" fill="#333333" stroke="#CC6600" stroke-width="0.2" stroke-miterlimit="10"/>
<path d="M37.871 53.1622V49.9273H37.2552V49.3593H39.2605V49.9273H38.6605V53.1464L37.871 53.1622Z" fill="#333333" stroke="#CC6600" stroke-width="0.2" stroke-miterlimit="10"/>
<path d="M39.371 53.1622L40.121 49.375H40.9816L41.771 53.1622H41.0447L40.9026 52.3259H40.2947L40.1526 53.1622H39.371ZM40.3263 51.8446H40.7842L40.5552 50.3376L40.3263 51.8446Z" fill="#333333" stroke="#CC6600" stroke-width="0.2" stroke-miterlimit="10"/>
<path d="M42.1184 53.1622V49.375H42.9079V52.6336H43.8237V53.1622H42.1184Z" fill="#333333" stroke="#CC6600" stroke-width="0.2" stroke-miterlimit="10"/>
<path d="M34.2079 71.0328L34.6105 67.4508L35.4789 67.5455C35.6673 67.5623 35.8529 67.6021 36.0316 67.6639C36.1618 67.7146 36.2762 67.799 36.3631 67.9084C36.4416 68.0186 36.493 68.1456 36.5131 68.2793C36.537 68.452 36.537 68.6273 36.5131 68.8L36.3631 70.0939C36.3454 70.2685 36.3084 70.4405 36.2526 70.6068C36.2037 70.7361 36.1253 70.8522 36.0237 70.9461C35.9161 71.0397 35.7851 71.1024 35.6447 71.1275C35.4589 71.1553 35.27 71.1553 35.0842 71.1275L34.2079 71.0328ZM34.9974 70.6068H35.1474H35.2895C35.3232 70.6148 35.3584 70.6148 35.3921 70.6068H35.4711C35.4935 70.5896 35.5123 70.5682 35.5263 70.5437V70.4648C35.5331 70.4309 35.5331 70.396 35.5263 70.3622V70.2439C35.5263 70.2439 35.5263 70.165 35.5263 70.1018L35.6842 68.6659C35.6909 68.5977 35.6909 68.5289 35.6842 68.4607C35.692 68.4111 35.692 68.3605 35.6842 68.3108C35.6749 68.2684 35.6529 68.2299 35.621 68.2004C35.5879 68.1713 35.5507 68.1474 35.5105 68.1294H35.3132H35.1711L34.9974 70.6068Z" fill="#333333" stroke="#CC6600" stroke-width="0.2" stroke-miterlimit="10"/>
<path d="M36.7184 71.309L37.1211 67.7191L38.7 67.8926L38.6447 68.3976L37.8158 68.3108L37.7132 69.2576L38.3526 69.3286L38.2974 69.8415L37.65 69.7705L37.5237 70.8908L38.3605 70.9855L38.3053 71.4826L36.7184 71.309Z" fill="#333333" stroke="#CC6600" stroke-width="0.2" stroke-miterlimit="10"/>
<path d="M39.1421 71.5772L38.8658 67.9163L39.4974 67.9795L39.6395 70.4805L40.3105 68.0741L40.9658 68.1451L39.8763 71.6562L39.1421 71.5772Z" fill="#333333" stroke="#CC6600" stroke-width="0.2" stroke-miterlimit="10"/>
<path d="M40.9184 71.7666L41.3289 68.1846L42.9079 68.3503L42.8447 68.8552L42.0553 68.7684L41.9447 69.7152L42.5921 69.7862L42.5289 70.2991L41.8895 70.2281L41.7632 71.3484L42.6 71.4431L42.5368 71.9402L40.9184 71.7666Z" fill="#333333" stroke="#CC6600" stroke-width="0.2" stroke-miterlimit="10"/>
<path d="M42.8447 72.0191L43.2474 68.4292L43.9737 68.5081L43.6184 71.6009L44.4474 71.6956L44.3921 72.1927L42.8447 72.0191Z" fill="#333333" stroke="#CC6600" stroke-width="0.2" stroke-miterlimit="10"/>
<path d="M45.6868 72.3426C45.52 72.3248 45.3572 72.2795 45.2053 72.2084C45.0809 72.1469 44.9768 72.0511 44.9052 71.9323C44.8337 71.8143 44.788 71.6826 44.7711 71.5457C44.7512 71.378 44.7512 71.2085 44.7711 71.0407L44.9211 69.7152C44.9405 69.5487 44.9775 69.3847 45.0316 69.2261C45.0816 69.0969 45.1567 68.9789 45.2526 68.8789C45.3496 68.7845 45.4692 68.7165 45.6 68.6816C45.7675 68.6566 45.9378 68.6566 46.1053 68.6816C46.2576 68.6819 46.4079 68.7169 46.5446 68.7839C46.6814 68.8508 46.8012 68.9481 46.8947 69.0683C47.047 69.3447 47.0999 69.6649 47.0447 69.9756L46.8947 71.2932C46.8785 71.6106 46.7562 71.9135 46.5474 72.1532C46.4275 72.2477 46.2879 72.3138 46.1388 72.3466C45.9898 72.3794 45.8353 72.378 45.6868 72.3426ZM45.6079 71.7745C45.6522 71.7968 45.7005 71.8102 45.75 71.8139C45.797 71.8224 45.8451 71.8224 45.8921 71.8139C45.9276 71.7995 45.9598 71.778 45.9868 71.7508C46.0185 71.7229 46.0429 71.6877 46.0579 71.6483C46.0745 71.6074 46.0878 71.5651 46.0974 71.522C46.1021 71.4748 46.1021 71.4272 46.0974 71.38L46.2947 69.6995C46.2947 69.6363 46.2947 69.589 46.2947 69.5495C46.2987 69.5076 46.2987 69.4653 46.2947 69.4233C46.2887 69.3806 46.2724 69.34 46.2474 69.305C46.2248 69.2775 46.1981 69.2535 46.1684 69.234C46.1219 69.2216 46.0729 69.2216 46.0263 69.234C45.9798 69.2216 45.9307 69.2216 45.8842 69.234C45.8492 69.2459 45.817 69.2646 45.7895 69.2892C45.7604 69.3178 45.7388 69.353 45.7263 69.3918C45.7085 69.4322 45.6952 69.4746 45.6868 69.518V69.66L45.4974 71.3406C45.4974 71.3958 45.4974 71.451 45.4974 71.4905C45.4934 71.5324 45.4934 71.5747 45.4974 71.6167C45.5045 71.6579 45.5178 71.6978 45.5368 71.7351C45.5582 71.752 45.5822 71.7653 45.6079 71.7745Z" fill="#333333" stroke="#CC6600" stroke-width="0.2" stroke-miterlimit="10"/>
<path d="M47.2184 72.4609L47.629 68.871L48.7421 68.9973C49.3579 69.0604 49.6263 69.4391 49.5316 70.1255C49.5163 70.2867 49.4736 70.4442 49.4053 70.591C49.3548 70.7107 49.2696 70.8124 49.1605 70.8829C49.0585 70.9445 48.9461 70.9873 48.8289 71.0092C48.6952 71.025 48.5601 71.025 48.4263 71.0092H48.1026L47.929 72.5872L47.2184 72.4609ZM48.1816 70.4648H48.4105C48.4673 70.4815 48.5274 70.4838 48.5853 70.4714C48.6433 70.459 48.6971 70.4323 48.7421 70.3938C48.8235 70.2872 48.8679 70.157 48.8684 70.0229C48.8684 69.9283 48.8684 69.8494 48.8684 69.7941C48.8759 69.7418 48.8759 69.6887 48.8684 69.6363C48.8418 69.5859 48.8005 69.5446 48.75 69.518C48.6819 69.4897 48.6101 69.4711 48.5368 69.4628H48.3079L48.1816 70.4648Z" fill="#333333" stroke="#CC6600" stroke-width="0.2" stroke-miterlimit="10"/>
<path d="M49.6105 72.7213L50.0684 69.1393L50.8579 69.226L51.0474 71.593L51.7737 69.3523L52.5158 69.4391L52.1684 73.029L51.6395 72.9738L51.8605 70.5437L51.1263 72.9106L50.6842 72.8633L50.4868 70.378L50.1395 72.8081L49.6105 72.7213Z" fill="#333333" stroke="#CC6600" stroke-width="0.2" stroke-miterlimit="10"/>
<path d="M52.6658 73.0527L53.0684 69.4706L54.6474 69.6363L54.5921 70.1413L53.7632 70.0545L53.6605 71.0013L54.3 71.0723L54.2447 71.5851L53.5974 71.5141L53.4711 72.6345L54.3079 72.7292L54.2526 73.2262L52.6658 73.0527Z" fill="#333333" stroke="#CC6600" stroke-width="0.2" stroke-miterlimit="10"/>
<path d="M54.5842 73.2657L54.9869 69.6758L55.4921 69.731L56.0763 71.6877L56.2895 69.8178L56.8895 69.8888L56.4789 73.4708L55.9974 73.4235L55.429 71.3484L55.2 73.3367L54.5842 73.2657Z" fill="#333333" stroke="#CC6600" stroke-width="0.2" stroke-miterlimit="10"/>
<path d="M57.3474 73.5971L57.6947 70.5516L57.1263 70.4884L57.1816 69.9519L59.0368 70.1571L58.9737 70.6936L58.4132 70.6305L58.0658 73.676L57.3474 73.5971Z" fill="#333333" stroke="#CC6600" stroke-width="0.2" stroke-miterlimit="10"/>
<path d="M52.5632 53.2175C52.4027 53.2222 52.2433 53.1898 52.0974 53.1228C51.9706 53.0617 51.8638 52.966 51.7895 52.8466C51.7147 52.7166 51.6614 52.5754 51.6316 52.4285C51.598 52.249 51.5822 52.0666 51.5842 51.8841V50.4875C51.5819 50.2997 51.5978 50.1121 51.6316 49.9273C51.6614 49.7804 51.7147 49.6392 51.7895 49.5092C51.8643 49.3922 51.9712 49.2991 52.0974 49.2409C52.2451 49.1805 52.4036 49.151 52.5632 49.1541C52.717 49.1493 52.8702 49.1761 53.0132 49.233C53.1311 49.2825 53.2325 49.3646 53.3053 49.4697C53.3773 49.5776 53.4282 49.698 53.4553 49.8248C53.4891 49.9802 53.505 50.1391 53.5026 50.2982V50.6374H52.8395V50.0852C52.8395 50.0457 52.8395 50.022 52.8395 50.0062C52.838 49.98 52.838 49.9536 52.8395 49.9273C52.8434 49.9065 52.8434 49.8851 52.8395 49.8642V49.809C52.828 49.7895 52.8116 49.7732 52.7921 49.7617H52.729H52.6421C52.5982 49.7499 52.5519 49.7499 52.5079 49.7617C52.476 49.7817 52.4491 49.8087 52.429 49.8406C52.4026 49.8808 52.3864 49.9268 52.3816 49.9747C52.3746 50.0244 52.3746 50.0749 52.3816 50.1246V52.0734C52.3738 52.2176 52.3926 52.362 52.4369 52.4995C52.4573 52.5421 52.49 52.5777 52.5308 52.6016C52.5716 52.6255 52.6186 52.6366 52.6658 52.6336H52.7842C52.8138 52.617 52.8405 52.5957 52.8632 52.5705L52.9105 52.4837V52.3653C52.9105 52.3101 52.9105 52.2707 52.9105 52.2312V51.7026H53.5737V52.034C53.5764 52.1957 53.5605 52.3571 53.5263 52.5152C53.5018 52.6489 53.4537 52.7772 53.3842 52.894C53.3123 53.0037 53.2112 53.0912 53.0921 53.1464C52.924 53.212 52.7426 53.2364 52.5632 53.2175Z" fill="#333333" stroke="#CC6600" stroke-width="0.2" stroke-miterlimit="10"/>
<path d="M53.9289 53.1622V49.2173H54.6079V50.8426H55.2V49.2173H55.8789V53.1622H55.2V51.4028H54.6079V53.1622H53.9289Z" fill="#333333" stroke="#CC6600" stroke-width="0.2" stroke-miterlimit="10"/>
<path d="M56.2263 53.1622L56.8816 49.2173H57.6237L58.279 53.1622H57.6474L57.5211 52.2864H56.9921L56.8658 53.1622H56.2263ZM57.0553 51.7893H57.45L57.2526 50.2114L57.0553 51.7893Z" fill="#333333" stroke="#CC6600" stroke-width="0.2" stroke-miterlimit="10"/>
<path d="M58.6105 53.1622V49.2172H59.4553C59.6092 49.2144 59.763 49.2303 59.9132 49.2646C60.0373 49.2938 60.1533 49.3504 60.2526 49.4303C60.3552 49.5169 60.434 49.6282 60.4816 49.7538C60.5323 49.9199 60.5563 50.093 60.5526 50.2666C60.5603 50.4785 60.5282 50.6899 60.4579 50.8899C60.4002 51.0432 60.2877 51.1697 60.1421 51.245L60.6079 53.178H59.9132L59.5263 51.3948H59.2895V53.178L58.6105 53.1622ZM59.2895 50.8899H59.4632C59.5282 50.8955 59.5936 50.8856 59.654 50.8609C59.7145 50.8362 59.7681 50.7975 59.8105 50.7479C59.891 50.6182 59.927 50.4659 59.9132 50.3139C59.9219 50.1642 59.892 50.0148 59.8263 49.88C59.7871 49.8333 59.7373 49.7967 59.6809 49.7733C59.6246 49.75 59.5634 49.7405 59.5026 49.7459H59.2895V50.8899Z" fill="#333333" stroke="#CC6600" stroke-width="0.2" stroke-miterlimit="10"/>
<path d="M60.8368 53.1622L61.4921 49.2173H62.2421L62.8974 53.1622H62.2579L62.1395 52.2943H61.6026L61.4842 53.1701L60.8368 53.1622ZM61.6737 51.7893H62.0684L61.871 50.2114L61.6737 51.7893Z" fill="#333333" stroke="#CC6600" stroke-width="0.2" stroke-miterlimit="10"/>
<path d="M64.1605 53.2175C63.9975 53.222 63.8356 53.1896 63.6869 53.1228C63.5615 53.0597 63.4552 52.9644 63.3789 52.8466C63.3042 52.7166 63.2509 52.5754 63.2211 52.4285C63.1875 52.249 63.1716 52.0666 63.1737 51.8841V50.4875C63.1714 50.2997 63.1872 50.1121 63.2211 49.9273C63.2509 49.7804 63.3042 49.6392 63.3789 49.5092C63.4563 49.3943 63.5625 49.3018 63.6869 49.2409C63.8371 49.1799 63.9984 49.1503 64.1605 49.1541C64.3119 49.1485 64.4626 49.1754 64.6026 49.233C64.7206 49.2825 64.8219 49.3646 64.8947 49.4697C64.9692 49.5771 65.0228 49.6976 65.0526 49.8248C65.0865 49.9802 65.1024 50.1391 65.1 50.2982V50.6374H64.429V50.0852C64.4343 50.0591 64.4343 50.0323 64.429 50.0063C64.4312 49.98 64.4312 49.9536 64.429 49.9273C64.4356 49.9068 64.4356 49.8848 64.429 49.8642L64.3895 49.809C64.3861 49.7978 64.38 49.7877 64.3717 49.7794C64.3635 49.7712 64.3533 49.7651 64.3421 49.7617H64.279H64.2C64.1563 49.7483 64.1095 49.7483 64.0658 49.7617C64.03 49.7793 63.9999 49.8067 63.979 49.8406C63.9526 49.8808 63.9364 49.9268 63.9316 49.9747V50.1246V52.0734C63.9256 52.2181 63.9471 52.3627 63.9947 52.4995C64.0142 52.5428 64.0468 52.579 64.0878 52.6031C64.1288 52.6271 64.1763 52.6378 64.2237 52.6336H64.3342C64.3638 52.617 64.3905 52.5957 64.4132 52.5705L64.4605 52.4837V52.3653C64.464 52.3207 64.464 52.2759 64.4605 52.2312V51.7026H65.1395V52.034C65.1422 52.1957 65.1263 52.3571 65.0921 52.5152C65.065 52.6494 65.0142 52.7776 64.9421 52.894C64.8702 53.0037 64.7691 53.0912 64.65 53.1464C64.4942 53.2065 64.327 53.2308 64.1605 53.2175Z" fill="#333333" stroke="#CC6600" stroke-width="0.2" stroke-miterlimit="10"/>
<path d="M65.8263 53.1622V49.7932H65.2895V49.2015H67.0342V49.7932H66.5053V53.1622H65.8263Z" fill="#333333" stroke="#CC6600" stroke-width="0.2" stroke-miterlimit="10"/>
<path d="M67.3105 53.1622V49.2173H68.7711V49.7774H67.9816V50.8268H68.5895V51.387H67.9816V52.6257H68.7711V53.178L67.3105 53.1622Z" fill="#333333" stroke="#CC6600" stroke-width="0.2" stroke-miterlimit="10"/>
<path d="M69.0868 53.1622V49.2172H69.9316C70.0882 49.2149 70.2445 49.2307 70.3974 49.2646C70.5209 49.2954 70.6366 49.3519 70.7368 49.4303C70.8382 49.5163 70.9146 49.6281 70.9579 49.7538C71.0086 49.9199 71.0326 50.093 71.0289 50.2666C71.0347 50.4777 71.0054 50.6884 70.9421 50.8899C70.8811 51.0437 70.766 51.17 70.6184 51.245L71.0842 53.178H70.3895L70.0026 51.3948H69.7658V53.178L69.0868 53.1622ZM69.7658 50.8899H69.9395C70.0047 50.8976 70.0708 50.8886 70.1316 50.8638C70.1923 50.839 70.2458 50.7991 70.2868 50.7479C70.3673 50.6182 70.4033 50.4659 70.3895 50.3139C70.3982 50.1642 70.3683 50.0148 70.3026 49.88C70.2639 49.8327 70.2141 49.7957 70.1576 49.7723C70.1012 49.7489 70.0398 49.7398 69.979 49.7459H69.7658V50.8899Z" fill="#333333" stroke="#CC6600" stroke-width="0.2" stroke-miterlimit="10"/>
</svg>
