<svg width="75" height="88" viewBox="0 0 75 88" fill="none" xmlns="http://www.w3.org/2000/svg">
<path d="M37.3564 0L0 21.4058L0.140095 65.4093L37.6366 88L75 66.5872L74.8599 22.5907L37.3564 0Z" fill="#C56200"/>
<path d="M37.4335 4.10483L3.55842 23.5146L3.6845 63.4063L37.6856 83.8881L71.5607 64.4783L71.4276 24.5867L37.4335 4.10483Z" stroke="white" stroke-miterlimit="10"/>
<path d="M71.4976 64.4783L37.6296 83.8881L3.62847 63.4063L3.55842 38.735H71.4206L71.4976 64.4783Z" fill="white"/>
<path d="M37.4615 57.51C42.2973 57.51 46.2174 53.5628 46.2174 48.6938C46.2174 43.8247 42.2973 39.8775 37.4615 39.8775C32.6257 39.8775 28.7055 43.8247 28.7055 48.6938C28.7055 53.5628 32.6257 57.51 37.4615 57.51Z" fill="white"/>
<path d="M37.4615 40.7592C35.6682 40.7556 33.9274 41.368 32.5265 42.4951C31.1256 43.6223 30.1484 45.1968 29.7562 46.9587H45.1667C44.7734 45.1974 43.7959 43.6236 42.3952 42.4967C40.9946 41.3697 39.2544 40.7569 37.4615 40.7592ZM40.9639 46.5355H33.889V45.5058H40.9709L40.9639 46.5355ZM42.3018 45.0615H32.5721V43.1995H42.3298L42.3018 45.0615ZM40.4945 50.5558V54.4984H39.0936V50.5558H38.6383V54.4984H37.6646V50.5558H37.2093V54.4984H36.2356V50.5558H35.7733V54.4984H34.3724V50.5558H29.8263C30.239 52.2893 31.2196 53.8324 32.6098 54.9363C34.0001 56.0402 35.719 56.6405 37.4895 56.6405C39.26 56.6405 40.9789 56.0402 42.3692 54.9363C43.7594 53.8324 44.7399 52.2893 45.1527 50.5558H40.4945Z" fill="#FB830B"/>
<path d="M32.7893 49.5683V47.8263H33.2096C33.3003 47.8144 33.3921 47.8144 33.4828 47.8263C33.5474 47.8463 33.6071 47.8799 33.6579 47.925C33.699 47.9748 33.7299 48.0324 33.749 48.0943C33.7574 48.1763 33.7574 48.259 33.749 48.3411V49.0323C33.7578 49.1191 33.7578 49.2065 33.749 49.2933C33.7315 49.3558 33.7004 49.4136 33.6579 49.4625C33.6105 49.5136 33.5498 49.5502 33.4828 49.5683C33.3962 49.5928 33.3065 49.6046 33.2166 49.6036L32.7893 49.5683ZM33.1395 49.3215H33.2796H33.3287H33.3637V49.2862V49.2509C33.3637 49.2509 33.3637 49.2509 33.3637 49.2016V48.2776C33.3676 48.2543 33.3676 48.2304 33.3637 48.2071C33.3579 48.1871 33.3456 48.1697 33.3287 48.1577C33.3079 48.1527 33.2863 48.1527 33.2656 48.1577H33.1746H33.1045L33.1395 49.3215Z" fill="#EF8F39"/>
<path d="M34.0081 49.5683V47.8262H34.3584V49.5683H34.0081Z" fill="#EF8F39"/>
<path d="M35.0729 49.5895C35.0062 49.5946 34.9392 49.5852 34.8763 49.5621C34.8135 49.539 34.7563 49.5027 34.7086 49.4555C34.6217 49.3324 34.5797 49.1829 34.5895 49.0323L34.8907 48.9759C34.8859 49.0603 34.9003 49.1447 34.9327 49.2227C34.9427 49.2481 34.9601 49.2698 34.9827 49.2849C35.0052 49.3 35.0318 49.3079 35.0588 49.3074C35.0764 49.3092 35.0941 49.3063 35.1102 49.2988C35.1262 49.2914 35.1399 49.2797 35.1499 49.265C35.1611 49.2307 35.1611 49.1936 35.1499 49.1592C35.1508 49.1001 35.1363 49.0417 35.1079 48.99C35.0691 48.9315 35.0219 48.8792 34.9678 48.8348L34.7786 48.6726L34.6666 48.5597C34.6356 48.5158 34.6098 48.4685 34.5895 48.4187C34.5789 48.358 34.5789 48.296 34.5895 48.2353C34.5859 48.1742 34.5953 48.113 34.617 48.0559C34.6388 47.9987 34.6724 47.9469 34.7156 47.9038C34.8091 47.8241 34.9295 47.7836 35.0518 47.791C35.0983 47.7837 35.1455 47.7837 35.1919 47.791C35.2273 47.7977 35.2608 47.8121 35.29 47.8333L35.367 47.8897C35.3881 47.9162 35.4069 47.9446 35.4231 47.9743C35.439 48.0006 35.4508 48.0291 35.4581 48.059V48.1577C35.4616 48.1906 35.4616 48.2236 35.4581 48.2565L35.1569 48.3058C35.1606 48.2754 35.1606 48.2446 35.1569 48.2141C35.16 48.1907 35.16 48.167 35.1569 48.1436C35.1607 48.1226 35.1607 48.1011 35.1569 48.0801V48.0449H35.0939C35.0765 48.0443 35.0592 48.0479 35.0434 48.0552C35.0276 48.0626 35.0137 48.0735 35.0028 48.0872C34.9916 48.1216 34.9916 48.1586 35.0028 48.193C34.9994 48.2211 34.9994 48.2495 35.0028 48.2776C35.0115 48.3039 35.0259 48.328 35.0448 48.3482L35.0869 48.4046L35.1429 48.461L35.325 48.6232L35.4301 48.722L35.5142 48.8348C35.537 48.88 35.5558 48.9273 35.5702 48.9759C35.5779 49.0297 35.5779 49.0843 35.5702 49.1381C35.5712 49.253 35.5286 49.364 35.4511 49.4484C35.4031 49.4996 35.3439 49.539 35.2783 49.5634C35.2127 49.5879 35.1424 49.5968 35.0729 49.5895Z" fill="#EF8F39"/>
<path d="M36.1796 49.5895C36.0959 49.5917 36.0126 49.5774 35.9344 49.5472C35.8736 49.5214 35.8204 49.4801 35.7803 49.4273C35.7412 49.372 35.7126 49.3098 35.6963 49.2439C35.6884 49.1641 35.6884 49.0838 35.6963 49.0041V48.3905C35.6884 48.3084 35.6884 48.2257 35.6963 48.1436C35.7126 48.0777 35.7412 48.0156 35.7803 47.9603C35.8204 47.9074 35.8736 47.8661 35.9344 47.8403C36.0139 47.8163 36.0966 47.8044 36.1796 47.8051C36.2582 47.8008 36.3369 47.8128 36.4108 47.8403C36.468 47.8588 36.5189 47.893 36.5579 47.9391C36.5968 47.9867 36.6254 48.0419 36.6419 48.1013C36.6499 48.1692 36.6499 48.2379 36.6419 48.3058V48.461H36.2987V48.1436H36.2637H36.2216C36.1989 48.1361 36.1743 48.1361 36.1516 48.1436C36.1426 48.1464 36.1342 48.1509 36.127 48.157C36.1198 48.163 36.1139 48.1705 36.1096 48.1789C36.1045 48.1974 36.1045 48.2169 36.1096 48.2353C36.1096 48.2353 36.1096 48.2847 36.1096 48.2988V49.1593C36.0953 49.2195 36.0953 49.2824 36.1096 49.3426C36.1214 49.3635 36.1389 49.3805 36.16 49.3917C36.181 49.403 36.2049 49.408 36.2286 49.4061H36.2847C36.2983 49.411 36.3131 49.411 36.3267 49.4061V49.3638C36.3277 49.3474 36.3277 49.3309 36.3267 49.3144C36.3297 49.2957 36.3297 49.2767 36.3267 49.258V49.0252H36.691V49.1734C36.6985 49.2437 36.6985 49.3146 36.691 49.385C36.6753 49.4433 36.6492 49.4983 36.6139 49.5472C36.5747 49.5993 36.5211 49.6385 36.4598 49.66C36.3626 49.6564 36.2671 49.6323 36.1796 49.5895Z" fill="#EF8F39"/>
<path d="M36.8801 49.5683V47.8262H37.2303V49.5683H36.8801Z" fill="#EF8F39"/>
<path d="M37.4895 49.5683V47.8262H38.0289C38.3301 47.8262 38.4842 47.9955 38.4842 48.327C38.4855 48.406 38.4737 48.4847 38.4491 48.5597C38.4285 48.618 38.3921 48.6693 38.3441 48.7079C38.3015 48.7446 38.2512 48.7711 38.197 48.7854C38.1318 48.7932 38.066 48.7932 38.0008 48.7854H37.8467V49.5472L37.4895 49.5683ZM37.8467 48.5597H37.9588C37.9865 48.564 38.0149 48.5618 38.0416 48.5532C38.0683 48.5447 38.0927 48.53 38.1129 48.5104C38.1464 48.4529 38.1611 48.3863 38.1549 48.3199C38.1549 48.2776 38.1549 48.2424 38.1549 48.2142C38.1578 48.1884 38.1578 48.1624 38.1549 48.1366C38.1413 48.1151 38.1219 48.098 38.0989 48.0872H37.9938H37.8818L37.8467 48.5597Z" fill="#EF8F39"/>
<path d="M38.6593 49.5683V47.8262H39.0095V49.3215H39.4088V49.5683H38.6593Z" fill="#EF8F39"/>
<path d="M39.5839 49.5683V47.8262H39.9342V49.5683H39.5839Z" fill="#EF8F39"/>
<path d="M40.1933 49.5683V47.8262H40.4385L40.8238 48.729V47.8262H41.118V49.5683H40.8938L40.5015 48.6021V49.5683H40.1933Z" fill="#EF8F39"/>
<path d="M41.3771 49.5683V47.8262H42.1267V48.0731H41.7274V48.5315H42.0356V48.7784H41.7274V49.3215H42.1336V49.5683H41.3771Z" fill="#EF8F39"/>
<path d="M60.5141 57.51C65.3499 57.51 69.2701 53.5628 69.2701 48.6938C69.2701 43.8247 65.3499 39.8775 60.5141 39.8775C55.6784 39.8775 51.7582 43.8247 51.7582 48.6938C51.7582 53.5628 55.6784 57.51 60.5141 57.51Z" fill="white"/>
<path d="M60.5071 40.7592C58.7142 40.7569 56.974 41.3697 55.5734 42.4967C54.1727 43.6236 53.1952 45.1974 52.8019 46.9587H68.2124C67.8202 45.1968 66.843 43.6223 65.4421 42.4951C64.0412 41.368 62.3004 40.7556 60.5071 40.7592ZM64.0095 46.5355H57.0048V45.5058H64.0796L64.0095 46.5355ZM65.3474 45.0615H55.6038V43.1995H65.4105L65.3474 45.0615ZM63.5402 50.5558V54.4984H62.1392V50.5558H61.6839V54.4984H60.7173V50.5558H60.262V54.4984H59.2883V50.5558H58.833V54.4984H57.397V50.5558H52.8509C53.2637 52.2893 54.2442 53.8324 55.6345 54.9363C57.0247 56.0402 58.7436 56.6405 60.5141 56.6405C62.2847 56.6405 64.0036 56.0402 65.3938 54.9363C66.784 53.8324 67.7646 52.2893 68.1774 50.5558H63.5402Z" fill="#C6C444"/>
<path d="M56.0591 49.5542V48.0943H55.7929V47.8403H56.6755V48.0943H56.4093V49.5542H56.0591Z" fill="#C6C444"/>
<path d="M56.8156 49.5542V47.8403H57.5581V48.0801H57.1589V48.5315H57.4671V48.7784H57.1589V49.3144H57.5651V49.5542H56.8156Z" fill="#C6C444"/>
<path d="M57.6492 49.5542L57.9854 47.8403H58.3637L58.6929 49.5542H58.4057L58.3427 49.1734H58.0695L58.0064 49.5542H57.6492ZM58.0765 48.9547H58.2796L58.1746 48.2494L58.0765 48.9547Z" fill="#C6C444"/>
<path d="M58.861 49.5542V47.8403H59.2253L59.4424 48.9336L59.6666 47.8403H60.0168V49.5542H59.8067V48.3975L59.5825 49.5542H59.3724L59.1482 48.3905V49.5542H58.861Z" fill="#C6C444"/>
<path d="M60.5071 49.5542L60.283 47.8403H60.5772L60.6893 48.8842L60.8434 47.8403H61.0745L61.2356 48.8842L61.3547 47.8403H61.6419L61.4177 49.5542H61.1306L60.9624 48.4681L60.8013 49.5542H60.5071Z" fill="#C6C444"/>
<path d="M62.2794 49.5754C62.2004 49.5877 62.1201 49.5877 62.0412 49.5754C61.9808 49.5522 61.9276 49.5132 61.8871 49.4625C61.8453 49.4114 61.8165 49.3509 61.803 49.2862C61.7915 49.2067 61.7915 49.1259 61.803 49.0464V48.4116C61.7915 48.3321 61.7915 48.2513 61.803 48.1718C61.8168 48.1093 61.8456 48.0511 61.8871 48.0026C61.9276 47.9518 61.9808 47.9129 62.0412 47.8897C62.1175 47.8621 62.1984 47.8501 62.2794 47.8544C62.3501 47.846 62.4217 47.8544 62.4887 47.8788C62.5556 47.9033 62.6158 47.9433 62.6646 47.9955C62.7515 48.1159 62.7937 48.2632 62.7837 48.4116V49.0464C62.7898 49.1966 62.7481 49.3449 62.6646 49.4696C62.6118 49.5142 62.55 49.5468 62.4835 49.5651C62.417 49.5834 62.3473 49.5869 62.2794 49.5754ZM62.2093 49.3144H62.3424H62.3914V49.265C62.3947 49.244 62.3947 49.2226 62.3914 49.2016V48.2565C62.3954 48.2379 62.3954 48.2186 62.3914 48.2V48.1436H62.3424H62.2794H62.2093H62.1673V48.2C62.1641 48.2187 62.1641 48.2378 62.1673 48.2565V49.2016C62.164 49.2226 62.164 49.244 62.1673 49.265V49.3144H62.2093Z" fill="#C6C444"/>
<path d="M63.0078 49.5542V47.8403H63.4421C63.519 47.8321 63.5965 47.8321 63.6733 47.8403C63.7357 47.8521 63.7952 47.876 63.8484 47.9109C63.8983 47.9463 63.9371 47.9952 63.9605 48.0519C63.9847 48.1222 63.9965 48.1962 63.9955 48.2706C63.9989 48.3618 63.9846 48.4528 63.9535 48.5386C63.9184 48.6069 63.8617 48.6615 63.7924 48.6937L64.0235 49.533H63.6733L63.4772 48.7572H63.3581V49.533L63.0078 49.5542ZM63.3581 48.5668H63.4421C63.4736 48.5695 63.5053 48.566 63.5353 48.5563C63.5654 48.5466 63.5932 48.531 63.6173 48.5104C63.6577 48.4556 63.6775 48.3881 63.6733 48.3199C63.6804 48.2548 63.6629 48.1893 63.6243 48.1366C63.6047 48.1134 63.5798 48.0954 63.5517 48.0843C63.5235 48.0733 63.4931 48.0694 63.4631 48.0731H63.3581V48.5668Z" fill="#C6C444"/>
<path d="M64.2267 49.5542V47.8403H64.5699V48.5456L64.8851 47.8403H65.2143L64.8991 48.6091L65.2424 49.5542H64.8921L64.6189 48.7713L64.5699 48.8489V49.5542H64.2267Z" fill="#C6C444"/>
<path d="M25.7845 73.358C30.6203 73.358 34.5405 69.4109 34.5405 64.5418C34.5405 59.6727 30.6203 55.7256 25.7845 55.7256C20.9488 55.7256 17.0286 59.6727 17.0286 64.5418C17.0286 69.4109 20.9488 73.358 25.7845 73.358Z" fill="white"/>
<path d="M21.8128 64.9438C21.7314 64.9467 21.6502 64.9322 21.5747 64.9015C21.511 64.8808 21.4549 64.8416 21.4136 64.7886C21.3705 64.7384 21.3415 64.6776 21.3295 64.6123C21.3175 64.5305 21.3175 64.4473 21.3295 64.3655V63.7236C21.318 63.6441 21.318 63.5634 21.3295 63.4838C21.3415 63.4186 21.3705 63.3577 21.4136 63.3075C21.4569 63.2568 21.5123 63.2179 21.5747 63.1947C21.6508 63.1665 21.7319 63.1545 21.8128 63.1594C21.8845 63.1525 21.9568 63.1615 22.0246 63.1859C22.0924 63.2103 22.154 63.2494 22.2051 63.3005C22.2886 63.4251 22.3303 63.5734 22.3242 63.7236V64.3655C22.3318 64.5181 22.29 64.6691 22.2051 64.7957C22.1553 64.8489 22.094 64.8898 22.026 64.9155C21.958 64.9412 21.8851 64.9509 21.8128 64.9438ZM21.7428 64.6758H21.8128H21.8829L21.9249 64.6405C21.9262 64.6241 21.9262 64.6076 21.9249 64.5912C21.9249 64.5912 21.9249 64.5488 21.9249 64.5277C21.9287 64.5043 21.9287 64.4805 21.9249 64.4572V63.639C21.9287 63.6156 21.9287 63.5918 21.9249 63.5685C21.9249 63.5685 21.9249 63.5262 21.9249 63.505C21.9262 63.4886 21.9262 63.4721 21.9249 63.4556H21.8829C21.8607 63.4463 21.8369 63.4415 21.8128 63.4415C21.7888 63.4415 21.765 63.4463 21.7428 63.4556C21.7292 63.4508 21.7144 63.4508 21.7008 63.4556C21.6971 63.4719 21.6971 63.4887 21.7008 63.505C21.7008 63.505 21.7008 63.5473 21.7008 63.5685C21.697 63.5918 21.697 63.6156 21.7008 63.639V64.4572C21.697 64.4805 21.697 64.5043 21.7008 64.5277C21.7008 64.5277 21.7008 64.57 21.7008 64.5912C21.6971 64.6074 21.6971 64.6243 21.7008 64.6405C21.7051 64.649 21.711 64.6564 21.7182 64.6625C21.7254 64.6685 21.7338 64.6731 21.7428 64.6758Z" fill="#BF0606"/>
<path d="M22.5553 64.9227V63.1806H23.1648L23.3118 63.2229C23.3547 63.2429 23.3929 63.2717 23.4239 63.3075C23.459 63.3433 23.4854 63.3867 23.501 63.4345C23.5089 63.4954 23.5089 63.557 23.501 63.6179C23.501 63.8224 23.4169 63.9423 23.2488 63.9705C23.4519 63.9705 23.55 64.1468 23.557 64.3937C23.5625 64.4603 23.5542 64.5273 23.5325 64.5905C23.5108 64.6536 23.4762 64.7115 23.4309 64.7604C23.3801 64.8073 23.3204 64.8433 23.2554 64.8663C23.1904 64.8894 23.1214 64.8989 23.0527 64.8944L22.5553 64.9227ZM22.9056 63.8788H22.9896C23.0223 63.884 23.0556 63.8816 23.0872 63.8718C23.1187 63.862 23.1477 63.8451 23.1718 63.8224C23.2047 63.7673 23.2194 63.7031 23.2138 63.639C23.2172 63.6084 23.214 63.5774 23.2044 63.5481C23.1947 63.5189 23.1788 63.4922 23.1577 63.4697C23.0995 63.4321 23.0306 63.4147 22.9616 63.4204H22.9056V63.8788ZM22.9056 64.6688H23.0036C23.0368 64.672 23.0702 64.668 23.1016 64.657C23.133 64.6461 23.1617 64.6284 23.1858 64.6053C23.2201 64.5414 23.2381 64.4699 23.2381 64.3972C23.2381 64.3246 23.2201 64.253 23.1858 64.1891C23.1607 64.1654 23.1308 64.1475 23.0981 64.1365C23.0655 64.1256 23.0308 64.1219 22.9966 64.1257H22.9126L22.9056 64.6688Z" fill="#BF0606"/>
<path d="M24.2295 64.9438C24.1628 64.9489 24.0958 64.9396 24.033 64.9165C23.9701 64.8933 23.913 64.857 23.8652 64.8098C23.7789 64.6915 23.7345 64.5475 23.7391 64.4007L24.0403 64.3443C24.0407 64.429 24.0574 64.5128 24.0894 64.5912C24.0974 64.6178 24.1143 64.6408 24.1373 64.6563C24.1603 64.6717 24.188 64.6786 24.2155 64.6758C24.232 64.6771 24.2485 64.6739 24.2633 64.6664C24.2781 64.659 24.2907 64.6476 24.2995 64.6335C24.3107 64.5991 24.3107 64.562 24.2995 64.5277C24.3004 64.4685 24.286 64.4102 24.2575 64.3584C24.2187 64.3 24.1715 64.2477 24.1174 64.2033L23.9283 64.041C23.8855 64.0066 23.8478 63.9662 23.8162 63.9211C23.7835 63.8809 23.7574 63.8357 23.7391 63.7871C23.7319 63.7262 23.7319 63.6647 23.7391 63.6037C23.7355 63.5426 23.7449 63.4815 23.7667 63.4243C23.7884 63.3671 23.822 63.3153 23.8652 63.2723C23.9609 63.1914 24.0839 63.151 24.2085 63.1594C24.2525 63.152 24.2975 63.152 24.3415 63.1594L24.4396 63.1947C24.468 63.2122 24.4939 63.2336 24.5167 63.2582C24.5383 63.2818 24.5571 63.3078 24.5727 63.3357C24.5874 63.365 24.5992 63.3958 24.6077 63.4274C24.6136 63.4601 24.6136 63.4935 24.6077 63.5262C24.6115 63.559 24.6115 63.5921 24.6077 63.6249L24.3065 63.6743V63.5826C24.3065 63.5826 24.3065 63.5403 24.3065 63.5121C24.3086 63.4909 24.3086 63.4697 24.3065 63.4486H24.2645H24.2015C24.1842 63.449 24.1672 63.4529 24.1516 63.4602C24.1359 63.4675 24.1219 63.4779 24.1104 63.4909C24.0992 63.5253 24.0992 63.5623 24.1104 63.5967C24.1036 63.6245 24.1036 63.6535 24.1104 63.6813C24.1164 63.7073 24.1284 63.7315 24.1454 63.7519L24.1874 63.8083L24.2505 63.8647L24.4326 64.0269L24.5307 64.1257L24.6147 64.2385C24.6376 64.2837 24.6564 64.331 24.6708 64.3796C24.6781 64.431 24.6781 64.4833 24.6708 64.5347C24.6736 64.6521 24.6309 64.7659 24.5517 64.8521C24.4598 64.9228 24.3446 64.9556 24.2295 64.9438Z" fill="#BF0606"/>
<path d="M25.021 64.9227V63.4415H24.7408V63.1806H25.6444V63.4415H25.3713V64.9227H25.021Z" fill="#BF0606"/>
<path d="M25.6935 64.9227L26.0297 63.1806H26.415L26.7512 64.9227H26.429L26.3589 64.5348H26.0857L26.0227 64.9227H25.6935ZM26.1208 64.3161H26.3239L26.2258 63.6108L26.1208 64.3161Z" fill="#BF0606"/>
<path d="M27.4026 64.9438C27.3212 64.9461 27.2402 64.9317 27.1645 64.9015C27.1017 64.8757 27.0463 64.8345 27.0034 64.7816C26.9667 64.7248 26.9384 64.6631 26.9193 64.5982C26.9114 64.5185 26.9114 64.4382 26.9193 64.3584V63.7448C26.9115 63.6627 26.9115 63.5801 26.9193 63.498C26.9384 63.4331 26.9667 63.3713 27.0034 63.3146C27.0463 63.2617 27.1017 63.2205 27.1645 63.1947C27.2416 63.1705 27.3219 63.1587 27.4026 63.1594C27.4813 63.1551 27.56 63.1671 27.6338 63.1947C27.6923 63.2147 27.7451 63.2485 27.7879 63.2934C27.8246 63.3414 27.8509 63.3967 27.8649 63.4556C27.873 63.5236 27.873 63.5922 27.8649 63.6602V63.8436H27.5217V63.5332H27.4797C27.4569 63.5257 27.4324 63.5257 27.4096 63.5332H27.3676C27.3625 63.5517 27.3625 63.5712 27.3676 63.5897C27.3643 63.6107 27.3643 63.6321 27.3676 63.6531V64.5136C27.3533 64.5739 27.3533 64.6367 27.3676 64.697C27.3795 64.7178 27.3969 64.7348 27.418 64.7461C27.4391 64.7573 27.4629 64.7623 27.4867 64.7604H27.5497C27.5517 64.7464 27.5517 64.7321 27.5497 64.7181C27.5497 64.7181 27.5497 64.7181 27.5497 64.6688V64.3796H27.893V64.5206C27.9013 64.5909 27.9013 64.662 27.893 64.7322C27.8789 64.7933 27.8527 64.8509 27.8159 64.9015C27.7795 64.9518 27.7279 64.9889 27.6688 65.0073C27.5765 65.006 27.4857 64.9843 27.4026 64.9438Z" fill="#BF0606"/>
<path d="M28.1031 64.9227V63.1806H28.4533V64.6758H28.8526V64.9227H28.1031Z" fill="#BF0606"/>
<path d="M29.0207 64.9227V63.1806H29.7773V63.4274H29.378V63.8859H29.6862V64.1327H29.378V64.6758H29.7773V64.9227H29.0207Z" fill="#BF0606"/>
<path d="M19.3261 67.5252C19.2425 67.5274 19.1591 67.5131 19.081 67.4829C19.0201 67.4572 18.967 67.4158 18.9269 67.363C18.885 67.3093 18.8562 67.2465 18.8428 67.1796C18.8313 67.1001 18.8313 67.0193 18.8428 66.9398V66.3262C18.8308 66.2443 18.8308 66.1612 18.8428 66.0794C18.8549 66.012 18.8838 65.9489 18.9269 65.896C18.9654 65.8416 19.019 65.7998 19.081 65.7761C19.1595 65.7479 19.2429 65.7359 19.3261 65.7408C19.4047 65.7376 19.4832 65.7496 19.5573 65.7761C19.6145 65.7945 19.6655 65.8287 19.7044 65.8748C19.7397 65.9211 19.7658 65.9738 19.7814 66.03C19.792 66.1001 19.792 66.1714 19.7814 66.2416V66.3897H19.4382V66.1499V66.1146H19.3962C19.3734 66.1071 19.3489 66.1071 19.3261 66.1146C19.3171 66.1173 19.3088 66.1219 19.3016 66.1279C19.2943 66.134 19.2884 66.1415 19.2841 66.1499C19.279 66.1683 19.279 66.1878 19.2841 66.2063C19.2807 66.2273 19.2807 66.2488 19.2841 66.2698C19.2803 66.2955 19.2803 66.3216 19.2841 66.3473V67.1302C19.2701 67.1906 19.2701 67.2533 19.2841 67.3136C19.2953 67.3351 19.3126 67.3526 19.3339 67.3639C19.3551 67.3753 19.3793 67.3799 19.4032 67.3771H19.4592C19.4592 67.3771 19.4592 67.3771 19.5013 67.3771V67.3418C19.5054 67.3256 19.5054 67.3087 19.5013 67.2925C19.5013 67.2925 19.5013 67.2501 19.5013 67.236V66.9962H19.8445V67.1443C19.8567 67.2143 19.8567 67.2859 19.8445 67.3559C19.8329 67.4166 19.8091 67.4742 19.7744 67.5252C19.7321 67.5722 19.6793 67.6085 19.6203 67.631C19.5144 67.6241 19.4124 67.5875 19.3261 67.5252Z" fill="#BF0606"/>
<path d="M20.5029 67.5252C20.4215 67.5275 20.3405 67.5131 20.2648 67.4829C20.2011 67.4622 20.145 67.4229 20.1037 67.37C20.0677 67.3155 20.0394 67.2561 20.0196 67.1937C20.0111 67.1116 20.0111 67.0289 20.0196 66.9469V66.305C20.0115 66.2253 20.0115 66.145 20.0196 66.0652C20.0376 66.0021 20.066 65.9425 20.1037 65.8889C20.145 65.836 20.2011 65.7967 20.2648 65.7761C20.341 65.7485 20.422 65.7365 20.5029 65.7408C20.5747 65.7323 20.6474 65.7406 20.7155 65.7651C20.7835 65.7896 20.845 65.8295 20.8952 65.8819C20.9843 66.0038 21.0266 66.1541 21.0143 66.305V66.9469C21.027 67.1 20.9848 67.2527 20.8952 67.3771C20.8454 67.4303 20.7841 67.4712 20.7161 67.4969C20.6481 67.5226 20.5752 67.5323 20.5029 67.5252ZM20.4329 67.2572H20.5029H20.573C20.573 67.2572 20.573 67.2572 20.615 67.2572C20.6186 67.2409 20.6186 67.2241 20.615 67.2078C20.615 67.2078 20.615 67.1655 20.615 67.1443V66.1851C20.615 66.1851 20.615 66.1428 20.615 66.1217C20.6186 66.1054 20.6186 66.0885 20.615 66.0723C20.615 66.0723 20.615 66.0723 20.573 66.037H20.4329L20.3909 66.0723V66.1217C20.3876 66.1427 20.3876 66.1641 20.3909 66.1851V67.1443C20.3876 67.1654 20.3876 67.1868 20.3909 67.2078V67.2572H20.4329Z" fill="#BF0606"/>
<path d="M21.7358 67.5252C21.652 67.528 21.5686 67.5136 21.4906 67.4829C21.4289 67.4622 21.3751 67.4228 21.3365 67.37C21.2997 67.3143 21.2735 67.2521 21.2595 67.1867C21.2514 67.1046 21.2514 67.0219 21.2595 66.9398V65.762H21.6097V67.0668C21.607 67.0926 21.607 67.1186 21.6097 67.1443V67.2078L21.6587 67.2501H21.7288H21.7988C21.8162 67.2398 21.8306 67.2253 21.8409 67.2078C21.8435 67.1867 21.8435 67.1654 21.8409 67.1443C21.844 67.1186 21.844 67.0925 21.8409 67.0668C21.845 67.0387 21.845 67.0102 21.8409 66.9821V65.762H22.1841V66.9398C22.1919 67.0219 22.1919 67.1046 22.1841 67.1867C22.17 67.2521 22.1439 67.3143 22.107 67.37C22.067 67.4213 22.0137 67.4603 21.9529 67.4829C21.8836 67.5096 21.8101 67.5239 21.7358 67.5252Z" fill="#BF0606"/>
<path d="M22.4783 67.497V65.762H22.9126C22.9918 65.7537 23.0716 65.7537 23.1507 65.762C23.2131 65.7737 23.2727 65.7976 23.3259 65.8325C23.3763 65.8691 23.4171 65.9175 23.4449 65.9735C23.457 66.0483 23.457 66.1245 23.4449 66.1992C23.4496 66.2935 23.4328 66.3876 23.3959 66.4743C23.3807 66.5097 23.3586 66.5416 23.3309 66.5683C23.3032 66.5949 23.2706 66.6157 23.2348 66.6295L23.473 67.4758H23.1157L22.9126 66.693H22.7935V67.4758L22.4783 67.497ZM22.8285 66.5025H22.9196C22.9517 66.5062 22.9841 66.5024 23.0145 66.4914C23.0449 66.4804 23.0723 66.4625 23.0947 66.439C23.1357 66.3845 23.1556 66.3168 23.1507 66.2486C23.157 66.1813 23.1397 66.114 23.1017 66.0582C23.0795 66.037 23.0529 66.021 23.0238 66.0113C22.9948 66.0015 22.964 65.9983 22.9336 66.0018H22.8285V66.5025Z" fill="#BF0606"/>
<path d="M24.1594 67.5252C24.0938 67.5297 24.028 67.5201 23.9664 67.497C23.9048 67.4739 23.8488 67.4378 23.8022 67.3912C23.7159 67.2729 23.6715 67.1289 23.6761 66.9821L23.9773 66.9257C23.9732 67.0101 23.9876 67.0944 24.0193 67.1726C24.0293 67.1979 24.0467 67.2196 24.0692 67.2347C24.0918 67.2498 24.1183 67.2577 24.1454 67.2572C24.1629 67.2583 24.1804 67.2551 24.1963 67.2477C24.2122 67.2403 24.226 67.229 24.2365 67.2149C24.2477 67.1805 24.2477 67.1434 24.2365 67.1091C24.2384 67.0498 24.2239 66.9912 24.1945 66.9398C24.1536 66.8809 24.104 66.8285 24.0473 66.7847L23.8652 66.6224L23.7461 66.5025C23.7158 66.4619 23.6921 66.4167 23.6761 66.3685C23.6655 66.3079 23.6655 66.2458 23.6761 66.1852C23.6725 66.124 23.6819 66.0629 23.7036 66.0057C23.7254 65.9485 23.759 65.8967 23.8022 65.8537C23.8481 65.8135 23.9014 65.7829 23.9591 65.7635C24.0168 65.7441 24.0778 65.7364 24.1384 65.7408C24.1825 65.7334 24.2274 65.7334 24.2715 65.7408L24.3766 65.7761L24.4536 65.8395C24.4746 65.8637 24.4933 65.8896 24.5097 65.9171C24.5097 65.9171 24.5097 65.9736 24.5097 66.0088V66.1076C24.5097 66.1076 24.5097 66.171 24.5097 66.2063L24.2085 66.2557C24.2122 66.2252 24.2122 66.1944 24.2085 66.164C24.2117 66.1406 24.2117 66.1169 24.2085 66.0935C24.2166 66.0731 24.2166 66.0503 24.2085 66.03L24.1734 65.9947C24.153 65.9877 24.1308 65.9877 24.1104 65.9947C24.0929 65.9936 24.0754 65.9968 24.0595 66.0042C24.0436 66.0116 24.0298 66.0229 24.0193 66.037C24.0091 66.0691 24.0091 66.1037 24.0193 66.1358C24.0156 66.1662 24.0156 66.197 24.0193 66.2275C24.0282 66.2523 24.0399 66.276 24.0544 66.298L24.1034 66.3544L24.1594 66.4109L24.3415 66.566L24.4466 66.6718C24.4762 66.7066 24.5021 66.7444 24.5237 66.7847C24.553 66.8275 24.5743 66.8752 24.5867 66.9257C24.594 66.9772 24.594 67.0294 24.5867 67.0809C24.5891 67.1387 24.5791 67.1963 24.5573 67.2499C24.5356 67.3035 24.5026 67.3517 24.4606 67.3912C24.422 67.4328 24.3754 67.4661 24.3236 67.4891C24.2718 67.5122 24.216 67.5244 24.1594 67.5252Z" fill="#BF0606"/>
<path d="M24.7829 67.497V65.762H25.5394V66.0088H25.1331V66.4673H25.4833V66.7141H25.1681V67.2572H25.5744V67.497H24.7829Z" fill="#BF0606"/>
<path d="M26.2609 67.497V65.762H26.9613V66.0018H26.5761V66.4743H26.8913V66.7212H26.5761V67.497H26.2609Z" fill="#BF0606"/>
<path d="M27.1715 67.497V65.762H27.5217V67.497H27.1715Z" fill="#BF0606"/>
<path d="M27.942 67.497V66.0229H27.6688V65.762H28.5654V66.0229H28.2852V67.497H27.942Z" fill="#BF0606"/>
<path d="M28.7125 67.497V65.762H28.9857L29.371 66.6647V65.762H29.6652V67.497H29.427L29.0417 66.5378V67.497H28.7125Z" fill="#BF0606"/>
<path d="M29.8893 67.497V65.762H30.6458V66.0088H30.2396V66.4673H30.5548V66.7141H30.2396V67.2572H30.6458V67.497H29.8893Z" fill="#BF0606"/>
<path d="M31.2763 67.5252C31.2097 67.529 31.1431 67.519 31.0804 67.496C31.0178 67.473 30.9605 67.4373 30.912 67.3912C30.8257 67.2729 30.7813 67.1289 30.7859 66.9821L31.0871 66.9257C31.0864 67.0098 31.1006 67.0935 31.1292 67.1726C31.1404 67.1985 31.1591 67.2204 31.1828 67.2355C31.2065 67.2506 31.2342 67.2581 31.2623 67.2572C31.2788 67.2585 31.2953 67.2553 31.3101 67.2478C31.3249 67.2403 31.3374 67.229 31.3463 67.2149C31.3575 67.1805 31.3575 67.1434 31.3463 67.1091C31.3483 67.0498 31.3337 66.9912 31.3043 66.9398C31.2655 66.8814 31.2183 66.8291 31.1642 66.7846L30.9751 66.6224C30.9339 66.5862 30.8964 66.546 30.863 66.5025C30.8303 66.4623 30.8042 66.4171 30.7859 66.3685C30.7753 66.3078 30.7753 66.2458 30.7859 66.1851C30.7823 66.124 30.7917 66.0629 30.8134 66.0057C30.8352 65.9485 30.8688 65.8967 30.912 65.8536C31.0055 65.7739 31.1259 65.7335 31.2482 65.7408C31.2947 65.7335 31.3419 65.7335 31.3883 65.7408L31.4864 65.7761L31.5635 65.8395C31.5844 65.8636 31.6032 65.8896 31.6195 65.9171C31.6354 65.9459 31.6472 65.9768 31.6545 66.0088V66.1075C31.6583 66.1403 31.6583 66.1735 31.6545 66.2063L31.3533 66.2557C31.3571 66.2252 31.3571 66.1944 31.3533 66.164C31.3568 66.1406 31.3568 66.1168 31.3533 66.0934C31.3584 66.0726 31.3584 66.0508 31.3533 66.03L31.3183 65.9947C31.298 65.9871 31.2756 65.9871 31.2553 65.9947C31.2379 65.9941 31.2206 65.9977 31.2048 66.005C31.1889 66.0124 31.1751 66.0233 31.1642 66.037C31.154 66.0691 31.154 66.1036 31.1642 66.1358C31.1605 66.1662 31.1605 66.197 31.1642 66.2275C31.1729 66.2538 31.1873 66.2778 31.2062 66.298L31.2482 66.3544L31.3043 66.4108L31.4864 66.566L31.5915 66.6718L31.6755 66.7846C31.6996 66.8293 31.7184 66.8766 31.7316 66.9257C31.7389 66.9772 31.7389 67.0294 31.7316 67.0809C31.7336 67.138 31.7241 67.195 31.7036 67.2483C31.6831 67.3016 31.6521 67.3503 31.6125 67.3912C31.5693 67.4365 31.5169 67.472 31.4589 67.4951C31.4009 67.5182 31.3386 67.5285 31.2763 67.5252Z" fill="#BF0606"/>
<path d="M32.348 67.5252C32.2824 67.5297 32.2166 67.5201 32.155 67.497C32.0934 67.4739 32.0374 67.4378 31.9907 67.3912C31.9044 67.2729 31.86 67.1289 31.8647 66.9821L32.1659 66.9257C32.1618 67.0101 32.1762 67.0943 32.2079 67.1726C32.2179 67.1979 32.2353 67.2196 32.2578 67.2347C32.2803 67.2498 32.3069 67.2577 32.334 67.2572C32.3515 67.2583 32.3689 67.2551 32.3848 67.2477C32.4008 67.2403 32.4146 67.229 32.425 67.2149C32.4363 67.1805 32.4363 67.1434 32.425 67.1091C32.427 67.0498 32.4125 66.9912 32.383 66.9398C32.3421 66.8808 32.2925 66.8285 32.2359 66.7846L32.0538 66.6224C32.0127 66.5862 31.9751 66.5461 31.9417 66.5025C31.9065 66.4641 31.8802 66.4184 31.8647 66.3685C31.8541 66.3078 31.8541 66.2458 31.8647 66.1851C31.8611 66.124 31.8704 66.0629 31.8922 66.0057C31.9139 65.9485 31.9475 65.8967 31.9907 65.8537C32.0367 65.8135 32.09 65.7829 32.1477 65.7635C32.2054 65.7441 32.2663 65.7364 32.327 65.7408C32.371 65.733 32.416 65.733 32.4601 65.7408L32.5651 65.7761L32.6422 65.8395C32.6631 65.8637 32.6819 65.8896 32.6982 65.9171C32.6982 65.9171 32.6982 65.9736 32.6982 66.0088V66.1075C32.6982 66.1075 32.6982 66.171 32.6982 66.2063L32.397 66.2557C32.4008 66.2252 32.4008 66.1944 32.397 66.164C32.397 66.164 32.397 66.1146 32.397 66.0934C32.4021 66.0726 32.4021 66.0508 32.397 66.03L32.362 65.9947C32.3416 65.9877 32.3194 65.9877 32.299 65.9947C32.2815 65.9935 32.264 65.9968 32.2481 66.0042C32.2322 66.0116 32.2184 66.0229 32.2079 66.037C32.1977 66.0691 32.1977 66.1037 32.2079 66.1358C32.2042 66.1662 32.2042 66.197 32.2079 66.2275L32.2429 66.298L32.292 66.3544L32.348 66.4108L32.5301 66.566L32.6352 66.6718C32.6648 66.7065 32.6906 66.7444 32.7122 66.7846C32.7415 66.8274 32.7629 66.8752 32.7753 66.9257C32.7826 66.9772 32.7826 67.0294 32.7753 67.0809C32.7777 67.1387 32.7677 67.1963 32.7459 67.2499C32.7241 67.3034 32.6912 67.3517 32.6492 67.3912C32.6105 67.4328 32.5639 67.4661 32.5122 67.4891C32.4604 67.5122 32.4046 67.5244 32.348 67.5252Z" fill="#BF0606"/>
<path d="M33.3917 62.433C32.9397 60.7498 31.9497 59.2635 30.5747 58.2036C29.1996 57.1438 27.5162 56.5694 25.7845 56.5694C24.0529 56.5694 22.3694 57.1438 20.9944 58.2036C19.6194 59.2635 18.6294 60.7498 18.1774 62.433V62.5105H33.4267C33.4187 62.4831 33.4069 62.457 33.3917 62.433ZM29.3149 62.3624H22.2331V61.2974H29.3149V62.3624ZM30.6458 60.8813H20.8952V59.0475H30.6458V60.8813ZM28.8456 68.167V70.3253H27.4447V68.167H26.9824V70.3253H26.0157V68.167H25.5534V70.3253H24.5867V68.167H24.0824V70.3253H22.6814V68.167H18.7938C19.4585 69.4601 20.4634 70.5444 21.6988 71.3012C22.9342 72.058 24.3525 72.4583 25.7985 72.4583C27.2446 72.4583 28.6629 72.058 29.8983 71.3012C31.1336 70.5444 32.1386 69.4601 32.8033 68.167H28.8456Z" fill="#BF0606"/>
<path d="M49.0544 73.358C53.8901 73.358 57.8103 69.4109 57.8103 64.5418C57.8103 59.6727 53.8901 55.7256 49.0544 55.7256C44.2186 55.7256 40.2984 59.6727 40.2984 64.5418C40.2984 69.4109 44.2186 73.358 49.0544 73.358Z" fill="white"/>
<path d="M56.6615 62.433C56.2095 60.7498 55.2195 59.2635 53.8445 58.2036C52.4695 57.1438 50.786 56.5694 49.0543 56.5694C47.3227 56.5694 45.6392 57.1438 44.2642 58.2036C42.8892 59.2635 41.8992 60.7498 41.4472 62.433C41.4439 62.4587 41.4439 62.4848 41.4472 62.5105H56.6965L56.6615 62.433ZM52.5848 62.3624H45.5099V61.2974H52.5848V62.3624ZM53.9227 60.8813H44.172V59.0475H53.9227V60.8813ZM52.1014 68.1882V70.3464H50.7005V68.1882H50.2452V70.3464H49.2715V68.1882H48.8162V70.3464H47.8285V68.1882H47.3732V70.3464H45.9372V68.1882H42.0496C42.7143 69.4813 43.7192 70.5655 44.9546 71.3223C46.19 72.0792 47.6083 72.4795 49.0543 72.4795C50.5004 72.4795 51.9187 72.0792 53.1541 71.3223C54.3894 70.5655 55.3944 69.4813 56.0591 68.1882H52.1014Z" fill="#2D469F"/>
<path d="M45.0967 64.9227V63.1806H45.636C45.9372 63.1806 46.0843 63.3428 46.0843 63.6813C46.0956 63.7585 46.0956 63.8369 46.0843 63.9141C46.0661 63.9736 46.0292 64.0255 45.9793 64.0622C45.9367 64.0989 45.8864 64.1254 45.8322 64.1398C45.767 64.1479 45.7012 64.1479 45.636 64.1398H45.4819V64.9015L45.0967 64.9227ZM45.4469 63.9141H45.559C45.5867 63.9184 45.615 63.9161 45.6418 63.9076C45.6685 63.899 45.6929 63.8843 45.7131 63.8647C45.7466 63.8073 45.7613 63.7406 45.7551 63.6743C45.7591 63.6391 45.7591 63.6036 45.7551 63.5685C45.758 63.5427 45.758 63.5167 45.7551 63.4909C45.7551 63.4909 45.7551 63.4556 45.6991 63.4415H45.594H45.4819L45.4469 63.9141Z" fill="#2D469F"/>
<path d="M46.2524 64.9227V63.1806H46.6867C46.7659 63.1723 46.8457 63.1723 46.9249 63.1806C46.9873 63.1923 47.0468 63.2162 47.1 63.2511C47.1502 63.2862 47.1891 63.3352 47.2121 63.3922C47.2415 63.4636 47.2558 63.5405 47.2541 63.6179C47.2588 63.7121 47.242 63.8062 47.2051 63.8929C47.1899 63.9283 47.1678 63.9602 47.1401 63.9869C47.1124 64.0135 47.0798 64.0343 47.044 64.0481L47.2821 64.9015H46.9249L46.7218 64.1116H46.6027V64.9015L46.2524 64.9227ZM46.6027 63.9211H46.6937C46.7258 63.9248 46.7583 63.921 46.7887 63.91C46.819 63.899 46.8465 63.8811 46.8689 63.8577C46.9111 63.8037 46.9311 63.7356 46.9249 63.6672C46.9312 63.5999 46.9138 63.5326 46.8759 63.4768C46.8536 63.4556 46.827 63.4396 46.798 63.4299C46.769 63.4201 46.7382 63.4169 46.7077 63.4204H46.6027V63.9211Z" fill="#2D469F"/>
<path d="M47.9686 64.9438C47.8873 64.9453 47.8064 64.931 47.7305 64.9015C47.6688 64.8808 47.6149 64.8414 47.5764 64.7887C47.5338 64.7372 47.5027 64.677 47.4853 64.6123C47.4771 64.5303 47.4771 64.4476 47.4853 64.3655V63.7236C47.4774 63.6439 47.4774 63.5636 47.4853 63.4838C47.5027 63.4192 47.5338 63.359 47.5764 63.3075C47.6169 63.2568 47.6701 63.2179 47.7305 63.1947C47.8069 63.1676 47.8877 63.1557 47.9686 63.1594C48.0414 63.1519 48.1149 63.1607 48.1839 63.1851C48.2529 63.2094 48.3157 63.2489 48.3679 63.3005C48.4514 63.4252 48.4931 63.5734 48.487 63.7236V64.3655C48.4946 64.5181 48.4528 64.6691 48.3679 64.7957C48.3164 64.8486 48.2538 64.8893 48.1848 64.9149C48.1157 64.9406 48.0419 64.9504 47.9686 64.9438ZM47.9056 64.6758H47.9686H48.0387C48.0576 64.6682 48.0744 64.6561 48.0877 64.6406V64.5912C48.091 64.5701 48.091 64.5487 48.0877 64.5277V63.5685C48.091 63.5475 48.091 63.526 48.0877 63.505V63.4557H48.0387C48.0159 63.4481 47.9914 63.4481 47.9686 63.4557C47.9483 63.4481 47.9259 63.4481 47.9056 63.4557H47.8566V63.505C47.8566 63.505 47.8566 63.5473 47.8566 63.5685V64.5489C47.8566 64.5489 47.8566 64.5912 47.8566 64.6123V64.6617C47.8696 64.6689 47.8839 64.6736 47.8986 64.6758H47.9056Z" fill="#2D469F"/>
<path d="M48.7111 64.9227V63.1806H49.2995L49.4466 63.2229C49.4926 63.2409 49.5335 63.2699 49.5657 63.3075C49.5999 63.3428 49.6241 63.3866 49.6358 63.4345C49.6469 63.4927 49.6469 63.5526 49.6358 63.6108C49.6358 63.8154 49.5447 63.9353 49.3836 63.9635C49.5797 63.9635 49.6848 64.1398 49.6848 64.3866C49.6903 64.4532 49.6819 64.5203 49.6602 64.5834C49.6385 64.6466 49.6039 64.7045 49.5587 64.7534C49.5086 64.8013 49.449 64.838 49.3838 64.8611C49.3186 64.8842 49.2493 64.8932 49.1804 64.8874L48.7111 64.9227ZM49.0684 63.8788H49.1524C49.2365 63.8788 49.2995 63.8788 49.3275 63.8224C49.3662 63.7696 49.3837 63.7042 49.3766 63.639C49.3808 63.6077 49.3773 63.5759 49.3663 63.5464C49.3553 63.5168 49.3371 63.4905 49.3135 63.4697C49.2557 63.431 49.1865 63.4136 49.1174 63.4204H49.0684V63.8788ZM49.0684 64.6688H49.1594C49.1936 64.6726 49.2283 64.6689 49.2609 64.6579C49.2936 64.6469 49.3235 64.629 49.3486 64.6053C49.387 64.5471 49.4043 64.4773 49.3976 64.4078C49.4043 64.3306 49.3845 64.2534 49.3415 64.1891C49.3164 64.1654 49.2866 64.1475 49.2539 64.1365C49.2213 64.1256 49.1866 64.1219 49.1524 64.1257H49.0684V64.6688Z" fill="#2D469F"/>
<path d="M49.937 64.9227V63.1806H50.2872V64.6758H50.7005V64.9227H49.937Z" fill="#2D469F"/>
<path d="M50.8616 64.9227V63.1806H51.6111V63.4274H51.2118V63.8859H51.527V64.1327H51.2118V64.6758H51.6181V64.9227H50.8616Z" fill="#2D469F"/>
<path d="M51.7932 64.9227V63.1806H52.1645L52.3816 64.2879L52.6128 63.1806H52.97V64.9227H52.8019V63.7448L52.5777 64.9227H52.3606L52.1295 63.7378V64.9227H51.7932Z" fill="#2D469F"/>
<path d="M45.9793 67.5252C45.9127 67.529 45.846 67.519 45.7834 67.496C45.7208 67.473 45.6635 67.4373 45.615 67.3912C45.5287 67.2729 45.4843 67.1289 45.4889 66.9821L45.7901 66.9257C45.7894 67.0098 45.8036 67.0935 45.8321 67.1726C45.8434 67.1985 45.8621 67.2204 45.8858 67.2355C45.9095 67.2506 45.9372 67.2581 45.9652 67.2572C45.9817 67.2585 45.9983 67.2553 46.0131 67.2478C46.0279 67.2403 46.0404 67.229 46.0493 67.2149C46.0605 67.1805 46.0605 67.1434 46.0493 67.1091C46.0513 67.0498 46.0367 66.9912 46.0073 66.9398C45.9685 66.8814 45.9213 66.8291 45.8672 66.7847L45.678 66.6224C45.6369 66.5862 45.5994 66.5461 45.566 66.5025C45.5333 66.4623 45.5072 66.4171 45.4889 66.3685C45.4817 66.3076 45.4817 66.2461 45.4889 66.1851C45.4853 66.124 45.4947 66.0629 45.5164 66.0057C45.5382 65.9485 45.5718 65.8967 45.615 65.8537C45.7106 65.7728 45.8337 65.7324 45.9583 65.7408C46.0024 65.7339 46.0472 65.7339 46.0913 65.7408L46.1894 65.7761C46.2178 65.7936 46.2437 65.815 46.2665 65.8395C46.2896 65.8618 46.3086 65.8881 46.3225 65.9171C46.3384 65.9459 46.3501 65.9768 46.3575 66.0088C46.3634 66.0415 46.3634 66.0749 46.3575 66.1076C46.3613 66.1404 46.3613 66.1735 46.3575 66.2063L46.0563 66.2557V66.164C46.0563 66.164 46.0563 66.1146 46.0563 66.0935C46.0614 66.0726 46.0614 66.0508 46.0563 66.03L46.0213 65.9947C46.0009 65.9871 45.9786 65.9871 45.9583 65.9947C45.9409 65.9941 45.9236 65.9977 45.9078 66.005C45.892 66.0124 45.8781 66.0233 45.8672 66.037C45.857 66.0691 45.857 66.1037 45.8672 66.1358C45.8624 66.1648 45.8643 66.1945 45.8728 66.2227C45.8813 66.2508 45.8962 66.2766 45.9162 66.298L45.9583 66.3544L46.0143 66.4108L46.2034 66.566L46.3015 66.6718L46.3855 66.7847C46.4096 66.8293 46.4284 66.8767 46.4416 66.9257C46.4489 66.9772 46.4489 67.0294 46.4416 67.0809C46.4444 67.1982 46.4017 67.3121 46.3225 67.3983C46.2771 67.4422 46.2232 67.4761 46.1641 67.498C46.105 67.5198 46.0421 67.5291 45.9793 67.5252Z" fill="#2D469F"/>
<path d="M47.086 67.5252C47.0047 67.5267 46.9238 67.5123 46.8479 67.4829C46.7862 67.4622 46.7323 67.4228 46.6938 67.37C46.6526 67.3176 46.6217 67.2578 46.6027 67.1937C46.5945 67.1116 46.5945 67.0289 46.6027 66.9469V66.305C46.5948 66.2253 46.5948 66.145 46.6027 66.0652C46.6201 66.0006 46.6511 65.9404 46.6938 65.8889C46.7323 65.8362 46.7862 65.7968 46.8479 65.7761C46.9243 65.749 47.0051 65.7371 47.086 65.7408C47.1588 65.7323 47.2326 65.7406 47.3018 65.765C47.371 65.7894 47.4337 65.8294 47.4853 65.8819C47.5688 66.0066 47.6105 66.1548 47.6044 66.305V66.9469C47.612 67.0995 47.5702 67.2505 47.4853 67.3771C47.4341 67.4304 47.3716 67.4714 47.3024 67.497C47.2333 67.5227 47.1593 67.5323 47.086 67.5252ZM47.023 67.2572H47.086H47.1561H47.2051V67.2078C47.2084 67.1868 47.2084 67.1654 47.2051 67.1443V66.1852C47.2084 66.1641 47.2084 66.1427 47.2051 66.1217V66.0723L47.1561 66.037H47.023C47.023 66.037 46.988 66.037 46.9809 66.0723C46.9773 66.0886 46.9773 66.1054 46.9809 66.1217C46.9809 66.1217 46.9809 66.164 46.9809 66.1852V67.1443C46.9809 67.1443 46.9809 67.1867 46.9809 67.2078C46.9773 67.2241 46.9773 67.2409 46.9809 67.2572C46.9809 67.2572 47.002 67.2431 47.023 67.2572Z" fill="#2D469F"/>
<path d="M47.8355 67.497V65.762H48.1858V67.2572H48.599V67.497H47.8355Z" fill="#2D469F"/>
<path d="M48.9563 67.497L48.6271 65.762H48.9353L49.1384 66.9469L49.3275 65.762H49.6498L49.3135 67.497H48.9563Z" fill="#2D469F"/>
<path d="M49.8249 67.497V65.762H50.1751V67.497H49.8249Z" fill="#2D469F"/>
<path d="M50.4413 67.497V65.762H50.7005L51.0927 66.6647V65.762H51.3799V67.497H51.1488L50.7565 66.5378V67.497H50.4413Z" fill="#2D469F"/>
<path d="M52.0594 67.5252C51.9848 67.5277 51.9106 67.5133 51.8422 67.4829C51.7834 67.457 51.7326 67.4156 51.6951 67.363C51.6582 67.3047 51.6321 67.2402 51.6181 67.1726C51.6062 67.0884 51.6062 67.0029 51.6181 66.9187V66.3474C51.6141 66.2769 51.6141 66.2063 51.6181 66.1358C51.6294 66.0794 51.6482 66.0248 51.6741 65.9736C51.6926 65.9238 51.7241 65.8799 51.7652 65.8466C51.8081 65.8088 51.8581 65.78 51.9123 65.762C51.9774 65.7543 52.0433 65.7543 52.1084 65.762C52.1874 65.7504 52.2676 65.7504 52.3466 65.762C52.4055 65.7845 52.4583 65.8207 52.5007 65.8678C52.5386 65.915 52.565 65.9706 52.5777 66.03C52.5899 66.1 52.5899 66.1716 52.5777 66.2416V66.3403H52.2345V66.1428C52.2345 66.1428 52.2345 66.1005 52.2345 66.0794C52.2345 66.0582 52.2345 66.037 52.2345 66.03C52.2302 66.0216 52.2243 66.0141 52.217 66.0081C52.2098 66.002 52.2015 65.9975 52.1925 65.9947H52.1014C52.0787 65.9872 52.0541 65.9872 52.0314 65.9947C52.0224 65.9975 52.014 66.002 52.0068 66.0081C51.9996 66.0141 51.9936 66.0216 51.9893 66.03C51.9843 66.0508 51.9843 66.0726 51.9893 66.0935C51.9859 66.1145 51.9859 66.1359 51.9893 66.1569C51.9852 66.185 51.9852 66.2135 51.9893 66.2416V66.9963C51.9867 67.0616 51.9987 67.1266 52.0244 67.1867C52.0391 67.2081 52.0591 67.2253 52.0825 67.2364C52.1058 67.2475 52.1317 67.2523 52.1574 67.2502C52.1832 67.2539 52.2095 67.2491 52.2323 67.2363C52.2551 67.2236 52.2731 67.2037 52.2835 67.1796C52.3153 67.1189 52.3298 67.0506 52.3256 66.9822V66.8058H52.1014V66.5942H52.5918V67.4829H52.3606V67.3277C52.3391 67.3896 52.2979 67.4424 52.2434 67.4782C52.1889 67.5139 52.1242 67.5305 52.0594 67.5252Z" fill="#2D469F"/>
<path d="M14.4088 57.51C19.2446 57.51 23.1647 53.5628 23.1647 48.6938C23.1647 43.8247 19.2446 39.8775 14.4088 39.8775C9.57301 39.8775 5.65284 43.8247 5.65284 48.6938C5.65284 53.5628 9.57301 57.51 14.4088 57.51Z" fill="white"/>
<path d="M9.31633 49.5542V47.8403H9.65957V49.3144H10.0728V49.5542H9.31633Z" fill="#72701E"/>
<path d="M10.227 49.5542V47.8403H10.9625V48.0801H10.5702V48.5315H10.8784V48.7784H10.5702V49.3144H10.9695V49.5542H10.227Z" fill="#72701E"/>
<path d="M11.0605 49.5542L11.3897 47.8403H11.768L12.1042 49.5542H11.782L11.719 49.1734H11.4738L11.4108 49.5542H11.0605ZM11.4808 48.9547H11.6839L11.5789 48.2494L11.4808 48.9547Z" fill="#72701E"/>
<path d="M12.2723 49.5542V47.8403H12.6856C12.7739 47.828 12.8635 47.828 12.9518 47.8403C13.0151 47.8588 13.0728 47.8927 13.1199 47.9391C13.165 47.9861 13.1965 48.0446 13.211 48.1084C13.2234 48.1878 13.2234 48.2687 13.211 48.3482V49.0323C13.2234 49.1141 13.2234 49.1973 13.211 49.2791C13.1963 49.3449 13.165 49.4057 13.1199 49.4555C13.0728 49.5018 13.0151 49.5358 12.9518 49.5542C12.8676 49.5787 12.7803 49.5906 12.6926 49.5895L12.2723 49.5542ZM12.6156 49.3074H12.7487H12.7977H12.8327C12.8327 49.3074 12.8327 49.3074 12.8327 49.2721C12.8327 49.2368 12.8327 49.2721 12.8327 49.2227C12.8287 49.2041 12.8287 49.1849 12.8327 49.1663V48.327C12.8327 48.2847 12.8327 48.2494 12.8327 48.2282C12.8366 48.2049 12.8366 48.1811 12.8327 48.1577C12.8269 48.1377 12.8146 48.1203 12.7977 48.1084H12.7417H12.5805L12.6156 49.3074Z" fill="#72701E"/>
<path d="M13.4632 49.5542V47.8403H14.2057V48.0801H13.8134V48.5315H14.1216V48.7784H13.8134V49.3144H14.2127V49.5542H13.4632Z" fill="#72701E"/>
<path d="M14.3878 49.5542V47.8403H14.8151C14.8919 47.8321 14.9694 47.8321 15.0462 47.8403C15.1086 47.8521 15.1681 47.876 15.2214 47.9109C15.2696 47.948 15.3081 47.9964 15.3334 48.0519C15.3603 48.1215 15.3722 48.196 15.3684 48.2706C15.3718 48.3618 15.3575 48.4528 15.3264 48.5386C15.2933 48.6083 15.236 48.6635 15.1653 48.6937L15.3965 49.533H15.0462L14.8501 48.7572H14.731V49.533L14.3878 49.5542ZM14.731 48.5668H14.8151C14.8477 48.571 14.8808 48.5681 14.9122 48.5584C14.9436 48.5486 14.9726 48.5323 14.9972 48.5104C15.0351 48.4546 15.0525 48.3872 15.0462 48.3199C15.0519 48.2559 15.0372 48.1917 15.0042 48.1366C14.9826 48.1142 14.9563 48.0968 14.9272 48.0858C14.8982 48.0749 14.867 48.0705 14.8361 48.0731H14.731V48.5668Z" fill="#72701E"/>
<path d="M16.0409 49.5754C15.9763 49.5808 15.9113 49.5716 15.8507 49.5484C15.7901 49.5252 15.7354 49.4886 15.6907 49.4414C15.598 49.3288 15.5505 49.1854 15.5576 49.0394L15.8588 48.99C15.8546 49.0721 15.869 49.1541 15.9008 49.2298C15.9126 49.2533 15.9306 49.273 15.9529 49.2867C15.9751 49.3004 16.0008 49.3076 16.0269 49.3074C16.0437 49.3083 16.0605 49.3057 16.0762 49.2996C16.0919 49.2935 16.1061 49.2841 16.118 49.2721C16.126 49.2373 16.126 49.2011 16.118 49.1663C16.1189 49.1072 16.1044 49.0488 16.0759 48.9971C16.0352 48.9423 15.9881 48.8926 15.9358 48.8489L15.7537 48.6867L15.6416 48.5739C15.6128 48.5324 15.5892 48.4873 15.5716 48.4399C15.561 48.3792 15.561 48.3171 15.5716 48.2565C15.5685 48.1971 15.5774 48.1377 15.5979 48.0819C15.6184 48.0261 15.65 47.9751 15.6907 47.9321C15.7842 47.8523 15.9046 47.8119 16.0269 47.8192H16.16L16.2581 47.8545L16.3351 47.918C16.3561 47.9421 16.3748 47.968 16.3911 47.9955C16.3911 47.9955 16.3911 48.052 16.4262 48.0872V48.1789C16.4262 48.2142 16.4262 48.2424 16.4262 48.2776L16.125 48.327V48.2424C16.125 48.2424 16.125 48.193 16.125 48.1648V48.1084C16.125 48.1084 16.125 48.1084 16.0829 48.1084H16.0269C16.0092 48.1101 15.992 48.1153 15.9764 48.1238C15.9608 48.1323 15.947 48.1438 15.9358 48.1578C15.9246 48.1897 15.9246 48.2245 15.9358 48.2565C15.9324 48.2846 15.9324 48.313 15.9358 48.3411C15.9447 48.3659 15.9564 48.3896 15.9709 48.4117L16.0199 48.4681L16.0759 48.5245L16.2581 48.6797L16.3561 48.7784C16.3857 48.8132 16.4116 48.851 16.4332 48.8912C16.4612 48.9322 16.4824 48.9775 16.4962 49.0253C16.4997 49.0769 16.4997 49.1288 16.4962 49.1804C16.4995 49.2377 16.4906 49.2951 16.47 49.3486C16.4495 49.4021 16.4178 49.4506 16.3771 49.4908C16.3301 49.5277 16.2758 49.5544 16.2179 49.569C16.16 49.5835 16.0997 49.5857 16.0409 49.5754Z" fill="#72701E"/>
<path d="M16.6643 49.5542V47.8403H17.0146V48.5456H17.3088V47.8403H17.659V49.5542H17.3088V48.7925H17.0146V49.5542H16.6643Z" fill="#72701E"/>
<path d="M17.9182 49.5542V47.8403H18.2614V49.5542H17.9182Z" fill="#72701E"/>
<path d="M18.5206 49.5542V47.8403H19.053C19.3472 47.8403 19.4943 48.0026 19.4943 48.3341C19.5093 48.4085 19.5093 48.4853 19.4943 48.5597C19.4759 48.6174 19.442 48.6687 19.3962 48.7079C19.3519 48.742 19.3022 48.7682 19.2491 48.7854C19.184 48.7936 19.1181 48.7936 19.053 48.7854H18.8989V49.5331L18.5206 49.5542ZM18.8638 48.5597H18.9759C19.0036 48.564 19.032 48.5618 19.0587 48.5532C19.0854 48.5447 19.1098 48.53 19.13 48.5104C19.1654 48.4561 19.1826 48.3918 19.179 48.327C19.179 48.2847 19.179 48.2494 19.179 48.2212C19.183 48.1979 19.183 48.174 19.179 48.1507C19.1753 48.138 19.168 48.1266 19.1581 48.1179C19.1482 48.1091 19.136 48.1034 19.123 48.1013C19.0884 48.0934 19.0525 48.0934 19.0179 48.1013H18.9059L18.8638 48.5597Z" fill="#72701E"/>
<path d="M14.4088 40.7592C12.6162 40.7582 10.8767 41.3715 9.47626 42.4982C8.07587 43.625 7.09802 45.198 6.70356 46.9587H22.114C21.7196 45.198 20.7417 43.625 19.3413 42.4982C17.9409 41.3715 16.2014 40.7582 14.4088 40.7592ZM17.9112 46.5355H10.8574V45.5058H17.9392L17.9112 46.5355ZM19.2421 45.0615H9.51948V43.1995H19.2701L19.2421 45.0615ZM17.4419 50.5557V54.4984H16.0059V50.5557H15.5506V54.4984H14.5769V50.5557H14.1216V54.4984H13.1479V50.5557H12.6926V54.4984H11.2917V50.5557H6.73859C7.15424 52.2877 8.13629 53.8287 9.52684 54.9308C10.9174 56.0329 12.6356 56.6321 14.4053 56.6321C16.175 56.6321 17.8932 56.0329 19.2837 54.9308C20.6743 53.8287 21.6564 52.2877 22.072 50.5557H17.4419Z" fill="#72701E"/>
<path d="M26.1838 30.1162C25.6278 30.1269 25.0732 30.0556 24.5377 29.9046C24.1216 29.7895 23.7331 29.5903 23.3959 29.3192C23.0965 29.0513 22.8576 28.7218 22.6954 28.353C22.5164 27.9586 22.3938 27.5407 22.3312 27.1116C22.2563 26.6074 22.2212 26.098 22.2261 25.5882H25.063C25.0597 25.9366 25.0738 26.285 25.1051 26.632C25.1345 26.8872 25.1933 27.1381 25.2802 27.3797C25.3478 27.5824 25.4842 27.7547 25.6654 27.8663C25.8553 27.9665 26.0677 28.0151 26.2819 28.0074H26.3309C26.4591 28.0024 26.5862 27.981 26.7092 27.9439C26.8209 27.9085 26.9221 27.8454 27.0034 27.7605C27.0776 27.6764 27.1455 27.5868 27.2065 27.4925C27.2767 27.3756 27.3243 27.2464 27.3466 27.1116C27.3816 26.9494 27.4096 26.8013 27.4307 26.6744C27.4562 26.4921 27.4702 26.3083 27.4727 26.1242C27.4727 25.8915 27.4727 25.694 27.4727 25.5318C27.4727 25.3695 27.4727 25.1368 27.4727 24.8265C27.4727 24.5161 27.4727 24.3045 27.4727 24.1212C27.4727 23.9378 27.4727 23.705 27.4096 23.4864C27.3928 23.2996 27.3479 23.1165 27.2765 22.9433C27.2214 22.8035 27.1459 22.6728 27.0524 22.5554C26.9604 22.4373 26.8398 22.345 26.7022 22.2874C26.5355 22.2309 26.3586 22.2117 26.1838 22.231C25.4833 22.231 25.063 22.6683 24.8739 23.5358H22.3662L22.5623 15.2062H29.6161V17.6465H24.993L24.8319 20.8556C25.047 20.6393 25.3116 20.4794 25.6024 20.3901C25.9759 20.2522 26.3679 20.1714 26.7652 20.1504H27.0734C27.519 20.1275 27.9632 20.216 28.3665 20.408C28.7698 20.6 29.1197 20.8894 29.385 21.2506C30.0431 22.3021 30.3522 23.5371 30.2676 24.7771C30.2676 25.3343 30.2676 25.828 30.2045 26.2653C30.1582 26.7005 30.0809 27.1319 29.9734 27.556C29.8081 28.3164 29.3845 28.9948 28.7756 29.4744C28.4493 29.7285 28.0751 29.9133 27.6758 30.0175C27.1849 30.1159 26.6833 30.1491 26.1838 30.1162Z" fill="white" stroke="#5F3D3D" stroke-width="0.3" stroke-miterlimit="10"/>
<path d="M32.0748 29.8764V15.178H36.8451C39.4929 15.178 40.8168 16.5886 40.8168 19.4098C40.8327 20.0751 40.7258 20.7375 40.5015 21.3635C40.323 21.8628 40.0101 22.3023 39.5979 22.633C39.2021 22.9387 38.7496 23.1617 38.267 23.2889C37.7082 23.4293 37.1337 23.4956 36.5579 23.4864H35.1569V29.8905L32.0748 29.8764ZM35.1779 21.4128H36.1726C36.4248 21.4474 36.6814 21.4247 36.9238 21.3467C37.1661 21.2686 37.3881 21.137 37.5736 20.9614C37.8504 20.4868 37.9729 19.9369 37.9238 19.3886C37.9282 19.0844 37.9095 18.7802 37.8677 18.4788C37.8347 18.2578 37.7611 18.0449 37.6506 17.8511C37.5356 17.6477 37.3476 17.4963 37.1252 17.4279C36.8238 17.3338 36.509 17.2909 36.1936 17.301H35.1989L35.1779 21.4128Z" fill="white" stroke="#5F3D3D" stroke-width="0.3" stroke-miterlimit="10"/>
<path d="M46.5887 30.0739C45.8726 30.0877 45.1602 29.9681 44.4872 29.7212C43.9348 29.5183 43.4496 29.1641 43.0863 28.6986C42.7539 28.2353 42.5158 27.7103 42.3858 27.154C42.2276 26.4913 42.1523 25.8113 42.1617 25.1298V19.9458C42.1517 19.2457 42.227 18.5469 42.3858 17.8652C42.5115 17.3095 42.75 16.7861 43.0863 16.3276C43.4497 15.8654 43.9353 15.5158 44.4872 15.3191C45.8566 14.8952 47.3208 14.8952 48.6901 15.3191C49.2025 15.4833 49.6604 15.7858 50.014 16.1936C50.3379 16.5808 50.5766 17.0327 50.7145 17.5196C50.8661 18.0899 50.9392 18.6784 50.9316 19.2687V20.5453H47.9056V18.8173C47.9056 18.7539 47.9056 18.6481 47.9056 18.5C47.9166 18.3945 47.9166 18.2881 47.9056 18.1826L47.8425 17.9146C47.8253 17.8214 47.7895 17.7326 47.7374 17.6536L47.5903 17.4632C47.5332 17.3893 47.4586 17.3311 47.3732 17.2939C47.2772 17.2587 47.1789 17.2304 47.079 17.2093C46.9574 17.1801 46.8327 17.1658 46.7077 17.1669C46.4961 17.1616 46.2858 17.2025 46.0913 17.2868C45.9396 17.3537 45.8053 17.4551 45.6991 17.5831C45.5965 17.729 45.5249 17.8947 45.4889 18.0697C45.4437 18.2551 45.4133 18.4437 45.3979 18.634C45.3979 18.8103 45.3979 19.0289 45.3979 19.2969V25.8703C45.363 26.412 45.4592 26.9541 45.678 27.4502C45.7869 27.6248 45.9428 27.7646 46.1277 27.8532C46.3125 27.9419 46.5185 27.9758 46.7218 27.9509C46.8949 27.9553 47.0675 27.9314 47.2331 27.8804C47.3733 27.842 47.4981 27.7607 47.5903 27.6477C47.6684 27.5475 47.7386 27.4414 47.8005 27.3303C47.8617 27.1893 47.8995 27.0392 47.9126 26.886C47.921 26.7286 47.921 26.5708 47.9126 26.4134C47.9126 26.2794 47.9126 26.1031 47.9126 25.8703V24.4597H50.9386V25.701C50.9481 26.305 50.8774 26.9074 50.7285 27.4925C50.5915 28.0053 50.3533 28.4851 50.028 28.9031C49.6836 29.3354 49.2245 29.6606 48.7041 29.8411C48.019 30.048 47.302 30.1269 46.5887 30.0739Z" fill="white" stroke="#5F3D3D" stroke-width="0.3" stroke-miterlimit="10"/>
<path d="M5.97506 36.8236V32.6765H7.84534V33.2548H6.87167V34.3762H7.67722V34.9687H6.87167V36.8236H5.97506Z" fill="white" stroke="#5F3D3D" stroke-width="0.1" stroke-miterlimit="10"/>
<path d="M8.29364 36.8236V32.6765H9.19025V36.8236H8.29364Z" fill="white" stroke="#5F3D3D" stroke-width="0.1" stroke-miterlimit="10"/>
<path d="M10.4931 36.8236L9.64555 32.6765H10.4231L10.9484 35.4976L11.4388 32.6765H12.2513L11.4037 36.8236H10.4931Z" fill="white" stroke="#5F3D3D" stroke-width="0.1" stroke-miterlimit="10"/>
<path d="M12.6926 36.8236V32.6765H14.6189V33.2619H13.5752V34.3621H14.3738V34.9264H13.5752V36.2241H14.6119V36.7954L12.6926 36.8236Z" fill="white" stroke="#5F3D3D" stroke-width="0.1" stroke-miterlimit="10"/>
<path d="M16.4472 36.8236V32.6764H17.8481C18.0067 32.6573 18.1674 32.6752 18.3179 32.7289C18.4684 32.7826 18.6046 32.8705 18.7158 32.9859C18.827 33.1013 18.9102 33.2409 18.959 33.394C19.0077 33.5471 19.0207 33.7094 18.9969 33.8684C19.0032 34.0561 18.9723 34.2431 18.9059 34.4185C18.8538 34.56 18.7641 34.6844 18.6467 34.7782C18.5316 34.8644 18.4006 34.9267 18.2614 34.9616C18.0991 35.0036 17.9317 35.0226 17.7641 35.018H17.3648V36.8236H16.4472ZM17.3438 34.4326H17.631C17.7027 34.443 17.7759 34.4369 17.845 34.415C17.9141 34.393 17.9774 34.3556 18.0303 34.3057C18.1133 34.1734 18.1502 34.0171 18.1353 33.8613C18.1402 33.7744 18.1402 33.6873 18.1353 33.6004C18.1212 33.5383 18.0976 33.4788 18.0653 33.4241C18.0315 33.3681 17.9795 33.3257 17.9182 33.3042C17.8276 33.291 17.7356 33.291 17.645 33.3042H17.3578L17.3438 34.4326Z" fill="white" stroke="#5F3D3D" stroke-width="0.1" stroke-miterlimit="10"/>
<path d="M19.4382 36.8236V32.6765H20.3278V36.8236H19.4382Z" fill="white" stroke="#5F3D3D" stroke-width="0.1" stroke-miterlimit="10"/>
<path d="M20.9933 36.8236V32.6765H21.8899V36.2523H22.9196V36.8236H20.9933Z" fill="white" stroke="#5F3D3D" stroke-width="0.1" stroke-miterlimit="10"/>
<path d="M23.3819 36.8236V32.6765H24.2785V36.2523H25.3082V36.8236H23.3819Z" fill="white" stroke="#5F3D3D" stroke-width="0.1" stroke-miterlimit="10"/>
<path d="M25.4833 36.8236L26.3449 32.6765H27.3256L28.1872 36.8236H27.3536L27.1925 35.9067H26.492L26.3309 36.8236H25.4833ZM26.5761 35.413H27.1014L26.8352 33.7626L26.5761 35.413Z" fill="white" stroke="#5F3D3D" stroke-width="0.1" stroke-miterlimit="10"/>
<path d="M28.6215 36.8236V32.6765H29.7352C29.9397 32.6744 30.1439 32.6933 30.3446 32.7329C30.503 32.7614 30.655 32.8188 30.7929 32.9022C30.9205 32.9862 31.0205 33.1065 31.0801 33.2477C31.1527 33.4142 31.1862 33.5952 31.1782 33.7767C31.1861 33.9992 31.1454 34.2207 31.0591 34.4256C30.9712 34.5994 30.8209 34.733 30.6388 34.7994L31.2482 36.8236H30.3376L29.8333 34.9546H29.5181V36.8236H28.6215ZM29.5181 34.4468H29.7422C29.8253 34.4553 29.9091 34.4465 29.9886 34.421C30.0682 34.3955 30.1417 34.3539 30.2045 34.2986C30.3065 34.1691 30.3542 34.0046 30.3376 33.8402C30.3538 33.6824 30.3114 33.5241 30.2185 33.3959C30.1627 33.3411 30.0952 33.2999 30.0211 33.2755C29.9471 33.2511 29.8684 33.244 29.7913 33.2548H29.5181V34.4468Z" fill="white" stroke="#5F3D3D" stroke-width="0.1" stroke-miterlimit="10"/>
<path d="M32.9224 36.88C32.7559 36.8941 32.5884 36.8731 32.4304 36.8185C32.2725 36.7638 32.1275 36.6767 32.0048 36.5627C31.7789 36.2901 31.6594 35.9441 31.6685 35.5893L32.4461 35.4553C32.4393 35.6565 32.4776 35.8565 32.5581 36.0407C32.5861 36.1023 32.6317 36.154 32.6891 36.1893C32.7466 36.2245 32.8132 36.2415 32.8804 36.2382C32.9233 36.2424 32.9667 36.2363 33.0069 36.2204C33.0471 36.2044 33.0829 36.1791 33.1115 36.1465C33.1585 36.073 33.1828 35.9871 33.1816 35.8997C33.1868 35.755 33.1477 35.6121 33.0695 35.4906C32.9669 35.3487 32.8442 35.2228 32.7052 35.1168L32.2289 34.7289C32.1252 34.646 32.0291 34.554 31.9417 34.4538C31.8596 34.3582 31.7955 34.2482 31.7526 34.1294C31.7009 33.987 31.6748 33.8366 31.6755 33.685C31.6673 33.5392 31.6913 33.3933 31.7458 33.2579C31.8003 33.1226 31.884 33.001 31.9907 32.9022C32.2395 32.7061 32.5509 32.6082 32.8663 32.6271C32.9781 32.616 33.0908 32.616 33.2026 32.6271C33.2946 32.6469 33.384 32.6777 33.4687 32.7188C33.5415 32.7602 33.6077 32.8125 33.6649 32.8739C33.7196 32.9284 33.7668 32.9901 33.805 33.0573C33.842 33.1272 33.8725 33.2004 33.896 33.276C33.9191 33.352 33.9355 33.4298 33.9451 33.5087C33.9493 33.5862 33.9493 33.6639 33.9451 33.7415L33.1675 33.8543C33.172 33.7838 33.172 33.7132 33.1675 33.6427C33.1738 33.5841 33.1738 33.525 33.1675 33.4664C33.1556 33.4169 33.1367 33.3694 33.1115 33.3253C33.0831 33.2897 33.0472 33.2608 33.0064 33.2407C32.9581 33.2293 32.9077 33.2293 32.8593 33.2407C32.8148 33.2401 32.7707 33.2501 32.7305 33.2696C32.6904 33.2892 32.6554 33.318 32.6282 33.3535C32.5709 33.4198 32.5409 33.5056 32.5441 33.5933C32.5329 33.6611 32.5329 33.7302 32.5441 33.7979C32.5646 33.8591 32.5954 33.9164 32.6352 33.9672C32.6697 34.0162 32.7096 34.0612 32.7543 34.1012L32.9014 34.2352L33.3707 34.616C33.4687 34.7007 33.5528 34.7853 33.6299 34.8629C33.7047 34.9465 33.7727 35.0361 33.833 35.1309C33.9024 35.2294 33.9545 35.3391 33.9871 35.4553C34.0213 35.5817 34.0378 35.7123 34.0361 35.8432C34.0405 35.9817 34.0152 36.1195 33.962 36.2473C33.9089 36.3751 33.829 36.4898 33.7279 36.5838C33.5075 36.7835 33.2188 36.8897 32.9224 36.88Z" fill="white" stroke="#5F3D3D" stroke-width="0.1" stroke-miterlimit="10"/>
<path d="M37.1252 36.88C36.9183 36.8861 36.712 36.8551 36.5158 36.7883C36.359 36.7374 36.2186 36.6448 36.1096 36.5203C36.0099 36.3926 35.9361 36.2464 35.8924 36.0901C35.8472 35.9008 35.826 35.7064 35.8294 35.5117V33.9812C35.8264 33.7866 35.8476 33.5923 35.8924 33.4029C35.9346 33.2502 36.0086 33.1084 36.1096 32.9868C36.2186 32.8623 36.359 32.7697 36.5158 32.7188C36.712 32.652 36.9183 32.621 37.1252 32.6271C37.3082 32.6085 37.4929 32.6297 37.6669 32.6893C37.841 32.749 38.0002 32.8456 38.1339 32.9727C38.3555 33.2594 38.4629 33.619 38.4351 33.9812V35.5117C38.4624 35.8783 38.3552 36.2421 38.1339 36.5344C38.0002 36.6615 37.841 36.7581 37.6669 36.8177C37.4929 36.8774 37.3082 36.8986 37.1252 36.88ZM36.9571 36.2452C37.0125 36.2573 37.0698 36.2573 37.1252 36.2452C37.183 36.2572 37.2426 36.2572 37.3004 36.2452C37.3453 36.229 37.3844 36.1995 37.4124 36.1606C37.4454 36.1272 37.4695 36.0859 37.4825 36.0407C37.4877 35.9915 37.4877 35.9418 37.4825 35.8926C37.4864 35.8339 37.4864 35.775 37.4825 35.7163V33.7767C37.4863 33.7203 37.4863 33.6638 37.4825 33.6074C37.4891 33.5583 37.4891 33.5085 37.4825 33.4593C37.4695 33.4141 37.4454 33.3729 37.4124 33.3394C37.3837 33.3028 37.3446 33.2758 37.3004 33.2618C37.2426 33.2499 37.183 33.2499 37.1252 33.2618C37.0698 33.2498 37.0125 33.2498 36.9571 33.2618C36.9129 33.2758 36.8738 33.3028 36.8451 33.3394C36.8144 33.3735 36.7928 33.4147 36.782 33.4593C36.7754 33.5085 36.7754 33.5583 36.782 33.6074C36.7782 33.6638 36.7782 33.7203 36.782 33.7767V35.7163C36.7781 35.775 36.7781 35.8339 36.782 35.8926C36.7769 35.9418 36.7769 35.9915 36.782 36.0407C36.7928 36.0854 36.8144 36.1266 36.8451 36.1606C36.8731 36.1995 36.9122 36.229 36.9571 36.2452Z" fill="white" stroke="#5F3D3D" stroke-width="0.1" stroke-miterlimit="10"/>
<path d="M39.0235 36.8236V32.6765H40.8938V33.2548H39.9201V34.3762H40.7257V34.9687H39.9201V36.8236H39.0235Z" fill="white" stroke="#5F3D3D" stroke-width="0.1" stroke-miterlimit="10"/>
<path d="M43.9269 36.88C43.7147 36.8874 43.5031 36.8539 43.3034 36.7813C43.146 36.7246 43.0076 36.6244 42.9042 36.4921C42.8054 36.3648 42.7339 36.2184 42.694 36.0619C42.65 35.8747 42.6288 35.6829 42.631 35.4906V34.0236C42.628 33.8266 42.6492 33.63 42.694 33.4382C42.7337 33.2795 42.8052 33.1307 42.9042 33.0009C43.0102 32.8731 43.148 32.7757 43.3034 32.7188C43.5043 32.6515 43.7153 32.6205 43.9269 32.6271C44.1262 32.6234 44.3249 32.652 44.5153 32.7117C44.662 32.7564 44.7931 32.842 44.8935 32.9586C44.9892 33.0655 45.0588 33.1935 45.0967 33.3324C45.1414 33.493 45.1627 33.6593 45.1597 33.8261V34.2211H44.2841V33.6427C44.2892 33.6124 44.2892 33.5814 44.2841 33.551C44.2861 33.5276 44.2861 33.504 44.2841 33.4805C44.2874 33.4547 44.2874 33.4287 44.2841 33.4029L44.2351 33.3465C44.22 33.325 44.1975 33.3099 44.172 33.3042H44.088H43.9829C43.9225 33.3002 43.862 33.3123 43.8078 33.3394C43.7648 33.3559 43.7264 33.3825 43.6957 33.417C43.6652 33.4591 43.6437 33.5071 43.6327 33.5581C43.6299 33.6098 43.6299 33.6616 43.6327 33.7132C43.6286 33.7766 43.6286 33.8403 43.6327 33.9037V35.7586C43.6234 35.9115 43.6523 36.0642 43.7167 36.2029C43.7495 36.2518 43.7948 36.2907 43.8479 36.3156C43.901 36.3404 43.9597 36.3502 44.0179 36.344C44.0666 36.3519 44.1163 36.3519 44.165 36.344C44.2045 36.3314 44.2405 36.3096 44.2701 36.2805L44.3331 36.1888C44.3387 36.1491 44.3387 36.1087 44.3331 36.0689C44.3359 36.022 44.3359 35.9748 44.3331 35.9279V35.3707H45.2087V35.7233C45.2099 35.8919 45.1911 36.06 45.1527 36.2241C45.1131 36.3672 45.0465 36.5013 44.9566 36.6191C44.8558 36.7416 44.722 36.8323 44.5713 36.88C44.3585 36.9217 44.1397 36.9217 43.9269 36.88Z" fill="white" stroke="#5F3D3D" stroke-width="0.1" stroke-miterlimit="10"/>
<path d="M46.9319 36.88C46.725 36.8861 46.5186 36.8551 46.3225 36.7883C46.1656 36.7374 46.0253 36.6448 45.9162 36.5203C45.8166 36.3926 45.7428 36.2464 45.6991 36.0901C45.6538 35.9008 45.6326 35.7064 45.636 35.5117V33.9812C45.6331 33.7866 45.6543 33.5923 45.6991 33.4029C45.7412 33.2502 45.8153 33.1084 45.9162 32.9868C46.0253 32.8623 46.1656 32.7697 46.3225 32.7188C46.5186 32.652 46.725 32.621 46.9319 32.6271C47.1148 32.6085 47.2996 32.6297 47.4736 32.6893C47.6476 32.749 47.8069 32.8456 47.9406 32.9727C48.1621 33.2594 48.2695 33.619 48.2418 33.9812V35.5117C48.269 35.8783 48.1619 36.2421 47.9406 36.5344C47.8069 36.6615 47.6476 36.7581 47.4736 36.8177C47.2996 36.8774 47.1148 36.8986 46.9319 36.88ZM46.7638 36.2452C46.8193 36.2565 46.8764 36.2565 46.9319 36.2452C46.9897 36.2572 47.0493 36.2572 47.107 36.2452C47.153 36.2273 47.1939 36.1982 47.2261 36.1606C47.2541 36.1248 47.2754 36.0842 47.2892 36.0407C47.2943 35.9915 47.2943 35.9418 47.2892 35.8926C47.2931 35.8339 47.2931 35.775 47.2892 35.7163V33.7767C47.293 33.7203 47.293 33.6638 47.2892 33.6074C47.2958 33.5583 47.2958 33.5085 47.2892 33.4593C47.2754 33.4159 47.2541 33.3753 47.2261 33.3394C47.1933 33.3042 47.1524 33.2775 47.107 33.2618C47.0493 33.2499 46.9897 33.2499 46.9319 33.2618C46.8764 33.2506 46.8193 33.2506 46.7638 33.2618C46.7204 33.2775 46.6818 33.3042 46.6517 33.3394C46.6211 33.3735 46.5994 33.4147 46.5887 33.4593C46.5821 33.5085 46.5821 33.5583 46.5887 33.6074C46.5849 33.6638 46.5849 33.7203 46.5887 33.7767V35.7163C46.5847 35.775 46.5847 35.8339 46.5887 35.8926C46.5835 35.9418 46.5835 35.9915 46.5887 36.0407C46.5994 36.0854 46.6211 36.1266 46.6517 36.1606C46.6814 36.1979 46.7199 36.227 46.7638 36.2452Z" fill="white" stroke="#5F3D3D" stroke-width="0.1" stroke-miterlimit="10"/>
<path d="M48.8302 36.8236V32.6765H49.4536L50.4413 34.8347V32.6765H51.1838V36.8236H50.5884L49.5937 34.5384V36.8236H48.8302Z" fill="white" stroke="#5F3D3D" stroke-width="0.1" stroke-miterlimit="10"/>
<path d="M51.8423 36.8236V32.6765H53.7055V33.2548H52.7389V34.3762H53.5444V34.9687H52.7389V36.8236H51.8423Z" fill="white" stroke="#5F3D3D" stroke-width="0.1" stroke-miterlimit="10"/>
<path d="M54.1608 36.8236V32.6765H55.0504V36.8236H54.1608Z" fill="white" stroke="#5F3D3D" stroke-width="0.1" stroke-miterlimit="10"/>
<path d="M55.7159 36.8236V32.6764H56.7876C57.0235 32.6715 57.2589 32.6976 57.4881 32.754C57.6547 32.7921 57.8089 32.8722 57.9364 32.9868C58.045 33.0997 58.1244 33.2377 58.1676 33.3888C58.2192 33.5818 58.2428 33.7814 58.2376 33.9812V35.4765C58.2435 35.681 58.2199 35.8853 58.1676 36.083C58.1254 36.2491 58.0371 36.3996 57.913 36.517C57.789 36.6344 57.6343 36.7139 57.4671 36.746C57.2388 36.8071 57.0026 36.8333 56.7666 36.8236H55.7159ZM56.6125 36.2382H56.9627H57.0888C57.121 36.2226 57.1515 36.2037 57.1799 36.1818C57.2077 36.1655 57.2297 36.1408 57.2429 36.1112L57.2849 36.0125C57.2849 36.0125 57.2849 35.942 57.2849 35.8926C57.2849 35.8432 57.2849 35.7938 57.2849 35.7586V33.9319C57.289 33.852 57.289 33.7719 57.2849 33.6921C57.2767 33.635 57.265 33.5784 57.2499 33.5228C57.232 33.4747 57.2003 33.4329 57.1589 33.4029C57.1133 33.3696 57.0604 33.3478 57.0048 33.3394C56.9256 33.3308 56.8458 33.3308 56.7666 33.3394H56.5915L56.6125 36.2382Z" fill="white" stroke="#5F3D3D" stroke-width="0.1" stroke-miterlimit="10"/>
<path d="M58.819 36.8236V32.6765H60.7383V33.2619H59.7156V34.3621H60.5071V34.9264H59.7086V36.2241H60.7453V36.7954L58.819 36.8236Z" fill="white" stroke="#5F3D3D" stroke-width="0.1" stroke-miterlimit="10"/>
<path d="M61.2076 36.8236V32.6765H61.831L62.8187 34.8347V32.6765H63.5612V36.8236H62.9658L61.9781 34.5384V36.8236H61.2076Z" fill="white" stroke="#5F3D3D" stroke-width="0.1" stroke-miterlimit="10"/>
<path d="M65.4105 36.88C65.2006 36.8881 64.9911 36.8545 64.794 36.7813C64.6337 36.7265 64.4926 36.626 64.3878 36.4921C64.289 36.3648 64.2174 36.2184 64.1776 36.0619C64.1336 35.8747 64.1124 35.6829 64.1146 35.4906V34.0236C64.1116 33.8266 64.1328 33.63 64.1776 33.4382C64.2173 33.2795 64.2888 33.1307 64.3878 33.0009C64.4951 32.8713 64.6356 32.7737 64.794 32.7188C64.9925 32.6515 65.2012 32.6204 65.4105 32.6271C65.6099 32.6223 65.8087 32.6509 65.9989 32.7117C66.1469 32.7579 66.2799 32.8432 66.3841 32.9586C66.4752 33.0677 66.5421 33.1951 66.5803 33.3324C66.625 33.493 66.6463 33.6593 66.6433 33.8261V34.2211H65.7677V33.6427C65.7677 33.6004 65.7677 33.5722 65.7677 33.551C65.7658 33.5275 65.7658 33.504 65.7677 33.4805C65.7739 33.455 65.7739 33.4284 65.7677 33.4029C65.7505 33.3868 65.7362 33.3677 65.7257 33.3465C65.7081 33.3277 65.6866 33.3133 65.6626 33.3042H65.5786H65.4105C65.35 33.3002 65.2896 33.3123 65.2353 33.3394C65.1933 33.3577 65.1552 33.384 65.1233 33.417C65.0927 33.4591 65.0712 33.5071 65.0602 33.5581C65.0575 33.6098 65.0575 33.6616 65.0602 33.7132V35.7586C65.0494 35.9108 65.0758 36.0634 65.1373 36.2029C65.17 36.2518 65.2154 36.2907 65.2684 36.3156C65.3215 36.3404 65.3803 36.3502 65.4385 36.344C65.4872 36.3519 65.5369 36.3519 65.5856 36.344C65.6258 36.3331 65.6622 36.3111 65.6907 36.2805C65.7147 36.2522 65.7359 36.2215 65.7537 36.1888C65.7593 36.1491 65.7593 36.1087 65.7537 36.0689C65.7565 36.022 65.7565 35.9749 65.7537 35.9279V35.3707H66.6293V35.7233C66.6343 35.8921 66.6155 36.0607 66.5733 36.2241C66.5337 36.3672 66.4671 36.5013 66.3771 36.6191C66.2764 36.7416 66.1426 36.8323 65.9919 36.88C65.7996 36.9145 65.6028 36.9145 65.4105 36.88Z" fill="white" stroke="#5F3D3D" stroke-width="0.1" stroke-miterlimit="10"/>
<path d="M67.2177 36.8236V32.6765H69.137V33.2619H68.1073V34.3621H68.9129V34.9264H68.1143V36.2241H69.151V36.7954L67.2177 36.8236Z" fill="white" stroke="#5F3D3D" stroke-width="0.1" stroke-miterlimit="10"/>
<path d="M51.6881 29.4109H51.2959V29.3756H51.3519H51.422V28.5505H51.2118L51.1348 28.7479H51.0997C51.0997 28.7479 51.0997 28.7127 51.0997 28.6844C51.1032 28.6611 51.1032 28.6373 51.0997 28.6139V28.4799H51.9053V28.6844C51.9087 28.7055 51.9087 28.7269 51.9053 28.7479H51.8703L51.8002 28.5505H51.5831V29.3756H51.6531H51.7162L51.6881 29.4109Z" fill="white"/>
<path d="M53.0821 29.4109H52.7459V29.3757H52.7949H52.8579V28.5787L52.8089 28.7268L52.5217 29.4321L52.2485 28.7268L52.1995 28.5646V29.3615H52.2485H52.3046V29.3968H52.0104V29.3615H52.0664H52.1224V28.5363H52.0664H52.0104V28.494H52.2976L52.5357 29.1288L52.5848 29.2699L52.6338 29.1217L52.886 28.494H53.1381V28.5363H53.0821H53.0331V29.3615H53.0821H53.1311L53.0821 29.4109Z" fill="white"/>
</svg>
