<svg width="336" height="478" viewBox="0 0 336 478" fill="none" xmlns="http://www.w3.org/2000/svg">
<path d="M791.195 126.427C791.292 128.288 792.198 129.842 791.195 131.124C790.297 132.264 787.324 133.137 785.208 134.065C783.528 134.802 781.765 135.447 780.03 136.12C778.67 136.646 777.296 137.148 776.135 138.058C784.694 136.714 792.357 133.044 801.758 130.862C800.448 130.245 799.91 129.936 799.275 129.707C798.746 129.517 798.102 129.422 797.052 129.179C803.139 125.84 811.781 124.772 814.092 119.035C806.911 122.681 799.187 125.011 791.195 126.427ZM767.903 137.68C771.705 136.586 774.799 135.699 777.891 134.813C771.005 133.351 771.005 133.351 767.903 137.68ZM766.104 149.621C766.272 150.02 766.441 150.423 766.608 150.822C768.5 150.144 770.393 149.463 772.285 148.784C772.176 148.559 772.067 148.333 771.957 148.106C770.007 148.611 768.057 149.116 766.104 149.621ZM763.943 157.216C767.686 157.038 771.146 156.872 774.606 156.706C770.398 159.997 781.661 157.691 776.774 160.951C782.053 162.296 787.15 160.726 792.26 158.972C797.018 157.341 802.219 156.013 804.002 151.414C802.249 150.37 800.135 149.111 797.409 147.484C795.795 149.378 794.912 150.414 793.923 151.572C791.253 152.117 788.478 152.681 785.154 153.357C785.331 152.525 785.25 151.936 785.611 151.384C787.206 148.941 785.117 148.23 782.112 149.019C775.565 150.742 768.231 151.902 763.943 157.216ZM759.458 169.296C761.365 168.978 762.98 168.707 764.589 168.436C767.84 172.844 768.351 172.874 777.031 169.194C775.14 161.974 773.79 161.596 761.833 165.21C761.036 166.583 760.379 167.708 759.458 169.296ZM734.427 80.0529C733.571 81.4795 732.69 82.3903 732.711 83.1358C732.723 83.554 734.23 83.7006 735.06 83.9709C735.792 83.1791 736.962 82.3424 737.099 81.6121C737.189 81.1311 735.799 80.8019 734.427 80.0529ZM794.125 164.138C790.285 161.756 789.426 161.734 784.003 163.901C787.154 166.659 787.154 166.659 794.125 164.138ZM811.438 141.35C812.964 141.472 814.645 141.359 816.134 141.524C818.965 141.835 821.569 142.62 824.529 142.552C827.497 142.482 830.966 141.22 833.868 141.228C835.756 141.237 836.87 142.718 838.624 143.285C839.789 143.663 841.414 143.635 842.86 143.767C843.105 141.97 843.353 140.155 843.671 137.818C839.592 138.538 835.983 139.175 832.153 139.853C831.3 138.252 830.423 136.612 829.373 134.643C830.109 134.078 831.342 133.139 832.493 132.26C832.091 131.866 831.961 131.56 831.616 131.43C826.683 129.536 820.453 130.792 814.458 132.083C812.077 132.594 810.885 132.662 809.075 132.005C806.766 131.167 804.009 131.268 802.911 134.232C802.445 135.49 800.258 136.808 797.885 138.99C802.486 137.799 805.926 136.909 809.367 136.019C809.568 136.385 809.775 136.752 809.979 137.121C807.317 138.26 804.655 139.403 802.123 140.487C805.169 140.774 808.28 141.098 811.438 141.35ZM806.818 143.218C806.03 144.229 805.242 145.241 803.917 146.941C807.835 145.803 809.387 144.958 806.818 143.218ZM817.304 147.536C814.087 148.499 811.605 149.24 808.428 150.189C813.748 151.906 813.983 151.836 817.304 147.536ZM830.403 151.078C829.288 147.587 824.89 149.493 821.768 149.48C821.703 149.756 820.496 154.839 820.313 155.608C824.064 153.922 827.189 152.522 830.403 151.078ZM822.428 124.767C821.837 124.91 821.441 126.076 820.959 126.776C822.308 126.851 823.669 127.167 825.004 126.913C825.816 126.758 826.581 125.727 828.272 124.357C825.546 124.506 823.942 124.408 822.428 124.767ZM753.349 185.695C750.299 187.379 748.649 188.291 745.828 189.848C749.118 190.087 751.302 190.244 754.587 190.482C754.137 188.744 753.844 187.609 753.349 185.695ZM725.823 101.914C725.101 102.179 724.377 102.442 723.654 102.708C723.373 103.89 723.088 105.071 722.715 106.629C725.107 106.01 726.769 105.58 729.515 104.87C727.992 103.652 726.908 102.784 725.823 101.914ZM729.416 183.767C734.445 185.341 735.876 182.754 737.882 181.183C734.029 180.394 732.419 182.304 729.416 183.767ZM668.143 111.251C676.497 110.389 681.772 105.638 688.509 105.143C681.693 105.257 675.557 107.473 668.143 111.251ZM677.839 115.005C676.846 115.063 675.852 115.124 674.86 115.181C674.832 115.442 674.804 115.705 674.776 115.966C675.736 115.861 676.696 115.755 677.655 115.651C677.717 115.436 677.778 115.22 677.839 115.005ZM710.07 276.62C709.633 278.288 709.195 279.969 708.584 282.292C715.195 280.049 721.034 278.068 726.874 276.086C726.756 275.562 726.638 275.039 726.52 274.516C722.984 275.157 719.45 275.803 715.4 276.537C717.945 275.611 720.084 274.833 722.223 274.054C722.14 273.884 722.055 273.713 721.971 273.541C718.144 274.532 714.314 275.522 710.07 276.62ZM640.425 115.191C643.287 116.524 646.056 115.456 648.789 113.589C646.001 114.12 643.212 114.655 640.425 115.191ZM627.604 113.188C625.823 113.711 623.625 114.36 620.144 115.386C623.008 116.056 625.172 116.241 626.522 116.966C627.931 117.721 628.085 119.637 631.924 117.162C630.458 115.811 629.166 114.624 627.604 113.188ZM546.358 327.418C530.979 331.703 515.623 336.063 500.192 340.155C495.357 341.435 490.312 341.955 484.533 342.97C487.946 339.955 495.094 341.262 496.63 337.007C489.914 337.32 483.252 339.323 476.594 340.891C465.04 343.611 453.495 346.364 441.943 349.099C440.886 349.349 439.815 349.537 438.768 349.815C421.259 354.513 404.083 359.776 387.29 366.238C380.727 368.763 373.836 371.525 365.955 372.363C357.572 373.252 349.557 376.749 341.963 380.572C349.87 383.305 357.974 381.869 366.45 377.676C366.441 377.711 366.432 377.749 366.424 377.786C371.985 375.325 377.557 372.862 383.631 370.175C384.161 371.219 384.588 372.055 385.205 373.266C388.77 371.905 391.949 370.665 395.158 369.466C405.675 365.544 416.093 361.437 426.758 357.789C435.671 354.739 444.886 352.279 454.276 351.005C454.54 350.969 454.874 350.852 455.06 350.893C463.333 352.755 472.536 348.876 481.268 347.869C489.94 346.87 498.65 345.687 507.357 344.375C510.462 343.907 513.595 342.734 516.739 342.055C518.714 341.626 520.805 341.338 522.721 341.297C527.715 341.189 530.171 340.151 535.325 336.544C537.387 335.102 540.381 334.031 543.096 333.008C546.853 331.594 550.823 330.498 554.558 329.052C557.66 327.85 561.46 326.863 562.384 323.804C556.805 324.001 551.611 325.953 546.358 327.418ZM401.026 348.803C408.549 349.048 419.451 345.935 429.9 340.708C419.125 340.957 410.41 344.662 401.026 348.803ZM388.718 357.354C396.127 358.154 400.794 356.396 401.431 352.245C397.662 354.948 391.692 353.71 388.718 357.354ZM381.504 358.754C380.506 359.27 379.505 359.782 378.507 360.296C378.743 360.477 379.101 360.844 379.197 360.808C380.263 360.403 381.286 359.942 382.323 359.494C382.05 359.247 381.776 359.002 381.504 358.754ZM372.604 378.48C370.658 376.515 368.482 377.23 366.411 377.844C366.251 378.515 366.092 379.188 365.933 379.863C367.893 379.455 369.855 379.049 372.604 378.48ZM418.452 365.525C418.306 365.075 418.162 364.625 418.015 364.177C409.762 367.034 401.506 369.891 393.251 372.747C402.703 372.638 410.066 367.952 418.452 365.525ZM263.876 379.743C248.043 383.322 232.222 386.998 216.406 390.678C212.033 391.695 207.545 392.645 203.41 396.465C209.498 394.755 214.022 395.75 219.168 392.634C221.851 391.009 226.814 390.845 230.743 389.982C237.068 388.594 243.403 387.255 249.703 385.74C255.858 384.263 261.974 382.591 268.107 381.004C268.166 380.624 268.226 380.244 268.286 379.864C266.812 379.808 265.289 379.422 263.876 379.743ZM197.072 398.048C197.078 398.282 197.086 398.518 197.094 398.752C198.084 398.582 199.077 398.409 200.068 398.236C200.061 397.983 200.053 397.727 200.044 397.472C199.054 397.664 198.062 397.858 197.072 398.048ZM182.935 400.048C185.962 400.359 187.771 400.544 189.581 400.731C189.368 397.796 187.05 398.517 182.935 400.048ZM339.829 393.916C337.642 394.634 335.454 395.352 333.266 396.071C333.348 396.266 333.431 396.465 333.511 396.661C335.751 395.964 337.99 395.272 340.228 394.576C340.095 394.356 339.963 394.137 339.829 393.916ZM766.268 217.847C776.298 217.341 783.295 212.674 791.163 209.618C791.006 209.177 790.851 208.734 790.694 208.292C786.819 208.745 782.943 209.202 777.871 209.8C779.975 207.976 781.552 206.609 782.913 205.43C781.632 203.897 780.388 202.403 778.966 200.7C765.194 202.111 765.194 202.111 759.983 208.437C762.42 208.781 764.839 209.123 767.406 209.485C767.043 212.151 766.683 214.795 766.268 217.847ZM791.211 195.184C791.327 194.841 791.444 194.501 791.562 194.159C789.008 194.293 786.457 194.426 781.974 194.662C785.704 192.835 788.002 191.706 790.357 190.55C788.454 189.488 786.533 188.417 784.037 187.025C780.547 187.928 776.901 188.871 773.254 189.815C773.172 190.093 773.091 190.374 773.007 190.653C775.462 190.564 777.918 190.474 780.764 190.372C775.129 194.708 767.277 193.92 759.802 197.024C770.695 198.362 780.666 197.81 791.211 195.184ZM801.392 182.562C801.906 182.459 802.378 181.894 803.085 181.37C802.161 181.215 801.502 180.927 800.939 181.067C800.475 181.181 800.121 181.803 799.721 182.199C800.279 182.337 800.857 182.671 801.392 182.562ZM837.495 103.399C835.435 108.236 830.908 109.719 823.474 110.053C820.253 110.2 816.946 110.595 813.062 110.931C817.105 115.401 817.091 115.377 824.429 112.764C827.216 111.772 830.052 110.754 832.928 110.072C834.201 109.768 836.03 110.024 836.849 110.505C837.379 110.814 836.961 112.221 836.2 112.732C834.937 113.578 833.103 114.257 831.42 114.729C828.784 115.473 826.072 115.986 823.39 116.596C823.388 116.934 823.384 117.273 823.381 117.609C825.02 117.704 826.658 117.799 828.605 117.909C823.355 118.996 819.146 120.47 816.424 124.197C821.922 123.775 825.893 123.406 829.689 120.389C832.505 118.149 836.592 117.149 840.406 118.02C839.866 119.32 839.163 120.463 839 121.543C838.815 122.771 839.108 123.941 839.188 125.059C840.903 125.331 842.399 125.566 843.959 125.814C836.749 132.699 836.894 132.873 847.222 135.427C848.383 135.714 849.269 136.967 849.009 137.855C848.347 140.098 847.036 142.398 843 143.887C842.827 145.26 842.657 146.632 842.498 147.922C844.35 148.213 846.196 148.504 848.04 148.795C847.861 149.099 847.679 149.405 847.498 149.709C845.32 149.942 843.143 150.174 841.4 150.357C839.848 152.005 838.581 153.347 837.291 154.718C837.899 155.477 838.521 156.253 839.635 157.641C834.336 158.061 830.276 158.382 826.293 158.696C826.166 157.436 826.065 156.44 825.953 155.344C819.926 157.098 813.473 157.666 810.28 162.4C814.585 161.669 818.437 161.015 822.53 160.321C822.923 161.838 823.2 162.908 823.383 163.617C830.958 163.853 838.244 157.607 846.447 160.603C840.068 163.928 834.446 166.861 827.906 170.273C826.602 168.52 825.639 167.224 824.793 166.088C819.02 166.285 813.424 166.476 807.307 166.684C805.038 169.418 801.394 170.574 796.806 170.068C795.692 169.945 793.838 170.008 793.011 170.476C786.873 173.942 780.775 173.548 774.644 173.802L774.885 173.882C774.885 173.882 774.885 173.882 774.884 173.883L774.885 173.882C774.824 173.907 774.762 173.933 774.701 173.959C774.687 173.92 774.673 173.885 774.66 173.847C771.53 173.327 769.446 174.125 768.552 176.418C765.427 177.139 762.431 177.966 761.139 180.218C761.193 180.223 761.25 180.232 761.304 180.238C761.218 180.283 761.132 180.327 761.046 180.372L761.129 180.217C758.429 181.049 755.728 181.881 752.62 182.839C755.872 184.254 758.607 185.442 761.273 186.601C769.783 182.601 768.335 183.029 774.242 184.828C776.565 184.022 778.827 183.24 781.052 182.469C781.822 178.428 785.258 175.665 791.699 173.938C795.752 172.852 799.822 171.828 804.577 170.598C807.607 172.338 812.179 172.996 819.851 170.965C815.946 173.451 813.702 174.878 810.072 177.19C813.403 176.639 815.623 176.659 817.126 175.956C824.809 172.363 833.05 170.934 841.279 169.331C841.611 174.443 833.106 175.296 828.48 178.191C829.625 178.283 830.542 178.12 831.428 177.865C835.564 176.686 839.667 175.367 843.836 174.361C844.873 174.112 846.113 174.846 847.26 175.128C846.468 175.79 845.812 176.767 844.862 177.061C839.756 178.651 834.613 180.353 829.413 181.48C823.477 182.766 817.469 183.423 811.495 184.5C809.557 184.85 807.628 185.665 804.582 186.613C808.437 187.047 811.186 187.355 813.866 187.657C813.66 188.738 813.502 189.574 813.145 191.465C817.146 189.264 819.92 187.735 822.698 186.207C827.521 183.562 835.53 182.2 836.814 184.398C838.097 186.589 841.3 186.441 842.911 187.06C843.489 189.296 843.945 191.056 844.328 192.538C840.066 194.651 835.58 196.877 831.093 199.102L831.115 199.104L831.113 199.105C831.093 199.102 831.341 199.134 831.341 199.134C831.329 199.141 831.316 199.148 831.305 199.153C831.253 199.141 831.203 199.127 831.155 199.116C827.06 198.695 822.961 198.273 818.385 197.805C816.334 199.309 813.926 200.924 811.841 202.656C810.259 203.966 809.819 205.227 812.45 205.667C813.42 205.828 814.274 206.128 815.183 206.362C815.569 206.678 815.955 206.994 816.343 207.309C806.514 207.841 809.671 212.609 805.628 215.038C803.533 214.513 801.872 213.603 799.871 213.702C795.68 213.908 798.208 216.523 795.974 217.522C787.144 218.65 778.459 218.315 769.082 222.192C772.592 225.498 770.236 228.325 764.11 230.963C764.847 232.618 765.502 234.09 766.095 235.425C773.364 235.054 779.475 232.841 784.516 230.179C789.458 227.571 794.589 225.869 799.891 224.056C802.646 223.115 805.318 221.933 807.839 220.688C808.532 220.344 808.556 219.387 809.006 218.467C804.326 219.02 800.166 222.058 795.39 220.573C797.456 219.768 798.681 219.308 799.883 218.814C804.801 216.793 809.256 214.735 814.811 216.081C817.863 216.819 822.664 215.352 825.635 212.772C828.362 210.407 831.956 209.358 835.741 209.055C837.593 208.906 839.262 209.48 841.016 209.729C839.792 210.802 838.842 212.109 837.293 212.905C832.943 215.139 831.43 217.145 833.796 218.98C834.777 219.743 836.887 220.026 838.711 220.178C844.936 220.705 845.895 222.499 841.007 225.985C838.398 227.843 836.296 229.606 835.006 231.804C834.301 233.007 832.432 234.145 830.979 235.411C828.285 235.37 825.953 235.336 823.179 235.293C825.521 233.981 827.232 233.02 830.235 231.336C824.472 231.005 819.957 230.611 815.28 230.552C813.68 230.533 811.365 231.089 809.904 231.837C805.183 234.248 800.831 236.069 796.583 233.686C796.132 233.435 794.495 233.741 793.541 234.058C789.853 235.285 786.214 236.613 782.559 237.909C782.565 237.912 782.572 237.914 782.579 237.918C782.506 237.939 782.433 237.959 782.361 237.98C782.332 237.99 782.304 238.001 782.277 238.01L782.442 237.866C780.237 237.808 778.032 237.749 776.922 237.72C772.205 240.894 767.796 243.416 764.362 246.282C759.76 250.123 754.255 251.155 749.196 250.453C743.988 249.729 741.513 251.628 738.444 253.832C738.99 256.823 742.813 257.495 745.975 258.555C749.476 259.73 749.499 260.432 746.005 262.816C743.096 264.803 740.219 266.804 737.33 268.8C740.237 268.64 742.626 267.794 745.061 267.059C748.424 266.038 751.795 264.887 755.207 264.169C772.173 260.589 788.278 255.494 803.186 247.931C805.355 246.832 808.118 245.932 810.606 245.503C813.709 244.969 816.074 244.367 818.356 242.478C820.649 240.578 823.893 240.052 827.162 240.42C827.145 242.747 825.037 243.908 821.955 245.037C818.075 246.459 817.303 248.367 818.133 250.67C827.328 244.394 829.219 244.28 832.399 249.702C828.878 251.043 825.571 251.882 821.693 251.962C815.002 252.104 808.167 252.899 801.237 255.174C788.123 259.483 774.952 263.671 761.782 267.866C758.248 268.989 756.802 270.779 754.968 273.112C758.516 272.496 761.357 272.003 764.069 271.532C761.46 272.509 758.809 273.795 756.027 274.482C750.043 275.96 743.63 279.468 738.234 276.507C737.611 276.165 735.74 276.444 734.501 276.734C719.954 280.119 705.645 284.113 692.001 289.716C691.297 290.004 690.374 290.432 690.129 290.834C687.457 295.227 681.175 296.392 675.643 297.874C665.415 300.616 655.102 303.05 644.813 305.564C644.257 305.698 643.605 305.389 642.999 305.284C642.884 304.99 642.771 304.696 642.656 304.402C653.278 303.04 662.451 299.524 670.776 294.66C667.998 294.98 665.411 295.718 662.801 296.315C644.276 300.556 625.761 304.864 607.217 308.962C594.001 311.88 581.052 315.058 569.868 321.815C571.704 322.926 573.259 323.865 575.558 325.256C572.928 326.429 570.931 327.268 569.018 328.188C567.466 328.937 565.271 329.7 564.64 330.594C561.156 335.535 555.216 337.781 547.678 338.821C544.875 339.206 542.042 339.955 539.223 340.538C543.012 340.868 546.617 340.671 550.255 340.188C555.019 339.554 559.849 338.958 564.574 337.878C574.098 335.703 583.544 333.058 593.071 330.917C597.677 329.881 602.394 329.548 607.058 328.897C595.195 333.231 583.219 336.565 571.031 338.524C555.364 341.045 539.707 343.223 524.047 345.502C516.622 346.58 508.969 348.193 501.84 348.431C488.586 348.874 475.597 349.342 462.206 354.593C461.526 354.859 460.639 354.815 459.848 354.948C447.777 356.967 436.119 359.786 425.674 365.692C423.103 367.144 419.834 368.19 416.772 369.177C410.624 371.164 404.217 372.702 398.233 374.922C382.355 380.814 366.641 386.962 350.873 393.025C349.644 393.499 348.346 394.014 347.354 394.663C342.819 397.619 337.418 399.195 331.866 400.69C328.212 401.673 324.391 402.622 321.057 404.066C311.717 408.113 302.604 412.421 293.352 416.575C292.629 416.899 291.53 416.813 289.615 417.027C297.046 411.124 302.999 405.391 313.31 402.172C313.828 402.01 314.44 401.897 314.84 401.657C320.175 398.439 328.626 397.509 331.462 392.315C331.777 391.738 334.794 391.022 336.509 390.799C339.158 390.449 341.089 389.821 342.143 388.206C338.518 387.816 335.172 387.252 331.589 387.124C326.636 386.944 321.54 386.539 316.262 389.217C313.331 390.703 311.097 390.664 308.37 389.997C304.768 389.117 300.93 388.846 295.842 390.658C291.153 392.327 285.851 392.97 280.813 394.002C269.987 396.219 259.147 398.32 248.333 400.626C243.672 401.623 239.137 402.561 234.736 402.075C237.004 401.199 239.272 400.655 241.546 400.159C251.364 398.013 261.192 395.94 270.994 393.701C273.568 393.113 276.62 392.319 278.49 391.092C285.447 386.533 293.715 383.368 301.715 379.878C303.174 379.24 304.286 378.201 306.472 376.735C289.811 378.25 274.673 381.266 259.493 385.544C243.574 390.033 227.546 394.185 211.58 398.531C198.535 402.081 185.504 405.686 172.475 409.293C169.283 410.177 166.12 411.158 162.605 412.192C165.797 407.787 169.898 405.114 176.77 404.478C178.699 404.299 180.844 403.153 183.508 402.24C180.342 400.781 177.92 400.957 174.746 402.248C169.16 404.522 163.337 406.487 157.746 408.757C154.407 410.112 151.468 412.278 148.078 413.216C144.458 414.217 140.517 414.197 136.714 414.629C136.209 414.687 135.695 414.791 134.583 414.97C136.893 411.852 134.157 412.026 130.685 412.838C128.044 413.455 125.423 414.186 121.833 415.115C123.032 412.881 124.035 411.421 124.508 409.986C124.847 408.966 125.119 407.47 124.234 407.125C123.325 406.77 120.622 407.246 119.317 407.9C114.387 410.373 109.913 409.252 105.451 409.598C103.789 409.727 102.8 406.995 101.658 405.506C100.8 404.39 100.189 403.169 99.2904 401.707C95.9195 402.104 92.6641 401.951 91.2499 399.711C90.844 399.069 88.8945 398.733 87.4607 398.792C84.4786 398.912 83.5014 397.743 83.3418 396.425C82.9784 393.43 79.9854 392.558 75.7369 391.869C71.1642 391.125 66.5869 392.181 61.8881 392.872C59.9903 393.15 58.0878 393.455 56.1883 393.75C58.4847 392.042 60.9635 391.25 63.2841 390.27C67.9304 388.305 71.381 385.172 69.5542 383.983C66.8783 382.241 69.3596 380.019 69.6633 378.125C66.7145 377.891 64.224 377.695 62.1138 377.529C63.7479 375.146 65.0368 373.268 66.5867 371.005C69.1147 370.351 72.2277 369.545 74.264 369.019C76.9612 366.101 79.1174 363.769 81.274 361.438C81.8379 361.401 82.4023 361.367 82.9661 361.33C82.1382 359.539 82.3133 356.922 80.2266 356.168C77.6131 355.226 73.1466 355.812 69.2923 355.734C66.9373 350.951 74.9047 349.054 79.7589 346.475C80.0256 343.458 77.0796 343.695 73.5151 344.436C68.7354 345.433 63.9481 346.385 59.1657 347.349C56.2187 347.944 53.549 348.17 51.32 346.083C58.8902 343.992 65.5834 342.084 72.3107 340.301C80.3472 338.173 81.663 335.834 76.1328 332.595C73.9128 334.606 71.7417 336.572 68.8941 339.149C67.9675 337.882 67.0829 337.334 67.1541 336.66C67.5866 332.58 68.3403 328.543 66.9166 324.691C65.78 321.617 65.9002 320.702 60.2031 320.218C59.1124 320.125 58.1802 319.756 57.2508 319.45C53.7035 318.275 50.1886 317.075 45.8233 315.602C46.3988 311.592 39.6653 311.399 34.662 310.371C35.9485 305.808 36.2661 305.543 30.3529 303.5C27.1546 302.392 28.9593 300.427 28.9357 298.716C26.56 298.85 24.5415 298.963 22.4616 299.08C22.4911 298.101 22.6029 297.32 22.5225 296.58C22.025 291.973 22.5361 292.026 29.2842 288.748C35.9382 285.512 42.8511 282.977 50.0287 280.627C51.7797 280.053 53.3131 279.059 55 278.321C58.0947 276.962 61.1272 275.454 64.3684 274.36C71.0117 272.117 77.792 270.146 84.4699 267.968C85.4892 267.634 86.2637 266.79 87.326 266.065C84.9995 265.756 83.3027 265.53 81.6064 265.305C81.6539 265.022 81.7012 264.737 81.7493 264.455C87.8088 262.888 93.8684 261.32 100.93 259.493C94.4285 259.03 87.0127 262.253 83.1953 258.669C82.7494 258.25 79.4876 258.721 78.0234 259.356C72.2426 261.858 67.3549 261.744 62.0611 260.648C67.5904 256.397 74.8966 255.012 81.3874 252.586C77.3572 253.381 73.466 254.556 69.5387 255.357C65.6559 256.149 61.7378 256.564 57.8341 257.147C58.0764 256.779 58.3212 256.414 58.5643 256.049C54.9732 253.83 49.5896 253.292 41.9248 253.276C49.5959 250.475 55.2264 248.417 62.3903 245.803C57.1331 245.534 50.3269 248.234 51.2026 243.327C53.498 242.392 55.9392 241.666 57.8444 240.572C66.9341 235.346 77.5539 231.941 87.5034 227.762C96.5826 223.951 106.615 221.236 114.96 215.493C111.452 215.63 108.472 215.744 105.491 215.86C107.204 214.912 109.323 214.744 110.108 214.098C114.503 210.468 118.768 211.538 123.116 211.725C125.82 211.841 128.832 212.628 131.196 211.899C138.862 209.537 146.885 207.122 153.575 203.702C157.195 201.855 160.499 200.56 164.298 199.647C167.177 198.957 170.148 198.761 173.046 198.122C180.167 196.555 187.282 194.913 194.365 193.157C195.513 192.874 196.493 191.852 197.551 191.17C197.413 190.918 197.274 190.667 197.134 190.413C190.651 191.501 184.166 192.586 177.881 193.638C179.852 192.278 183.01 190.878 183.712 189.445C184.918 186.977 187.807 185.876 190.647 184.838C194.135 183.559 197.884 182.521 201.556 181.768C218.29 178.334 235.042 175.097 251.777 171.663C260.794 169.814 269.858 167.978 278.768 165.646C288.064 163.215 297.123 159.893 306.423 157.498C320.907 153.771 335.523 150.577 350.052 147.018C375.486 140.793 401.058 136.13 426.584 132.018C445.187 129.023 463.758 125.677 482.347 122.438C487.84 121.479 493.366 121.091 498.822 120.656C501.669 120.43 504.156 120.515 504.676 122.779C505.059 124.443 507.92 123.974 509.704 122.14C510.307 121.523 510.998 120.853 511.206 120.227C513.119 114.505 521.634 111.971 527.465 107.898C530.908 111.38 530.393 112.138 524.699 113.09C518.93 114.056 515.368 117.113 516.433 120.184C517.291 122.663 520.081 123.767 525.678 122.724C535.976 120.807 546.384 118.918 556.517 116.208C574.325 111.446 591.961 106.079 609.662 100.94C610.937 100.569 612.137 99.9894 612.955 99.6689C607.517 97.3755 599.991 101.195 594.015 100.019C608.99 95.1165 624.533 93.5897 639.63 88.5099C639.965 89.8023 640.214 90.7676 640.443 91.6501C647.714 92.0391 655.938 87.7547 663.163 89.8076C656.647 92.0181 650.88 94.7542 645.128 95.7236C638.72 96.8024 633.178 98.6218 627.213 101.097C627.636 101.628 628.001 102.081 628.378 102.55C624.743 104.373 621.264 106.42 617.414 107.964C613.64 109.477 609.487 110.477 605.096 111.83C606.013 112.125 606.352 112.382 606.74 112.336C618.591 111.004 630.149 108.913 640.347 102.694C643.326 100.878 646.945 99.6567 649.649 101.198C652.25 102.679 655.408 102.13 658.946 101.44C660.69 101.101 663.58 100.541 664.015 100.982C666.005 102.995 668.862 101.916 672.16 101.126C676.615 100.057 681.161 99.3354 685.662 98.625C689.941 97.9455 693.975 97.0982 696.876 94.8034C694.245 93.3154 691.978 92.0337 689.493 90.6289C687.406 91.3815 685.184 92.1803 682.618 93.1077C681.283 92.002 680.054 90.9858 678.286 89.5265C683.655 88.4413 687.846 87.4973 692.035 86.7725C697.334 85.8539 702.645 85.0125 707.928 84.323C712.147 83.767 714.779 84.9038 718.106 87.1871C713.151 87.5876 710.012 87.8398 706.611 88.1133C710.429 90.8173 710.602 90.8526 713.804 90.0164C717.435 89.0696 721.068 88.1349 725.117 87.0874C727.097 84.5197 729.076 81.956 731.231 79.1634C732.077 78.9445 734.265 78.7259 735.5 77.9439C736.416 77.3679 736.088 76.0638 736.352 74.9254C739.125 74.7443 741.93 74.56 745.068 74.3534C744.79 75.8216 744.567 76.9932 744.352 78.1291C750.129 77.9646 755.4 77.8136 762.137 77.6209C758.821 80.6188 756.468 82.7467 752.857 86.0152C760.289 84.58 765.959 83.4528 771.633 82.3979C776.32 81.5287 776.766 81.9986 774.742 85.9815C769.036 84.4311 765.32 87.4599 761.439 90.1721C767.368 90.407 768.948 92.7586 767.803 96.3479C779.255 94.8152 789.772 90.4792 801.275 87.2618C799.961 92.4714 791.461 92.1588 788.426 95.3342C789.646 96.4525 790.868 97.5738 792.586 99.1461C786.272 99.182 782.494 97.0702 776.168 98.3366C777.72 100.018 778.806 101.193 779.861 102.337C781.968 102.242 783.962 102.153 785.77 102.072C785.867 104.552 785.954 106.78 786.033 108.847C788.326 108.999 789.968 109.108 792.057 109.247C790.999 109.981 790.452 110.363 789.899 110.743C789.148 111.255 788.391 111.765 786.651 112.943C790.573 113.152 793.717 113.997 796.588 113.328C802.057 112.054 807.435 110.017 812.714 108.079C814.738 107.336 816.393 105.999 819.1 104.411C815.916 104.098 814.034 103.914 812.15 103.728C822.221 99.7365 831.605 102.526 842.728 97.8475C840.223 100.444 838.119 101.93 837.495 103.399Z" fill="#D5D5D5"/>
<path d="M261.59 152.682C243.24 156.353 224.88 159.911 206.541 163.691C177.301 169.716 148.044 175.69 119.164 183.845C113.937 185.321 108.6 187.184 103.408 187.901C92.7871 189.364 82.8377 192.714 72.7037 195.72C70.2861 196.439 67.7693 196.895 65.297 197.471C81.6282 188.054 248.478 150.231 265.164 151.767C263.638 152.162 262.618 152.478 261.59 152.682Z" fill="#D5D5D5"/>
<path d="M316.358 409.001C314.923 412.237 310.076 412.611 306.927 413.871C303.409 415.276 301.29 418.514 295.97 418.558C303.374 413.973 311.91 409.953 316.358 409.001Z" fill="#D5D5D5"/>
<path d="M213.748 414.056C209.76 417.594 205.82 416.994 200.101 416.835C205.613 414.709 209.33 413.422 213.748 414.056Z" fill="#D5D5D5"/>
<path d="M228.958 411.169C225.67 412.02 223.189 412.662 220.709 413.303C220.644 412.956 220.579 412.606 220.514 412.258C223.04 411.308 225.56 409.93 228.958 411.169Z" fill="#D5D5D5"/>
<path d="M334.074 404.061C331.552 404.887 329.027 405.713 326.503 406.54C326.393 406.305 326.284 406.072 326.175 405.837C328.707 405.026 331.239 404.215 333.771 403.402C333.873 403.621 333.972 403.841 334.074 404.061Z" fill="#D5D5D5"/>
</svg>
