<svg width="1279" height="973" viewBox="0 0 1279 973" fill="none" xmlns="http://www.w3.org/2000/svg">
<path d="M1610.49 257.184C1610.69 260.97 1612.53 264.131 1610.49 266.738C1608.66 269.058 1602.61 270.834 1598.31 272.721C1594.89 274.22 1591.3 275.533 1587.77 276.903C1585.01 277.972 1582.21 278.992 1579.85 280.845C1597.26 278.11 1612.85 270.645 1631.98 266.205C1629.31 264.951 1628.22 264.322 1626.92 263.857C1625.85 263.469 1624.54 263.277 1622.4 262.782C1634.78 255.989 1652.36 253.817 1657.07 242.146C1642.46 249.565 1626.75 254.303 1610.49 257.184ZM1563.1 280.076C1570.84 277.851 1577.13 276.045 1583.42 274.244C1569.42 271.269 1569.42 271.269 1563.1 280.076ZM1559.45 304.366C1559.79 305.178 1560.13 305.997 1560.47 306.81C1564.32 305.43 1568.17 304.044 1572.02 302.664C1571.8 302.206 1571.58 301.747 1571.35 301.286C1567.39 302.312 1563.42 303.338 1559.45 304.366ZM1555.05 319.817C1562.66 319.454 1569.7 319.118 1576.74 318.78C1568.18 325.473 1591.09 320.784 1581.15 327.414C1591.89 330.15 1602.26 326.956 1612.65 323.389C1622.33 320.072 1632.91 317.37 1636.54 308.014C1632.97 305.89 1628.67 303.329 1623.13 300.019C1619.84 303.872 1618.05 305.979 1616.04 308.336C1610.61 309.444 1604.96 310.591 1598.2 311.967C1598.56 310.274 1598.39 309.075 1599.13 307.953C1602.37 302.983 1598.12 301.537 1592.01 303.141C1578.69 306.647 1563.77 309.007 1555.05 319.817ZM1545.93 344.391C1549.81 343.744 1553.09 343.191 1556.36 342.642C1562.98 351.608 1564.02 351.669 1581.67 344.184C1577.83 329.496 1575.08 328.726 1550.76 336.079C1549.14 338.871 1547.8 341.16 1545.93 344.391ZM1495.01 162.848C1493.27 165.75 1491.47 167.602 1491.52 169.119C1491.54 169.97 1494.61 170.268 1496.3 170.818C1497.78 169.207 1500.16 167.505 1500.44 166.019C1500.63 165.041 1497.8 164.371 1495.01 162.848ZM1616.45 333.898C1608.64 329.052 1606.89 329.008 1595.86 333.417C1602.27 339.027 1602.27 339.027 1616.45 333.898ZM1651.67 287.541C1654.77 287.789 1658.19 287.56 1661.22 287.895C1666.98 288.527 1672.28 290.124 1678.3 289.986C1684.33 289.845 1691.39 287.277 1697.29 287.293C1701.14 287.312 1703.4 290.323 1706.97 291.479C1709.34 292.247 1712.65 292.19 1715.59 292.459C1716.09 288.803 1716.59 285.111 1717.24 280.357C1708.94 281.821 1701.6 283.118 1693.81 284.495C1692.07 281.239 1690.29 277.903 1688.15 273.897C1689.65 272.749 1692.16 270.838 1694.5 269.049C1693.68 268.249 1693.42 267.626 1692.71 267.361C1682.68 263.51 1670.01 266.063 1657.81 268.689C1652.97 269.729 1650.54 269.868 1646.86 268.531C1642.16 266.827 1636.55 267.032 1634.32 273.061C1633.37 275.62 1628.92 278.301 1624.1 282.739C1633.46 280.318 1640.45 278.508 1647.45 276.697C1647.86 277.44 1648.28 278.189 1648.7 278.938C1643.28 281.255 1637.87 283.581 1632.72 285.786C1638.91 286.37 1645.24 287.029 1651.67 287.541ZM1642.27 291.341C1640.67 293.399 1639.06 295.456 1636.37 298.914C1644.34 296.599 1647.5 294.88 1642.27 291.341ZM1663.6 300.125C1657.06 302.083 1652.01 303.592 1645.54 305.522C1656.37 309.014 1656.84 308.872 1663.6 300.125ZM1690.25 307.331C1687.98 300.229 1679.03 304.107 1672.68 304.08C1672.55 304.642 1670.09 314.981 1669.72 316.545C1677.35 313.116 1683.71 310.269 1690.25 307.331ZM1674.02 253.808C1672.82 254.099 1672.01 256.469 1671.03 257.893C1673.78 258.048 1676.55 258.689 1679.26 258.173C1680.92 257.857 1682.47 255.76 1685.91 252.973C1680.37 253.277 1677.1 253.078 1674.02 253.808ZM1533.5 377.75C1527.3 381.176 1523.94 383.032 1518.2 386.199C1524.89 386.685 1529.33 387.004 1536.02 387.488C1535.1 383.952 1534.51 381.643 1533.5 377.75ZM1477.5 207.319C1476.04 207.858 1474.56 208.393 1473.09 208.933C1472.52 211.337 1471.94 213.741 1471.18 216.91C1476.05 215.65 1479.43 214.776 1485.01 213.331C1481.92 210.854 1479.71 209.088 1477.5 207.319ZM1484.81 373.829C1495.04 377.031 1497.95 371.766 1502.04 368.572C1494.2 366.966 1490.92 370.852 1484.81 373.829ZM1360.17 226.313C1377.16 224.558 1387.89 214.895 1401.6 213.888C1387.73 214.12 1375.25 218.626 1360.17 226.313ZM1379.89 233.948C1377.87 234.067 1375.85 234.19 1373.83 234.307C1373.78 234.837 1373.72 235.372 1373.66 235.903C1375.62 235.69 1377.57 235.476 1379.52 235.263C1379.64 234.826 1379.77 234.387 1379.89 233.948ZM1445.46 562.715C1444.57 566.107 1443.68 569.527 1442.44 574.252C1455.88 569.69 1467.76 565.661 1479.64 561.628C1479.4 560.563 1479.16 559.498 1478.92 558.434C1471.73 559.739 1464.54 561.052 1456.3 562.544C1461.48 560.661 1465.83 559.079 1470.18 557.493C1470.01 557.148 1469.84 556.8 1469.67 556.452C1461.88 558.466 1454.09 560.481 1445.46 562.715ZM1303.78 234.326C1309.61 237.038 1315.24 234.867 1320.8 231.068C1315.13 232.15 1309.45 233.238 1303.78 234.326ZM1277.7 230.252C1274.08 231.317 1269.61 232.636 1262.53 234.725C1268.35 236.086 1272.76 236.463 1275.5 237.938C1278.37 239.474 1278.68 243.372 1286.49 238.337C1283.51 235.589 1280.88 233.174 1277.7 230.252ZM1112.43 666.05C1081.14 674.766 1049.91 683.637 1018.52 691.961C1008.68 694.565 998.416 695.621 986.659 697.687C993.603 691.554 1008.14 694.211 1011.27 685.556C997.607 686.194 984.054 690.268 970.509 693.458C947.006 698.991 923.52 704.591 900.021 710.155C897.872 710.664 895.693 711.045 893.562 711.612C857.944 721.168 823.005 731.874 788.843 745.02C775.493 750.156 761.474 755.775 745.442 757.479C728.39 759.288 712.084 766.402 696.636 774.18C712.722 779.738 729.208 776.818 746.449 768.287C746.432 768.359 746.412 768.435 746.396 768.511C757.709 763.505 769.045 758.494 781.401 753.028C782.478 755.153 783.347 756.853 784.603 759.317C791.853 756.548 798.322 754.026 804.848 751.587C826.243 743.608 847.437 735.253 869.13 727.831C887.263 721.629 906.007 716.625 925.11 714.031C925.647 713.96 926.326 713.72 926.705 713.805C943.535 717.592 962.254 709.702 980.018 707.653C997.658 705.621 1015.38 703.215 1033.09 700.544C1039.41 699.592 1045.78 697.206 1052.17 695.825C1056.19 694.952 1060.45 694.367 1064.34 694.283C1074.5 694.063 1079.5 691.953 1089.98 684.615C1094.18 681.681 1100.27 679.502 1105.79 677.423C1113.43 674.545 1121.51 672.316 1129.11 669.375C1135.42 666.929 1143.15 664.922 1145.03 658.698C1133.68 659.099 1123.11 663.07 1112.43 666.05ZM816.785 709.552C832.09 710.052 854.267 703.719 875.523 693.086C853.603 693.592 835.875 701.13 816.785 709.552ZM791.749 726.947C806.821 728.574 816.314 724.999 817.609 716.555C809.943 722.054 797.798 719.534 791.749 726.947ZM777.073 729.796C775.043 730.845 773.008 731.887 770.977 732.932C771.457 733.3 772.186 734.048 772.381 733.973C774.549 733.151 776.63 732.211 778.74 731.301C778.185 730.798 777.627 730.299 777.073 729.796ZM758.969 769.924C755.01 765.925 750.583 767.38 746.371 768.629C746.046 769.994 745.722 771.363 745.398 772.736C749.385 771.907 753.377 771.081 758.969 769.924ZM852.234 743.569C851.938 742.654 851.646 741.738 851.347 740.827C834.557 746.639 817.763 752.451 800.969 758.26C820.197 758.039 835.175 748.506 852.234 743.569ZM537.788 772.492C505.581 779.773 473.396 787.251 441.222 794.738C432.327 796.805 423.198 798.738 414.786 806.509C427.169 803.031 436.373 805.054 446.841 798.715C452.299 795.411 462.396 795.076 470.389 793.322C483.254 790.497 496.141 787.774 508.956 784.693C521.477 781.687 533.919 778.286 546.395 775.058C546.516 774.285 546.637 773.512 546.759 772.738C543.762 772.625 540.663 771.84 537.788 772.492ZM401.892 809.729C401.905 810.206 401.922 810.686 401.938 811.162C403.951 810.815 405.97 810.464 407.986 810.113C407.972 809.597 407.956 809.077 407.937 808.558C405.924 808.948 403.907 809.343 401.892 809.729ZM373.134 813.797C379.293 814.43 382.973 814.807 386.654 815.187C386.22 809.218 381.505 810.683 373.134 813.797ZM692.297 801.324C687.846 802.785 683.396 804.246 678.946 805.707C679.112 806.104 679.28 806.509 679.443 806.907C684 805.49 688.555 804.082 693.108 802.666C692.838 802.22 692.568 801.774 692.297 801.324ZM1559.78 443.156C1580.18 442.126 1594.42 432.632 1610.42 426.416C1610.1 425.518 1609.79 424.616 1609.47 423.719C1601.58 424.64 1593.7 425.569 1583.38 426.786C1587.66 423.076 1590.87 420.294 1593.64 417.896C1591.03 414.777 1588.5 411.738 1585.61 408.273C1557.6 411.145 1557.6 411.145 1546.99 424.012C1551.95 424.713 1556.87 425.408 1562.09 426.144C1561.36 431.568 1560.62 436.947 1559.78 443.156ZM1610.52 397.052C1610.76 396.356 1610.99 395.664 1611.23 394.967C1606.04 395.24 1600.85 395.511 1591.73 395.99C1599.32 392.274 1603.99 389.977 1608.78 387.627C1604.91 385.467 1601 383.288 1595.93 380.455C1588.83 382.292 1581.41 384.211 1573.99 386.13C1573.82 386.697 1573.66 387.268 1573.49 387.836C1578.48 387.654 1583.48 387.473 1589.27 387.264C1577.8 396.086 1561.83 394.481 1546.63 400.796C1568.79 403.517 1589.07 402.395 1610.52 397.052ZM1631.23 371.377C1632.28 371.166 1633.24 370.017 1634.67 368.951C1632.8 368.636 1631.45 368.05 1630.31 368.335C1629.37 368.567 1628.65 369.832 1627.83 370.638C1628.97 370.92 1630.14 371.599 1631.23 371.377ZM1704.67 210.339C1700.48 220.179 1691.27 223.197 1676.15 223.875C1669.6 224.174 1662.87 224.978 1654.97 225.661C1663.19 234.754 1663.17 234.705 1678.09 229.391C1683.76 227.373 1689.53 225.301 1695.38 223.914C1697.97 223.295 1701.69 223.817 1703.36 224.795C1704.44 225.424 1703.59 228.286 1702.04 229.325C1699.47 231.046 1695.74 232.427 1692.31 233.388C1686.95 234.902 1681.44 235.945 1675.98 237.186C1675.98 237.874 1675.97 238.563 1675.96 239.246C1679.3 239.439 1682.63 239.632 1686.59 239.856C1675.91 242.067 1667.35 245.065 1661.81 252.647C1672.99 251.788 1681.07 251.039 1688.79 244.9C1694.52 240.344 1702.84 238.31 1710.59 240.082C1709.5 242.726 1708.07 245.052 1707.74 247.248C1707.36 249.746 1707.95 252.126 1708.12 254.4C1711.61 254.955 1714.65 255.434 1717.82 255.938C1703.16 269.943 1703.45 270.296 1724.46 275.492C1726.82 276.076 1728.62 278.625 1728.1 280.431C1726.75 284.993 1724.08 289.674 1715.87 292.703C1715.52 295.495 1715.17 298.287 1714.85 300.91C1718.62 301.502 1722.37 302.094 1726.12 302.687C1725.76 303.305 1725.39 303.928 1725.02 304.547C1720.59 305.019 1716.16 305.491 1712.62 305.864C1709.46 309.216 1706.88 311.946 1704.26 314.735C1705.5 316.279 1706.76 317.857 1709.03 320.682C1698.25 321.535 1689.99 322.188 1681.89 322.828C1681.63 320.265 1681.42 318.238 1681.19 316.008C1668.93 319.577 1655.81 320.732 1649.31 330.363C1658.07 328.875 1665.9 327.545 1674.23 326.133C1675.03 329.22 1675.59 331.396 1675.97 332.838C1691.38 333.317 1706.2 320.613 1722.88 326.706C1709.91 333.471 1698.47 339.437 1685.17 346.378C1682.51 342.812 1680.55 340.176 1678.83 337.864C1667.09 338.264 1655.71 338.654 1643.26 339.076C1638.65 344.639 1631.23 346.99 1621.9 345.96C1619.64 345.71 1615.86 345.839 1614.18 346.791C1601.7 353.841 1589.29 353.04 1576.82 353.557L1577.31 353.72C1577.31 353.72 1577.31 353.72 1577.31 353.721L1577.31 353.72C1577.18 353.771 1577.06 353.824 1576.93 353.877C1576.91 353.797 1576.88 353.725 1576.85 353.648C1570.48 352.59 1566.25 354.213 1564.43 358.878C1558.07 360.344 1551.97 362.028 1549.35 366.608C1549.46 366.619 1549.57 366.637 1549.68 366.649C1549.51 366.74 1549.33 366.83 1549.16 366.922L1549.33 366.606C1543.83 368.3 1538.34 369.991 1532.02 371.941C1538.63 374.818 1544.2 377.236 1549.62 379.594C1566.93 371.457 1563.98 372.326 1576 375.986C1580.73 374.347 1585.33 372.755 1589.85 371.188C1591.42 362.966 1598.41 357.346 1611.51 353.833C1619.76 351.625 1628.04 349.541 1637.71 347.039C1643.87 350.579 1653.17 351.918 1668.78 347.785C1660.84 352.843 1656.27 355.746 1648.89 360.45C1655.66 359.327 1660.18 359.369 1663.24 357.939C1678.87 350.63 1695.63 347.722 1712.37 344.462C1713.05 354.86 1695.74 356.595 1686.33 362.485C1688.66 362.672 1690.53 362.34 1692.33 361.822C1700.74 359.423 1709.09 356.74 1717.57 354.693C1719.68 354.187 1722.2 355.681 1724.54 356.255C1722.93 357.6 1721.59 359.588 1719.66 360.187C1709.27 363.422 1698.81 366.882 1688.23 369.175C1676.16 371.791 1663.93 373.128 1651.78 375.32C1647.84 376.03 1643.92 377.688 1637.72 379.617C1645.56 380.5 1651.15 381.128 1656.61 381.741C1656.19 383.94 1655.87 385.642 1655.14 389.488C1663.28 385.009 1668.92 381.899 1674.57 378.791C1684.38 373.412 1700.68 370.641 1703.29 375.111C1705.9 379.569 1712.41 379.268 1715.69 380.527C1716.87 385.075 1717.79 388.656 1718.57 391.671C1709.9 395.97 1700.78 400.496 1691.65 405.024L1691.7 405.028L1691.69 405.029C1691.65 405.024 1692.15 405.088 1692.15 405.088C1692.13 405.102 1692.1 405.117 1692.08 405.127C1691.98 405.102 1691.87 405.073 1691.78 405.051C1683.45 404.195 1675.11 403.337 1665.8 402.385C1661.63 405.444 1656.73 408.731 1652.49 412.252C1649.27 414.918 1648.37 417.482 1653.73 418.378C1655.7 418.705 1657.44 419.315 1659.29 419.793C1660.07 420.435 1660.86 421.077 1661.64 421.718C1641.65 422.8 1648.07 432.501 1639.85 437.441C1635.59 436.374 1632.21 434.523 1628.14 434.723C1619.61 435.143 1624.75 440.462 1620.21 442.495C1602.25 444.789 1584.58 444.107 1565.5 451.994C1572.64 458.72 1567.85 464.471 1555.39 469.837C1556.89 473.203 1558.22 476.198 1559.43 478.913C1574.21 478.158 1586.65 473.657 1596.9 468.242C1606.95 462.936 1617.39 459.473 1628.18 455.786C1633.78 453.873 1639.22 451.467 1644.35 448.934C1645.76 448.236 1645.8 446.287 1646.72 444.416C1637.2 445.542 1628.74 451.722 1619.02 448.701C1623.22 447.063 1625.72 446.128 1628.16 445.123C1638.17 441.011 1647.23 436.826 1658.53 439.563C1664.74 441.064 1674.5 438.081 1680.55 432.831C1686.09 428.02 1693.41 425.886 1701.11 425.271C1704.87 424.967 1708.27 426.135 1711.83 426.641C1709.34 428.825 1707.41 431.482 1704.26 433.103C1695.41 437.646 1692.33 441.727 1697.15 445.461C1699.14 447.011 1703.44 447.587 1707.15 447.897C1719.81 448.969 1721.76 452.618 1711.82 459.709C1706.51 463.49 1702.23 467.077 1699.61 471.548C1698.18 473.994 1694.37 476.31 1691.42 478.884C1685.94 478.802 1681.19 478.732 1675.55 478.645C1680.32 475.976 1683.8 474.02 1689.9 470.595C1678.18 469.923 1669 469.121 1659.48 469C1656.23 468.961 1651.52 470.093 1648.55 471.615C1638.94 476.52 1630.09 480.223 1621.45 475.377C1620.53 474.864 1617.2 475.488 1615.26 476.133C1607.76 478.629 1600.35 481.33 1592.92 483.967C1592.93 483.972 1592.95 483.976 1592.96 483.985C1592.81 484.027 1592.66 484.069 1592.52 484.111C1592.46 484.13 1592.4 484.153 1592.35 484.171L1592.68 483.878C1588.2 483.761 1583.71 483.64 1581.45 483.581C1571.86 490.039 1562.89 495.169 1555.9 500.999C1546.54 508.812 1535.34 510.912 1525.05 509.484C1514.46 508.012 1509.42 511.873 1503.18 516.357C1504.29 522.441 1512.07 523.809 1518.5 525.966C1525.62 528.356 1525.67 529.784 1518.56 534.634C1512.64 538.676 1506.79 542.746 1500.91 546.806C1506.83 546.481 1511.69 544.76 1516.64 543.264C1523.48 541.189 1530.34 538.847 1537.28 537.385C1571.79 530.103 1604.55 519.738 1634.88 504.354C1639.29 502.118 1644.91 500.287 1649.97 499.414C1656.29 498.328 1661.1 497.104 1665.74 493.26C1670.41 489.395 1677 488.326 1683.65 489.074C1683.62 493.808 1679.33 496.171 1673.06 498.467C1665.17 501.358 1663.6 505.24 1665.29 509.925C1683.99 497.159 1687.84 496.926 1694.31 507.956C1687.14 510.685 1680.42 512.39 1672.53 512.554C1658.92 512.843 1645.01 514.46 1630.92 519.087C1604.24 527.854 1577.44 536.372 1550.65 544.906C1543.47 547.19 1540.52 550.832 1536.79 555.578C1544.01 554.326 1549.79 553.322 1555.31 552.363C1550 554.351 1544.61 556.968 1538.95 558.365C1526.77 561.371 1513.73 568.508 1502.75 562.485C1501.48 561.789 1497.68 562.357 1495.16 562.946C1465.57 569.832 1436.46 577.958 1408.7 589.356C1407.27 589.94 1405.39 590.811 1404.89 591.63C1399.46 600.566 1386.68 602.937 1375.43 605.951C1354.62 611.528 1333.64 616.48 1312.71 621.593C1311.58 621.866 1310.25 621.237 1309.02 621.024C1308.79 620.426 1308.56 619.827 1308.32 619.229C1329.93 616.46 1348.59 609.307 1365.52 599.411C1359.87 600.064 1354.61 601.564 1349.3 602.779C1311.62 611.406 1273.95 620.17 1236.23 628.505C1209.34 634.442 1183 640.907 1160.25 654.652C1163.99 656.912 1167.15 658.823 1171.83 661.652C1166.48 664.039 1162.42 665.745 1158.52 667.617C1155.37 669.139 1150.9 670.692 1149.62 672.511C1142.53 682.561 1130.45 687.132 1115.11 689.246C1109.41 690.031 1103.65 691.553 1097.91 692.74C1105.62 693.412 1112.96 693.01 1120.35 692.028C1130.05 690.738 1139.87 689.525 1149.48 687.328C1168.86 682.903 1188.07 677.523 1207.45 673.168C1216.82 671.061 1226.42 670.384 1235.91 669.06C1211.77 677.874 1187.41 684.657 1162.62 688.643C1130.75 693.771 1098.9 698.202 1067.04 702.837C1051.94 705.031 1036.37 708.313 1021.87 708.796C994.904 709.697 968.482 710.649 941.241 721.331C939.857 721.872 938.053 721.783 936.444 722.052C911.89 726.16 888.173 731.895 866.926 743.91C861.696 746.862 855.046 748.991 848.817 750.999C836.31 755.04 823.278 758.17 811.103 762.684C778.804 774.671 746.838 787.178 714.763 799.511C712.263 800.475 709.622 801.523 707.603 802.843C698.379 808.856 687.39 812.064 676.097 815.104C668.663 817.103 660.891 819.034 654.109 821.971C635.109 830.204 616.571 838.967 597.751 847.418C596.279 848.077 594.043 847.902 590.149 848.338C605.264 836.33 617.374 824.667 638.349 818.118C639.403 817.79 640.649 817.559 641.463 817.07C652.314 810.526 669.507 808.633 675.275 798.067C675.916 796.894 682.053 795.437 685.542 794.982C690.932 794.27 694.858 792.993 697.004 789.708C689.63 788.914 682.822 787.767 675.534 787.506C665.458 787.142 655.092 786.316 644.354 791.765C638.391 794.787 633.848 794.709 628.3 793.351C620.973 791.561 613.166 791.01 602.816 794.695C593.277 798.092 582.49 799.398 572.243 801.498C550.221 806.009 528.169 810.282 506.17 814.974C496.689 817.002 487.462 818.909 478.51 817.921C483.124 816.14 487.737 815.034 492.363 814.023C512.336 809.657 532.328 805.441 552.267 800.886C557.504 799.69 563.712 798.076 567.518 795.579C581.67 786.304 598.488 779.866 614.762 772.768C617.731 771.468 619.993 769.355 624.438 766.372C590.546 769.456 559.751 775.59 528.872 784.293C496.489 793.425 463.884 801.872 431.405 810.711C404.868 817.934 378.359 825.268 351.855 832.605C345.362 834.404 338.927 836.398 331.779 838.501C338.272 829.541 346.613 824.102 360.593 822.81C364.517 822.446 368.881 820.115 374.3 818.256C367.859 815.289 362.933 815.647 356.475 818.274C345.112 822.9 333.267 826.896 321.893 831.513C315.101 834.27 309.123 838.677 302.226 840.585C294.861 842.621 286.845 842.58 279.11 843.459C278.081 843.578 277.037 843.789 274.774 844.152C279.473 837.81 273.907 838.163 266.845 839.816C261.472 841.071 256.14 842.558 248.837 844.447C251.276 839.904 253.316 836.933 254.278 834.014C254.968 831.939 255.521 828.896 253.721 828.195C251.872 827.471 246.374 828.441 243.719 829.771C233.69 834.802 224.59 832.522 215.512 833.224C212.132 833.488 210.119 827.93 207.796 824.901C206.051 822.631 204.809 820.148 202.98 817.173C196.123 817.979 189.501 817.669 186.624 813.113C185.798 811.807 181.832 811.123 178.916 811.243C172.849 811.487 170.861 809.11 170.537 806.428C169.797 800.335 163.709 798.562 155.066 797.16C145.764 795.647 136.453 797.794 126.894 799.2C123.034 799.766 119.164 800.386 115.3 800.985C119.971 797.512 125.014 795.901 129.734 793.907C139.186 789.91 146.205 783.536 142.489 781.117C137.046 777.574 142.093 773.054 142.711 769.201C136.713 768.726 131.646 768.326 127.354 767.989C130.678 763.142 133.3 759.321 136.453 754.717C141.595 753.386 147.928 751.748 152.07 750.676C157.557 744.742 161.943 739.997 166.33 735.256C167.477 735.181 168.625 735.11 169.772 735.036C168.088 731.393 168.444 726.069 164.199 724.535C158.883 722.618 149.797 723.811 141.956 723.653C137.166 713.923 153.374 710.063 163.248 704.818C163.791 698.68 157.798 699.163 150.547 700.67C140.824 702.697 131.085 704.634 121.356 706.594C115.362 707.805 109.931 708.266 105.396 704.02C120.796 699.766 134.412 695.885 148.097 692.258C164.445 687.929 167.122 683.17 155.872 676.582C151.356 680.672 146.939 684.671 141.146 689.914C139.262 687.336 137.462 686.222 137.607 684.85C138.487 676.55 140.02 668.338 137.124 660.502C134.812 654.249 135.056 652.388 123.467 651.403C121.248 651.215 119.352 650.464 117.461 649.842C110.245 647.452 103.095 645.009 94.2146 642.014C95.3852 633.857 81.6876 633.464 71.5098 631.373C74.1268 622.09 74.7729 621.551 62.7439 617.395C56.2377 615.141 59.909 611.145 59.861 607.662C55.0283 607.937 50.9222 608.167 46.691 608.404C46.751 606.413 46.9785 604.823 46.815 603.317C45.8028 593.945 46.8427 594.054 60.57 587.385C74.1058 580.804 88.1685 575.645 102.769 570.865C106.331 569.697 109.451 567.677 112.882 566.174C119.178 563.411 125.347 560.342 131.94 558.118C145.454 553.553 159.247 549.545 172.831 545.114C174.905 544.434 176.48 542.718 178.642 541.242C173.909 540.615 170.457 540.154 167.006 539.697C167.103 539.12 167.199 538.541 167.297 537.969C179.624 534.779 191.95 531.59 206.315 527.874C193.09 526.932 178.004 533.488 170.239 526.198C169.332 525.345 162.696 526.304 159.718 527.595C147.958 532.685 138.015 532.452 127.246 530.223C138.494 521.576 153.357 518.758 166.561 513.823C158.362 515.441 150.447 517.83 142.458 519.46C134.559 521.071 126.589 521.914 118.648 523.101C119.141 522.354 119.638 521.61 120.133 520.868C112.828 516.355 101.876 515.259 86.2841 515.227C101.889 509.528 113.343 505.342 127.916 500.025C117.222 499.479 103.376 504.97 105.157 494.988C109.827 493.085 114.793 491.61 118.669 489.384C137.159 478.753 158.763 471.827 179.002 463.325C197.472 455.571 217.879 450.05 234.856 438.366C227.72 438.646 221.658 438.877 215.593 439.113C219.078 437.184 223.389 436.842 224.985 435.529C233.926 428.145 242.602 430.32 251.448 430.702C256.948 430.937 263.075 432.538 267.885 431.055C283.479 426.25 299.8 421.338 313.409 414.382C320.772 410.623 327.493 407.989 335.221 406.132C341.079 404.728 347.121 404.33 353.018 403.031C367.503 399.843 381.977 396.503 396.386 392.93C398.721 392.354 400.714 390.275 402.867 388.888C402.587 388.375 402.304 387.864 402.019 387.347C388.83 389.562 375.638 391.767 362.854 393.909C366.863 391.142 373.287 388.293 374.715 385.378C377.169 380.359 383.045 378.119 388.822 376.006C395.917 373.405 403.543 371.293 411.014 369.761C445.056 362.775 479.134 356.192 513.175 349.206C531.519 345.444 549.957 341.709 568.082 336.966C586.993 332.021 605.422 325.261 624.339 320.39C653.803 312.808 683.535 306.311 713.092 299.072C764.83 286.408 816.851 276.922 868.778 268.557C906.621 262.464 944.399 255.658 982.213 249.069C993.388 247.119 1004.63 246.329 1015.73 245.444C1021.52 244.986 1026.58 245.157 1027.64 249.763C1028.42 253.148 1034.24 252.194 1037.86 248.463C1039.09 247.207 1040.5 245.845 1040.92 244.572C1044.81 232.933 1062.13 227.777 1073.99 219.492C1081 226.574 1079.95 228.116 1068.37 230.053C1056.63 232.018 1049.39 238.237 1051.55 244.484C1053.3 249.528 1058.97 251.773 1070.36 249.652C1091.31 245.752 1112.48 241.909 1133.09 236.397C1169.32 226.708 1205.2 215.792 1241.2 205.337C1243.8 204.582 1246.24 203.403 1247.9 202.751C1236.84 198.086 1221.53 205.856 1209.37 203.463C1239.84 193.491 1271.46 190.385 1302.17 180.051C1302.85 182.68 1303.36 184.644 1303.82 186.439C1318.61 187.231 1335.34 178.515 1350.04 182.691C1336.78 187.188 1325.05 192.754 1313.35 194.726C1300.31 196.92 1289.04 200.621 1276.91 205.657C1277.77 206.736 1278.51 207.658 1279.28 208.612C1271.88 212.321 1264.81 216.485 1256.97 219.626C1249.3 222.703 1240.85 224.739 1231.92 227.49C1233.78 228.091 1234.47 228.614 1235.26 228.52C1259.37 225.81 1282.88 221.556 1303.63 208.905C1309.68 205.211 1317.05 202.727 1322.55 205.863C1327.84 208.874 1334.26 207.759 1341.46 206.354C1345.01 205.666 1350.89 204.526 1351.77 205.423C1355.82 209.518 1361.63 207.323 1368.34 205.715C1377.4 203.541 1386.65 202.073 1395.81 200.628C1404.51 199.246 1412.72 197.522 1418.62 192.854C1413.27 189.827 1408.66 187.22 1403.6 184.362C1399.35 185.893 1394.84 187.518 1389.61 189.404C1386.9 187.155 1384.4 185.088 1380.8 182.119C1391.73 179.912 1400.25 177.991 1408.77 176.517C1419.55 174.648 1430.36 172.937 1441.1 171.534C1449.68 170.403 1455.04 172.716 1461.81 177.36C1451.73 178.175 1445.34 178.688 1438.42 179.244C1446.19 184.745 1446.54 184.817 1453.06 183.116C1460.44 181.19 1467.83 179.288 1476.07 177.158C1480.1 171.934 1484.12 166.719 1488.5 161.038C1490.23 160.593 1494.68 160.148 1497.19 158.557C1499.05 157.386 1498.39 154.733 1498.92 152.417C1504.56 152.049 1510.27 151.674 1516.65 151.253C1516.09 154.24 1515.63 156.623 1515.2 158.934C1526.95 158.599 1537.67 158.292 1551.38 157.9C1544.63 163.999 1539.84 168.328 1532.5 174.976C1547.62 172.057 1559.15 169.764 1570.69 167.618C1580.23 165.85 1581.13 166.806 1577.02 174.908C1565.41 171.754 1557.85 177.915 1549.96 183.433C1562.02 183.91 1565.23 188.694 1562.9 195.996C1586.2 192.878 1607.59 184.057 1630.99 177.512C1628.32 188.11 1611.03 187.474 1604.86 193.934C1607.34 196.208 1609.82 198.489 1613.32 201.688C1600.47 201.761 1592.79 197.465 1579.92 200.041C1583.08 203.461 1585.29 205.853 1587.43 208.179C1591.72 207.986 1595.77 207.806 1599.45 207.64C1599.65 212.686 1599.83 217.218 1599.99 221.423C1604.65 221.731 1607.99 221.954 1612.24 222.235C1610.09 223.728 1608.98 224.507 1607.85 225.278C1606.32 226.321 1604.78 227.359 1601.24 229.754C1609.22 230.18 1615.62 231.898 1621.46 230.537C1632.58 227.946 1643.52 223.803 1654.26 219.861C1658.38 218.348 1661.75 215.628 1667.25 212.398C1660.78 211.761 1656.95 211.386 1653.12 211.009C1673.6 202.889 1692.69 208.563 1715.32 199.046C1710.22 204.328 1705.94 207.352 1704.67 210.339Z" fill="#D5D5D5"/>
<path d="M533.139 310.593C495.81 318.061 458.462 325.299 421.154 332.988C361.674 345.246 302.158 357.398 243.408 373.986C232.775 376.99 221.917 380.779 211.357 382.238C189.751 385.213 169.511 392.029 148.896 398.143C143.978 399.606 138.858 400.534 133.829 401.705C167.051 382.549 506.466 305.607 540.409 308.732C537.305 309.535 535.23 310.179 533.139 310.593Z" fill="#D5D5D5"/>
<path d="M1004.85 235.128C1003.36 236.219 1000.88 239.209 998.462 239.613C986.669 241.553 974.868 242.927 963.147 244.131C961.786 244.269 959.388 241.762 960.065 241.035C961.469 239.517 964.541 238.295 967.096 237.13C967.76 236.827 969.194 237.051 970.029 237.272C977.731 239.318 983.927 238.04 990.841 232.3C995.521 228.416 1003.99 229.712 1004.85 235.128Z" fill="#D5D5D5"/>
<path d="M644.55 832.01C641.631 838.593 631.771 839.355 625.364 841.917C618.209 844.776 613.899 851.362 603.075 851.452C618.138 842.124 635.502 833.946 644.55 832.01Z" fill="#D5D5D5"/>
<path d="M435.815 842.293C427.703 849.49 419.687 848.271 408.054 847.948C419.266 843.623 426.829 841.004 435.815 842.293Z" fill="#D5D5D5"/>
<path d="M1032.51 233.498C1037.74 230.098 1042.44 227.042 1048.94 222.808C1046.29 231.951 1044.44 233.086 1032.51 233.498Z" fill="#D5D5D5"/>
<path d="M1014.18 221.761C1008.27 222.917 1004.21 223.712 1000.16 224.505C1007.02 218.872 1007.02 218.872 1014.18 221.761Z" fill="#D5D5D5"/>
<path d="M466.757 836.421C460.068 838.152 455.022 839.457 449.976 840.763C449.844 840.055 449.712 839.343 449.58 838.636C454.718 836.703 459.845 833.901 466.757 836.421Z" fill="#D5D5D5"/>
<path d="M680.589 821.961C675.457 823.641 670.322 825.323 665.187 827.004C664.964 826.526 664.743 826.052 664.52 825.574C669.671 823.924 674.822 822.274 679.972 820.62C680.179 821.067 680.382 821.514 680.589 821.961Z" fill="#D5D5D5"/>
</svg>
