<svg width="74" height="86" viewBox="0 0 74 86" fill="none" xmlns="http://www.w3.org/2000/svg">
<g clip-path="url(#clip0_1206_36425)">
<path d="M73.98 64.4V21.47L36.99 0L0 21.47V64.4L36.99 85.87L73.98 64.4Z" fill="#D6720E"/>
<path d="M70.73 62.54V23.46L36.98 3.91L3.23999 23.46V62.54L36.98 82.09L70.73 62.54Z" stroke="white" stroke-width="2" stroke-miterlimit="10"/>
<path d="M37.91 31.03C37.4733 31.0414 37.0453 31.1543 36.66 31.36V35.19C37.01 35.19 37.22 35.19 37.56 35.19C38.78 35.19 38.94 34.64 38.94 33.86V32.03C38.94 31.53 38.75 31.03 37.91 31.03ZM29.8 30.82C28.95 30.82 28.8 31.28 28.8 31.82V32.14H30.88V31.82C30.84 31.32 30.61 30.86 29.8 30.86V30.82ZM14.1 34.82C14.1 35.28 14.31 35.51 14.78 35.51C15.1975 35.4976 15.6057 35.3843 15.97 35.18V34.27H14.85C14.33 34.29 14.1 34.39 14.1 34.84V34.82ZM45.79 31.03C44.94 31.03 44.65 31.49 44.65 32.03V34.13C44.65 34.7 44.94 35.13 45.79 35.13C46.64 35.13 46.93 34.67 46.93 34.13V32.03C46.93 31.53 46.61 31.03 45.79 31.03ZM9.93999 37.15H7.43999V31.15H6.19998V29.08H7.43999V27.84C7.43999 26.15 8.14998 25.14 10.15 25.14H11.81V27.22H10.81C10.03 27.22 9.97998 27.5 9.97998 28.04V29.04H11.86L11.64 31.11H9.97998L9.93999 37.15ZM18.46 37.15H16.38L16.29 36.62C15.5736 37.0256 14.7632 37.236 13.94 37.23C13.621 37.2519 13.301 37.204 13.0025 37.0896C12.7039 36.9752 12.4338 36.7971 12.211 36.5677C11.9883 36.3383 11.8183 36.0631 11.7127 35.7613C11.6072 35.4594 11.5687 35.1382 11.6 34.82C11.6 33.16 12.55 32.57 14.24 32.57H15.97V32.21C15.97 31.37 15.87 31.12 14.56 31.12H12.43L12.64 29.05H14.97C17.83 29.05 18.46 29.95 18.46 32.23V37.15ZM25.53 31.27C24.777 31.1075 24.0102 31.0171 23.24 31C22.12 31 21.79 31.25 21.79 32.2V34.03C21.79 35.03 22.12 35.22 23.24 35.22C24.0105 35.2082 24.7778 35.1177 25.53 34.95V36.95C24.7122 37.1551 23.873 37.2626 23.03 37.27C20.36 37.27 19.29 35.87 19.29 33.85V32.43C19.29 30.43 20.36 28.99 23.03 28.99C23.8734 29.0019 24.7124 29.1127 25.53 29.32V31.27ZM33.33 33.82H28.76V34.03C28.76 35.03 29.1 35.22 30.21 35.22C31.1868 35.2318 32.1621 35.1413 33.12 34.95V36.95C32.1004 37.1839 31.0559 37.2914 30.01 37.27C27.33 37.27 26.27 35.87 26.27 33.85V32.19C26.27 30.42 27.06 28.96 29.8 28.96C32.54 28.96 33.33 30.4 33.33 32.19V33.82ZM41.44 33.82C41.44 35.82 40.88 37.21 37.44 37.21C36.3326 37.2019 35.2283 37.0948 34.14 36.89V25.8L36.63 25.38V29.3C37.2314 29.0919 37.8636 28.9871 38.5 28.99C40.99 28.99 41.41 30.11 41.41 31.9L41.44 33.82ZM49.44 33.87C49.44 35.56 48.74 37.19 45.81 37.19C42.88 37.19 42.17 35.56 42.17 33.87V32.33C42.17 30.64 42.88 29 45.81 29C48.74 29 49.44 30.64 49.44 32.33V33.87ZM57.44 33.87C57.44 35.56 56.74 37.19 53.81 37.19C50.88 37.19 50.17 35.56 50.17 33.87V32.33C50.17 30.64 50.88 29 53.81 29C56.74 29 57.44 30.64 57.44 32.33V33.87ZM65.64 37.1H62.94L60.65 33.3V37.1H58.16V25.8L60.65 25.38V32.72L62.94 29.11H65.61L63.11 33.03L65.64 37.1ZM53.78 31.03C52.93 31.03 52.64 31.49 52.64 32.03V34.13C52.64 34.7 52.93 35.13 53.78 35.13C54.63 35.13 54.92 34.67 54.92 34.13V32.03C54.92 31.53 54.61 31.03 53.78 31.03Z" fill="#3A5897"/>
<path d="M67.03 35.77C67.1827 35.768 67.3326 35.8115 67.4605 35.8949C67.5884 35.9783 67.6887 36.0978 67.7485 36.2383C67.8083 36.3789 67.825 36.534 67.7964 36.684C67.7678 36.834 67.6953 36.9722 67.588 37.0808C67.4808 37.1895 67.3436 37.2639 67.194 37.2944C67.0443 37.3249 66.889 37.3103 66.7477 37.2523C66.6064 37.1943 66.4856 37.0956 66.4005 36.9688C66.3155 36.842 66.27 36.6927 66.27 36.54C66.27 36.3375 66.3497 36.1432 66.492 35.999C66.6342 35.8549 66.8275 35.7726 67.03 35.77ZM67.03 35.89C66.9003 35.884 66.7719 35.917 66.6611 35.9847C66.5503 36.0524 66.4624 36.1516 66.4085 36.2698C66.3547 36.3879 66.3375 36.5194 66.3591 36.6474C66.3807 36.7754 66.4401 36.894 66.5297 36.9879C66.6193 37.0819 66.7349 37.1468 66.8618 37.1744C66.9886 37.2021 67.1208 37.191 67.2413 37.1429C67.3619 37.0947 67.4652 37.0115 67.538 36.904C67.6109 36.7966 67.6499 36.6698 67.65 36.54C67.6527 36.3719 67.5892 36.2096 67.4732 36.088C67.3572 35.9663 67.198 35.8952 67.03 35.89ZM66.89 36.99H66.75V36.13H66.99C67.0852 36.1234 67.18 36.148 67.26 36.2C67.2869 36.219 67.3085 36.2446 67.3225 36.2744C67.3365 36.3042 67.3426 36.3372 67.34 36.37C67.3391 36.4189 67.3218 36.4661 67.291 36.5042C67.2603 36.5422 67.2177 36.5689 67.17 36.58C67.24 36.58 67.3 36.66 67.31 36.79C67.3149 36.8635 67.3354 36.935 67.37 37H67.22C67.1891 36.9307 67.1721 36.8559 67.17 36.78C67.169 36.7571 67.163 36.7346 67.1526 36.7142C67.1421 36.6937 67.1273 36.6758 67.1093 36.6615C67.0913 36.6473 67.0704 36.6371 67.0481 36.6317C67.0258 36.6263 67.0026 36.6257 66.98 36.63H66.89V36.99ZM66.89 36.51H66.98C67.1 36.51 67.19 36.51 67.19 36.37C67.19 36.23 67.14 36.22 66.98 36.22H66.89V36.51Z" fill="#3A5897"/>
<path d="M42.75 23.58C42.9383 23.58 43.1189 23.5052 43.252 23.372C43.3852 23.2389 43.46 23.0583 43.46 22.87V11.35C43.46 11.1617 43.3852 10.9811 43.252 10.848C43.1189 10.7148 42.9383 10.64 42.75 10.64H31.26C31.0717 10.64 30.8911 10.7148 30.7579 10.848C30.6248 10.9811 30.55 11.1617 30.55 11.35V22.87C30.55 23.0583 30.6248 23.2389 30.7579 23.372C30.8911 23.5052 31.0717 23.58 31.26 23.58H42.75Z" fill="#3A5897"/>
<path d="M39.35 23.58V18.58H41L41.25 16.65H39.35V15.42C39.35 14.85 39.51 14.48 40.3 14.48H41.3V12.74C41.12 12.74 40.52 12.67 39.82 12.67C39.4834 12.6479 39.1461 12.6995 38.8315 12.8211C38.5169 12.9427 38.2326 13.1315 37.9984 13.3743C37.7642 13.617 37.5858 13.9079 37.4755 14.2267C37.3653 14.5455 37.3259 14.8844 37.36 15.22V16.65H35.71V18.58H37.36V23.58H39.35Z" fill="white"/>
<path d="M9.30998 41.88H11.68C11.68 41.88 11.91 41.88 11.98 41.51V40.44C11.9648 40.3503 11.9202 40.2682 11.8532 40.2067C11.7862 40.1451 11.7006 40.1076 11.61 40.1H7.80998C7.72718 40.1269 7.6548 40.1789 7.60284 40.2488C7.55089 40.3187 7.52194 40.403 7.51999 40.49V44.31C7.51999 44.31 7.51999 44.62 7.76999 44.67L10.27 45.52V47.33H9.26999V47.03C9.26019 46.9522 9.22219 46.8808 9.16321 46.8292C9.10422 46.7776 9.02835 46.7494 8.94998 46.75H7.72998C7.72998 46.75 7.44998 46.75 7.44998 47.05V47.98C7.44998 47.98 7.70998 49.13 8.66998 49.16H10.87C11.1816 49.1304 11.4728 48.9918 11.6922 48.7686C11.9117 48.5455 12.0455 48.2521 12.07 47.94V44.37C12.0484 44.3153 12.0146 44.2662 11.9713 44.2263C11.928 44.1865 11.8763 44.157 11.82 44.14L9.34999 43.29L9.30998 41.88Z" fill="white"/>
<path d="M18.37 42.66V43.03C18.37 43.03 18.43 43.35 18.66 43.34H19.99C19.99 43.34 20.18 43.34 20.2 43.04V41.45C20.191 41.2639 20.1453 41.0814 20.0654 40.913C19.9855 40.7447 19.873 40.5938 19.7345 40.4692C19.5959 40.3446 19.434 40.2487 19.2582 40.1871C19.0823 40.1254 18.896 40.0992 18.71 40.11H16.86C16.5286 40.1437 16.2194 40.292 15.9857 40.5294C15.7521 40.7667 15.6086 41.0782 15.58 41.41V44.52C15.582 44.631 15.625 44.7373 15.7007 44.8185C15.7764 44.8998 15.8794 44.9501 15.99 44.96L18.37 45.79V47.14C18.3676 47.1761 18.3578 47.2113 18.3411 47.2433C18.3244 47.2754 18.3012 47.3036 18.2729 47.3262C18.2447 47.3488 18.2121 47.3652 18.1771 47.3745C18.1422 47.3838 18.1057 47.3856 18.07 47.38H17.53C17.53 47.38 17.34 47.38 17.36 47.11V46.23C17.36 46.23 17.36 45.9 16.91 45.89H15.91C15.91 45.89 15.59 45.89 15.58 46.15V47.86C15.5961 48.1759 15.7269 48.4751 15.9478 48.7015C16.1687 48.928 16.4646 49.0661 16.78 49.09H18.96C19.2758 49.0482 19.5689 48.9028 19.7933 48.6766C20.0177 48.4504 20.1607 48.1562 20.2 47.84V44.75C20.2 44.75 20.2 44.32 19.35 44.16L17.35 43.48V42.11C17.35 42.11 17.35 41.86 17.55 41.84H18.15C18.15 41.84 18.43 41.84 18.38 42.05L18.37 42.66Z" fill="white"/>
<path d="M21.92 41.89V48.89C21.9186 48.921 21.9236 48.952 21.9345 48.9811C21.9455 49.0102 21.9622 49.0367 21.9837 49.0591C22.0052 49.0816 22.031 49.0994 22.0596 49.1116C22.0882 49.1238 22.1189 49.13 22.15 49.13H23.5C23.5328 49.1316 23.5655 49.1261 23.596 49.1139C23.6265 49.1018 23.6541 49.0832 23.6768 49.0595C23.6995 49.0359 23.7169 49.0076 23.7278 48.9766C23.7387 48.9456 23.7429 48.9127 23.74 48.88V41.88H24.93C24.93 41.88 25.14 41.88 25.14 41.64V40.35C25.14 40.35 25.14 40.12 24.92 40.12H20.72C20.72 40.12 20.51 40.12 20.51 40.36V41.59C20.51 41.59 20.46 41.86 20.78 41.86L21.92 41.89Z" fill="white"/>
<path d="M51.27 41.89V48.89C51.2686 48.921 51.2736 48.952 51.2845 48.9811C51.2955 49.0102 51.3122 49.0367 51.3337 49.0591C51.3552 49.0816 51.381 49.0994 51.4096 49.1116C51.4382 49.1238 51.4689 49.13 51.5 49.13H52.85C52.8828 49.1316 52.9155 49.1261 52.946 49.1139C52.9765 49.1018 53.0041 49.0832 53.0268 49.0595C53.0495 49.0359 53.0669 49.0076 53.0778 48.9766C53.0887 48.9456 53.0929 48.9127 53.09 48.88V41.88H54.28C54.28 41.88 54.49 41.88 54.49 41.64V40.35C54.49 40.35 54.49 40.12 54.27 40.12H50.07C50.07 40.12 49.86 40.12 49.86 40.36V41.59C49.86 41.59 49.86 41.86 50.13 41.86L51.27 41.89Z" fill="white"/>
<path d="M30.43 48.64L28.61 40.33C28.61 40.33 28.55 40.13 28.25 40.13H26.74C26.74 40.13 26.48 40.13 26.4 40.45L24.61 48.78C24.61 48.78 24.5 49.11 24.82 49.12H26.08C26.1588 49.1263 26.2371 49.1032 26.2999 49.0552C26.3626 49.0072 26.4054 48.9377 26.42 48.86L26.66 47.41H28.32L28.62 48.89C28.6315 48.9536 28.6647 49.0113 28.7139 49.0532C28.7631 49.0951 28.8254 49.1187 28.89 49.12H30.24C30.24 49.12 30.52 49.11 30.43 48.64ZM27.06 45.82L27.54 43.18L28.03 45.82H27.06Z" fill="white"/>
<path d="M50.26 48.64L48.48 40.33C48.48 40.33 48.43 40.13 48.13 40.13H46.61C46.61 40.13 46.36 40.13 46.28 40.46L44.48 48.79C44.48 48.79 44.37 49.12 44.7 49.12H45.96C46.0381 49.1285 46.1164 49.106 46.1781 49.0574C46.2398 49.0088 46.28 48.9379 46.29 48.86L46.54 47.41H48.2L48.5 48.89C48.5075 48.9554 48.5396 49.0155 48.5897 49.0582C48.6398 49.1009 48.7043 49.123 48.77 49.12H50.12C50.12 49.12 50.36 49.11 50.26 48.64ZM46.9 45.82L47.38 43.19L47.87 45.82H46.9Z" fill="white"/>
<path d="M35.14 46.03C35.3413 45.907 35.5129 45.741 35.6426 45.544C35.7723 45.3469 35.8567 45.1236 35.89 44.89V41.54C35.8903 41.1842 35.7532 40.842 35.5072 40.5848C35.2613 40.3277 34.9255 40.1755 34.57 40.16H31.34C31.03 40.16 31.11 40.64 31.11 40.64V48.84C31.11 49.22 31.36 49.16 31.36 49.16H32.74C32.7729 49.1638 32.8062 49.1598 32.8373 49.1482C32.8683 49.1367 32.8962 49.1179 32.9187 49.0936C32.9411 49.0692 32.9574 49.0399 32.9663 49.0079C32.9753 48.976 32.9765 48.9425 32.97 48.91V46.25H33.38C33.38 46.25 34.03 48.7 34.11 48.95C34.19 49.2 34.38 49.16 34.38 49.16H35.56C35.6034 49.1671 35.6478 49.1654 35.6905 49.1551C35.7332 49.1448 35.7735 49.1261 35.8089 49.1C35.8443 49.0739 35.8741 49.041 35.8966 49.0032C35.9192 48.9654 35.9339 48.9236 35.94 48.88L35.89 48.69L35.14 46.03ZM34.06 44.29C34.0613 44.3158 34.0574 44.3416 34.0485 44.3658C34.0395 44.39 34.0258 44.4121 34.008 44.4309C33.9902 44.4496 33.9688 44.4645 33.9451 44.4746C33.9213 44.4848 33.8958 44.49 33.87 44.49H32.87V41.89H33.87C33.87 41.89 34.06 41.89 34.07 42.11L34.06 44.29Z" fill="white"/>
<path d="M43.49 46.03C43.6913 45.907 43.863 45.741 43.9926 45.544C44.1223 45.3469 44.2068 45.1236 44.24 44.89V41.54C44.2378 41.1832 44.0984 40.841 43.8509 40.5841C43.6033 40.3272 43.2664 40.1754 42.91 40.16H39.68C39.38 40.16 39.46 40.64 39.46 40.64V48.84C39.46 49.22 39.71 49.16 39.71 49.16H41.08C41.1129 49.1638 41.1462 49.1598 41.1773 49.1482C41.2083 49.1367 41.2362 49.1179 41.2587 49.0936C41.2811 49.0692 41.2974 49.0399 41.3064 49.0079C41.3153 48.976 41.3165 48.9425 41.31 48.91V46.25H41.71C41.71 46.25 42.37 48.7 42.45 48.95C42.53 49.2 42.72 49.16 42.72 49.16H43.89C44.26 49.16 44.28 48.88 44.28 48.88V48.69L43.49 46.03ZM42.41 44.29C42.4114 44.3158 42.4074 44.3416 42.3985 44.3658C42.3896 44.39 42.3758 44.4121 42.358 44.4309C42.3402 44.4496 42.3188 44.4645 42.2951 44.4746C42.2713 44.4848 42.2458 44.49 42.22 44.49H41.22V41.89H42.22C42.22 41.89 42.41 41.89 42.42 42.11L42.41 44.29Z" fill="white"/>
<path d="M55.04 40.86V40.38C55.0355 40.3478 55.0382 40.3151 55.0479 40.2841C55.0576 40.2531 55.074 40.2246 55.096 40.2007C55.118 40.1768 55.145 40.1581 55.1751 40.1459C55.2052 40.1336 55.2376 40.1282 55.27 40.13H56.61C56.61 40.13 56.82 40.13 56.82 40.54V48.78C56.82 48.78 56.82 49.14 56.5 49.13H55.26C55.26 49.13 55.04 49.18 55.04 48.84V40.86Z" fill="white"/>
<path d="M57.61 48.39V48.89C57.61 48.89 57.61 49.14 57.92 49.13H59.18C59.18 49.13 59.39 49.13 59.39 48.76V45.15L60.77 48.9C60.77 48.9 60.77 49.14 61.17 49.13H62.29C62.29 49.13 62.55 49.13 62.55 48.81V40.39C62.55 40.39 62.55 40.13 62.16 40.13H60.91C60.91 40.13 60.76 40.13 60.76 40.4V44.16L59.35 40.33C59.3308 40.275 59.2959 40.2268 59.2498 40.1913C59.2036 40.1558 59.1481 40.1345 59.09 40.13H57.75C57.75 40.13 57.61 40.18 57.6 40.43L57.61 48.39Z" fill="white"/>
<path d="M66.41 42.47V42.09C66.41 42.09 66.41 41.86 66.02 41.87H65.29C65.29 41.87 65.08 41.87 65.09 42.21V47.14C65.09 47.14 65.09 47.4 65.31 47.4H66.25C66.25 47.4 66.41 47.4 66.41 47.11V45.82H65.93C65.93 45.82 65.67 45.82 65.67 45.42V44.34C65.6776 44.256 65.7171 44.1781 65.7803 44.1224C65.8435 44.0666 65.9257 44.0371 66.01 44.04H67.8C67.8 44.04 68.19 44.04 68.19 44.34V47.48C68.2147 47.8608 68.1006 48.2377 67.869 48.541C67.6374 48.8443 67.3039 49.0535 66.93 49.13H64.61C64.2605 49.0748 63.9409 48.9001 63.7057 48.6357C63.4705 48.3713 63.3342 48.0336 63.32 47.68V41.51C63.32 41.51 63.52 40.12 64.64 40.13H66.84C66.84 40.13 68.14 40.13 68.22 41.24V43.03C68.2024 43.1051 68.1605 43.1722 68.1009 43.221C68.0412 43.2699 67.9671 43.2976 67.89 43.3H66.71C66.71 43.3 66.42 43.24 66.4 42.99C66.38 42.74 66.41 42.47 66.41 42.47Z" fill="white"/>
<path d="M3.07999 53.21L3.23998 62.54L36.99 82.09L70.73 62.54L70.9 53.21H3.07999ZM11.08 62.75L7.93999 64.46L8.52998 60.81L5.92999 58.12L9.48999 57.57L11.08 54.23L12.67 57.54L16.24 58.12L13.68 60.73L14.26 64.46L11.08 62.75ZM23.4 68.24L20.23 66.53L17.09 68.24L17.67 64.58L15.07 61.9L18.64 61.35L20.23 58L21.81 61.31L25.38 61.9L22.82 64.5L23.4 68.24ZM42.99 76.24L36.38 72.73L29.86 76.24L31.07 68.75L25.67 63.25L33.08 62.13L36.38 55.28L39.68 62.05L47.09 63.25L41.78 68.59L42.99 76.24ZM55.43 68.24L52.25 66.53L49.12 68.24L49.7 64.58L47.1 61.9L50.66 61.35L52.25 58L53.84 61.31L57.41 61.9L54.85 64.5L55.43 68.24ZM65.43 64.46L62.25 62.75L59.12 64.46L59.7 60.81L57.1 58.12L60.67 57.57L62.25 54.23L63.84 57.54L67.41 58.12L64.85 60.73L65.43 64.46Z" fill="white"/>
</g>
<defs>
<clipPath id="clip0_1206_36425">
<rect width="73.98" height="85.87" fill="white"/>
</clipPath>
</defs>
</svg>
