<svg width="74" height="86" viewBox="0 0 74 86" fill="none" xmlns="http://www.w3.org/2000/svg">
<g clip-path="url(#clip0_1206_36362)">
<path d="M73.98 64.4V21.47L36.99 0L0 21.47V64.4L36.99 85.87L73.98 64.4Z" fill="#1B3C52"/>
<path d="M70.73 62.54V23.46L36.98 3.91L3.23999 23.46V62.54L36.98 82.09L70.73 62.54Z" stroke="white" stroke-width="2" stroke-miterlimit="10"/>
<path d="M9.31001 41.88H11.68C11.68 41.88 11.91 41.88 11.98 41.51V40.44C11.9648 40.3503 11.9202 40.2682 11.8532 40.2067C11.7862 40.1451 11.7007 40.1076 11.61 40.1H7.81001C7.72721 40.1269 7.65483 40.1789 7.60287 40.2488C7.55092 40.3187 7.52197 40.403 7.52002 40.49V44.31C7.52002 44.31 7.52002 44.62 7.77002 44.67L10.27 45.52V47.33H9.27002V47.03C9.26023 46.9522 9.22222 46.8808 9.16324 46.8292C9.10425 46.7776 9.02839 46.7494 8.95001 46.75H7.73001C7.73001 46.75 7.45001 46.75 7.45001 47.05V47.98C7.45001 47.98 7.71001 49.13 8.67001 49.16H10.87C11.1816 49.1304 11.4728 48.9918 11.6923 48.7686C11.9118 48.5455 12.0455 48.2521 12.07 47.94V44.37C12.0484 44.3153 12.0147 44.2662 11.9714 44.2263C11.9281 44.1865 11.8763 44.157 11.82 44.14L9.35002 43.29L9.31001 41.88Z" fill="white"/>
<path d="M18.37 42.66V43.03C18.37 43.03 18.43 43.35 18.66 43.34H19.99C19.99 43.34 20.18 43.34 20.2 43.04V41.45C20.1911 41.2639 20.1453 41.0814 20.0654 40.913C19.9855 40.7447 19.8731 40.5938 19.7345 40.4692C19.5959 40.3446 19.4341 40.2487 19.2582 40.1871C19.0824 40.1254 18.8961 40.0992 18.71 40.11H16.86C16.5287 40.1437 16.2195 40.292 15.9858 40.5294C15.7521 40.7667 15.6086 41.0782 15.58 41.41V44.52C15.582 44.631 15.625 44.7373 15.7007 44.8185C15.7764 44.8998 15.8794 44.9501 15.99 44.96L18.37 45.79V47.14C18.3677 47.1761 18.3578 47.2113 18.3411 47.2433C18.3244 47.2754 18.3012 47.3036 18.273 47.3262C18.2447 47.3488 18.2121 47.3652 18.1772 47.3745C18.1422 47.3838 18.1057 47.3856 18.07 47.38H17.53C17.53 47.38 17.34 47.38 17.36 47.11V46.23C17.36 46.23 17.36 45.9 16.91 45.89H15.91C15.91 45.89 15.59 45.89 15.58 46.15V47.86C15.5961 48.1759 15.7269 48.4751 15.9478 48.7015C16.1687 48.928 16.4646 49.0661 16.78 49.09H18.96C19.2759 49.0482 19.5689 48.9028 19.7933 48.6766C20.0177 48.4504 20.1607 48.1562 20.2 47.84V44.75C20.2 44.75 20.2 44.32 19.35 44.16L17.35 43.48V42.11C17.35 42.11 17.35 41.86 17.55 41.84H18.15C18.15 41.84 18.43 41.84 18.38 42.05L18.37 42.66Z" fill="white"/>
<path d="M21.92 41.89V48.89C21.9186 48.921 21.9236 48.952 21.9345 48.9811C21.9455 49.0102 21.9622 49.0367 21.9837 49.0591C22.0052 49.0816 22.031 49.0994 22.0596 49.1116C22.0882 49.1238 22.1189 49.13 22.15 49.13H23.5C23.5328 49.1316 23.5655 49.1261 23.596 49.1139C23.6265 49.1018 23.6541 49.0832 23.6768 49.0595C23.6995 49.0359 23.7169 49.0076 23.7278 48.9766C23.7387 48.9456 23.7429 48.9127 23.74 48.88V41.88H24.93C24.93 41.88 25.14 41.88 25.14 41.64V40.35C25.14 40.35 25.14 40.12 24.92 40.12H20.72C20.72 40.12 20.51 40.12 20.51 40.36V41.59C20.51 41.59 20.46 41.86 20.78 41.86L21.92 41.89Z" fill="white"/>
<path d="M51.27 41.89V48.89C51.2686 48.921 51.2736 48.952 51.2845 48.9811C51.2955 49.0102 51.3122 49.0367 51.3337 49.0591C51.3552 49.0816 51.381 49.0994 51.4096 49.1116C51.4382 49.1238 51.4689 49.13 51.5 49.13H52.85C52.8828 49.1316 52.9155 49.1261 52.946 49.1139C52.9765 49.1018 53.0041 49.0832 53.0268 49.0595C53.0495 49.0359 53.0669 49.0076 53.0778 48.9766C53.0887 48.9456 53.0929 48.9127 53.09 48.88V41.88H54.28C54.28 41.88 54.49 41.88 54.49 41.64V40.35C54.49 40.35 54.49 40.12 54.27 40.12H50.07C50.07 40.12 49.86 40.12 49.86 40.36V41.59C49.86 41.59 49.86 41.86 50.13 41.86L51.27 41.89Z" fill="white"/>
<path d="M30.43 48.64L28.61 40.33C28.61 40.33 28.55 40.13 28.25 40.13H26.74C26.74 40.13 26.48 40.13 26.4 40.45L24.61 48.78C24.61 48.78 24.5 49.11 24.82 49.12H26.08C26.1588 49.1263 26.2371 49.1032 26.2999 49.0552C26.3626 49.0072 26.4054 48.9377 26.42 48.86L26.66 47.41H28.32L28.62 48.89C28.6315 48.9536 28.6647 49.0113 28.7139 49.0532C28.7631 49.0951 28.8254 49.1187 28.89 49.12H30.24C30.24 49.12 30.52 49.11 30.43 48.64ZM27.06 45.82L27.54 43.18L28.03 45.82H27.06Z" fill="white"/>
<path d="M50.26 48.64L48.48 40.33C48.48 40.33 48.43 40.13 48.13 40.13H46.61C46.61 40.13 46.36 40.13 46.28 40.46L44.48 48.79C44.48 48.79 44.37 49.12 44.7 49.12H45.96C46.0381 49.1285 46.1164 49.106 46.1781 49.0574C46.2398 49.0088 46.28 48.9379 46.29 48.86L46.54 47.41H48.2L48.5 48.89C48.5075 48.9554 48.5396 49.0155 48.5897 49.0582C48.6398 49.1009 48.7043 49.123 48.77 49.12H50.12C50.12 49.12 50.36 49.11 50.26 48.64ZM46.9 45.82L47.38 43.19L47.87 45.82H46.9Z" fill="white"/>
<path d="M35.14 46.03C35.3413 45.907 35.5129 45.741 35.6426 45.544C35.7723 45.3469 35.8567 45.1236 35.89 44.89V41.54C35.8903 41.1842 35.7532 40.842 35.5072 40.5848C35.2613 40.3277 34.9255 40.1755 34.57 40.16H31.34C31.03 40.16 31.11 40.64 31.11 40.64V48.84C31.11 49.22 31.36 49.16 31.36 49.16H32.74C32.7729 49.1638 32.8062 49.1598 32.8373 49.1482C32.8683 49.1367 32.8962 49.1179 32.9187 49.0936C32.9411 49.0692 32.9574 49.0399 32.9663 49.0079C32.9753 48.976 32.9765 48.9425 32.97 48.91V46.25H33.38C33.38 46.25 34.03 48.7 34.11 48.95C34.19 49.2 34.38 49.16 34.38 49.16H35.56C35.6034 49.1671 35.6478 49.1654 35.6905 49.1551C35.7332 49.1448 35.7735 49.1261 35.8089 49.1C35.8443 49.0739 35.8741 49.041 35.8966 49.0032C35.9192 48.9654 35.9339 48.9236 35.94 48.88L35.89 48.69L35.14 46.03ZM34.06 44.29C34.0613 44.3158 34.0574 44.3416 34.0485 44.3658C34.0395 44.39 34.0258 44.4121 34.008 44.4309C33.9902 44.4496 33.9688 44.4645 33.9451 44.4746C33.9213 44.4848 33.8958 44.49 33.87 44.49H32.87V41.89H33.87C33.87 41.89 34.06 41.89 34.07 42.11L34.06 44.29Z" fill="white"/>
<path d="M43.49 46.03C43.6913 45.907 43.863 45.741 43.9926 45.544C44.1223 45.3469 44.2068 45.1236 44.24 44.89V41.54C44.2378 41.1832 44.0984 40.841 43.8509 40.5841C43.6033 40.3272 43.2664 40.1754 42.91 40.16H39.68C39.38 40.16 39.46 40.64 39.46 40.64V48.84C39.46 49.22 39.71 49.16 39.71 49.16H41.08C41.1129 49.1638 41.1462 49.1598 41.1773 49.1482C41.2083 49.1367 41.2362 49.1179 41.2587 49.0936C41.2811 49.0692 41.2974 49.0399 41.3064 49.0079C41.3153 48.976 41.3165 48.9425 41.31 48.91V46.25H41.71C41.71 46.25 42.37 48.7 42.45 48.95C42.53 49.2 42.72 49.16 42.72 49.16H43.89C44.26 49.16 44.28 48.88 44.28 48.88V48.69L43.49 46.03ZM42.41 44.29C42.4114 44.3158 42.4074 44.3416 42.3985 44.3658C42.3896 44.39 42.3758 44.4121 42.358 44.4309C42.3402 44.4496 42.3188 44.4645 42.2951 44.4746C42.2713 44.4848 42.2458 44.49 42.22 44.49H41.22V41.89H42.22C42.22 41.89 42.41 41.89 42.42 42.11L42.41 44.29Z" fill="white"/>
<path d="M55.04 40.86V40.38C55.0355 40.3478 55.0382 40.3151 55.0479 40.2841C55.0576 40.2531 55.074 40.2246 55.096 40.2007C55.118 40.1768 55.145 40.1581 55.1751 40.1459C55.2052 40.1336 55.2376 40.1282 55.27 40.13H56.61C56.61 40.13 56.82 40.13 56.82 40.54V48.78C56.82 48.78 56.82 49.14 56.5 49.13H55.26C55.26 49.13 55.04 49.18 55.04 48.84V40.86Z" fill="white"/>
<path d="M57.61 48.39V48.89C57.61 48.89 57.61 49.14 57.92 49.13H59.18C59.18 49.13 59.39 49.13 59.39 48.76V45.15L60.77 48.9C60.77 48.9 60.77 49.14 61.17 49.13H62.29C62.29 49.13 62.55 49.13 62.55 48.81V40.39C62.55 40.39 62.55 40.13 62.16 40.13H60.91C60.91 40.13 60.76 40.13 60.76 40.4V44.16L59.35 40.33C59.3307 40.275 59.2959 40.2268 59.2497 40.1913C59.2036 40.1558 59.148 40.1345 59.09 40.13H57.75C57.75 40.13 57.61 40.18 57.6 40.43L57.61 48.39Z" fill="white"/>
<path d="M66.41 42.47V42.09C66.41 42.09 66.41 41.86 66.02 41.87H65.29C65.29 41.87 65.08 41.87 65.09 42.21V47.14C65.09 47.14 65.09 47.4 65.31 47.4H66.25C66.25 47.4 66.41 47.4 66.41 47.11V45.82H65.93C65.93 45.82 65.67 45.82 65.67 45.42V44.34C65.6776 44.256 65.7171 44.1781 65.7803 44.1224C65.8435 44.0666 65.9257 44.0371 66.01 44.04H67.8C67.8 44.04 68.19 44.04 68.19 44.34V47.48C68.2147 47.8608 68.1006 48.2377 67.869 48.541C67.6374 48.8443 67.3039 49.0535 66.93 49.13H64.61C64.2605 49.0748 63.9409 48.9001 63.7057 48.6357C63.4705 48.3713 63.3342 48.0336 63.32 47.68V41.51C63.32 41.51 63.52 40.12 64.64 40.13H66.84C66.84 40.13 68.14 40.13 68.22 41.24V43.03C68.2024 43.1051 68.1605 43.1722 68.1009 43.221C68.0412 43.2699 67.9671 43.2976 67.89 43.3H66.71C66.71 43.3 66.42 43.24 66.4 42.99C66.38 42.74 66.41 42.47 66.41 42.47Z" fill="white"/>
<path d="M3.08002 53.21L3.24001 62.54L36.99 82.09L70.73 62.54L70.9 53.21H3.08002ZM11.08 62.75L7.94002 64.46L8.53001 60.81L5.93002 58.12L9.49002 57.57L11.08 54.23L12.67 57.54L16.24 58.12L13.68 60.73L14.26 64.46L11.08 62.75ZM23.4 68.24L20.23 66.53L17.09 68.24L17.67 64.58L15.07 61.9L18.64 61.35L20.23 58L21.81 61.31L25.38 61.9L22.82 64.5L23.4 68.24ZM42.99 76.24L36.38 72.73L29.86 76.24L31.07 68.75L25.67 63.25L33.08 62.13L36.38 55.28L39.68 62.05L47.09 63.25L41.78 68.59L42.99 76.24ZM55.43 68.24L52.25 66.53L49.12 68.24L49.7 64.58L47.1 61.9L50.66 61.35L52.25 58L53.84 61.31L57.41 61.9L54.85 64.5L55.43 68.24ZM65.43 64.46L62.25 62.75L59.12 64.46L59.7 60.81L57.1 58.12L60.67 57.57L62.25 54.23L63.84 57.54L67.41 58.12L64.85 60.73L65.43 64.46Z" fill="white"/>
<path d="M49.86 23.81C49.8605 22.9793 49.7936 22.1499 49.66 21.33H37.27V26.27H44.36C44.2035 27.0652 43.8904 27.8213 43.4389 28.4942C42.9874 29.1672 42.4065 29.7437 41.73 30.19V33.48H45.96C47.2497 32.2302 48.2631 30.7239 48.9349 29.0583C49.6066 27.3928 49.9218 25.6049 49.86 23.81Z" fill="#4285F4"/>
<path d="M37.27 36.67C40.468 36.7569 43.5778 35.6154 45.96 33.48L41.73 30.19C40.7126 30.847 39.5583 31.2626 38.3556 31.4048C37.1528 31.5471 35.9335 31.4124 34.7908 31.0109C33.6481 30.6094 32.6125 29.9519 31.763 29.0885C30.9136 28.2252 30.2729 27.179 29.89 26.03H25.53V29.41C26.62 31.5907 28.2955 33.425 30.369 34.7072C32.4425 35.9895 34.8321 36.6691 37.27 36.67Z" fill="#34A853"/>
<path d="M29.89 26.03C29.6164 25.2215 29.4779 24.3735 29.48 23.52C29.4819 22.6668 29.6203 21.8195 29.89 21.01V17.62H25.53C24.6009 19.4462 24.1166 21.4661 24.1166 23.515C24.1166 25.5639 24.6009 27.5838 25.53 29.41L29.89 26.03Z" fill="#FBBC05"/>
<path d="M37.27 15.57C39.1336 15.5596 40.9277 16.2772 42.27 17.57L46.02 13.83C43.6481 11.585 40.4956 10.3512 37.23 10.39C34.792 10.3909 32.4025 11.0705 30.329 12.3528C28.2555 13.635 26.5799 15.4693 25.49 17.65L29.85 21.04C30.3533 19.4631 31.3415 18.0853 32.6739 17.103C34.0063 16.1208 35.6148 15.5843 37.27 15.57Z" fill="#EA4335"/>
</g>
<defs>
<clipPath id="clip0_1206_36362">
<rect width="73.98" height="85.87" fill="white"/>
</clipPath>
</defs>
</svg>
