<svg width="25" height="25" viewBox="0 0 25 25" fill="none" xmlns="http://www.w3.org/2000/svg">
<g clip-path="url(#clip0_114_6154)">
<path d="M17.2501 0H7.95007C3.67052 0 0.200073 3.47045 0.200073 7.75V17.05C0.200073 21.3296 3.67052 24.8 7.95007 24.8H17.2501C21.5296 24.8 25.0001 21.3296 25.0001 17.05V7.75C25.0001 3.47045 21.5296 0 17.2501 0ZM22.6751 17.05C22.6751 20.0415 20.2416 22.475 17.2501 22.475H7.95007C4.95857 22.475 2.52507 20.0415 2.52507 17.05V7.75C2.52507 4.7585 4.95857 2.325 7.95007 2.325H17.2501C20.2416 2.325 22.6751 4.7585 22.6751 7.75V17.05Z" fill="#333C30"/>
<path d="M12.6 6.2C9.17607 6.2 6.40002 8.97605 6.40002 12.4C6.40002 15.8239 9.17607 18.6 12.6 18.6C16.024 18.6 18.8 15.8239 18.8 12.4C18.8 8.97605 16.024 6.2 12.6 6.2ZM12.6 16.275C10.4641 16.275 8.72502 14.5359 8.72502 12.4C8.72502 10.2625 10.4641 8.525 12.6 8.525C14.7359 8.525 16.475 10.2625 16.475 12.4C16.475 14.5359 14.7359 16.275 12.6 16.275Z" fill="#333C30"/>
<path d="M19.2651 6.56133C19.7214 6.56133 20.0913 6.19145 20.0913 5.73518C20.0913 5.27891 19.7214 4.90903 19.2651 4.90903C18.8088 4.90903 18.439 5.27891 18.439 5.73518C18.439 6.19145 18.8088 6.56133 19.2651 6.56133Z" fill="#333C30"/>
</g>
<defs>
<clipPath id="clip0_114_6154">
<rect width="24.8" height="24.8" fill="white" transform="translate(0.200073)"/>
</clipPath>
</defs>
</svg>
