<svg width="17" height="17" viewBox="0 0 17 17" fill="none" xmlns="http://www.w3.org/2000/svg">
<path d="M12.5069 11.7986C11.9341 12.3714 10.8216 13.4839 9.9139 14.3916C9.13286 15.1727 7.86685 15.1724 7.0858 14.3913C6.19498 13.5005 5.10193 12.4075 4.49307 11.7986C2.2801 9.58563 2.2801 5.9977 4.49307 3.78473C6.70604 1.57176 10.294 1.57176 12.5069 3.78473C14.7199 5.9977 14.7199 9.58563 12.5069 11.7986Z" stroke="#404040" stroke-linecap="round" stroke-linejoin="round"/>
<path d="M10.625 7.79167C10.625 8.96527 9.67362 9.91667 8.50001 9.91667C7.3264 9.91667 6.37501 8.96527 6.37501 7.79167C6.37501 6.61806 7.3264 5.66667 8.50001 5.66667C9.67362 5.66667 10.625 6.61806 10.625 7.79167Z" stroke="#404040" stroke-linecap="round" stroke-linejoin="round"/>
</svg>
