<svg width="17" height="17" viewBox="0 0 17 17" fill="none" xmlns="http://www.w3.org/2000/svg">
<path d="M2.125 3.54167C2.125 2.75926 2.75926 2.125 3.54167 2.125H5.86446C6.16935 2.125 6.44003 2.3201 6.53645 2.60934L7.5974 5.79219C7.70887 6.1266 7.55748 6.49209 7.24219 6.64974L5.6433 7.44919C6.42405 9.18086 7.81914 10.5759 9.55081 11.3567L10.3503 9.75781C10.5079 9.44252 10.8734 9.29113 11.2078 9.4026L14.3907 10.4636C14.6799 10.56 14.875 10.8306 14.875 11.1355V13.4583C14.875 14.2407 14.2407 14.875 13.4583 14.875H12.75C6.88197 14.875 2.125 10.118 2.125 4.25V3.54167Z" stroke="#404040" stroke-linecap="round" stroke-linejoin="round"/>
</svg>
