<svg width="90" height="88" viewBox="0 0 90 88" fill="none" xmlns="http://www.w3.org/2000/svg">
<path d="M2.04941 42.9136C2.04941 34.5099 4.53662 26.2949 9.19652 19.3075C13.8564 12.3201 20.4797 6.87402 28.2288 3.65806C35.978 0.442103 44.5049 -0.399341 52.7313 1.24014C60.9577 2.87962 68.5142 6.92639 74.4451 12.8687C80.3761 18.811 84.4151 26.382 86.0514 34.6242C87.6877 42.8665 86.8479 51.4098 83.6381 59.1738C80.4283 66.9378 74.9927 73.5738 68.0187 78.2426C61.0447 82.9115 52.8454 85.4035 44.4578 85.4035C33.2104 85.4035 22.4237 80.9269 14.4706 72.9585C6.51743 64.9901 2.04941 54.1826 2.04941 42.9136Z" fill="#EA0029"/>
<path d="M24.7392 12.5264C25.4442 12.4194 26.1568 12.3703 26.8699 12.3798C27.6338 12.3027 28.4007 12.4948 29.0386 12.923C29.2784 13.1191 29.4694 13.3684 29.5964 13.6513C29.7234 13.9341 29.783 14.2427 29.7705 14.5526C29.782 14.8528 29.7321 15.1523 29.624 15.4325C29.5158 15.7127 29.3517 15.9678 29.1416 16.1822C28.4997 16.7013 27.688 16.9627 26.8645 16.9156C26.683 16.919 26.5016 16.9062 26.3223 16.8775V19.3817H24.7609L24.7392 12.5264ZM26.3006 15.6933C26.479 15.7289 26.661 15.7435 26.8428 15.7368C27.6777 15.7368 28.1928 15.3131 28.1928 14.6069C28.1928 13.9008 27.7591 13.5803 26.9621 13.5803C26.7438 13.572 26.5254 13.5903 26.3115 13.6346L26.3006 15.6933Z" fill="white"/>
<path d="M35.4849 16.4647H32.9205V18.0943H35.7831V19.3872H31.3482V12.4341H35.6422V13.7269H32.9313V15.1773H35.4958L35.4849 16.4647Z" fill="white"/>
<path d="M40.4078 19.5555C38.3476 19.5555 37.1548 17.9911 37.1548 16.003C37.1548 13.9116 38.4994 12.3472 40.5488 12.3472C42.6904 12.3472 43.856 13.9496 43.856 15.878C43.856 18.1758 42.4789 19.5555 40.4458 19.5555H40.4078ZM40.4783 18.3007C41.5626 18.3007 42.1536 17.2958 42.1536 15.9323C42.1536 14.6775 41.5626 13.5965 40.4783 13.5965C39.394 13.5965 38.7813 14.683 38.7813 15.9595C38.7813 17.236 39.4157 18.3007 40.4675 18.3007H40.4783Z" fill="white"/>
<path d="M45.45 12.5264C46.1551 12.4194 46.8677 12.3703 47.5807 12.3798C48.3447 12.3022 49.1117 12.4943 49.7494 12.923C49.9899 13.1188 50.1817 13.368 50.3096 13.6508C50.4376 13.9336 50.4982 14.2423 50.4868 14.5526C50.4995 14.8534 50.4497 15.1536 50.3405 15.4342C50.2313 15.7147 50.0651 15.9695 49.8524 16.1822C49.2122 16.7005 48.4025 16.9619 47.5807 16.9156C47.3992 16.9188 47.2178 16.9061 47.0386 16.8775V19.3817H45.4771L45.45 12.5264ZM47.0115 15.6933C47.1899 15.7289 47.3718 15.7434 47.5536 15.7368C48.3886 15.7368 48.9091 15.3131 48.9091 14.6069C48.9091 13.9007 48.459 13.5802 47.6675 13.5802C47.4474 13.5719 47.2272 13.5901 47.0115 13.6346V15.6933Z" fill="white"/>
<path d="M52.0482 12.4341H53.6205V18.0889H56.3855V19.4143H52.0482V12.4341Z" fill="white"/>
<path d="M62.0675 16.4647H59.503V18.0943H62.3494V19.3872H57.9145V12.4341H62.203V13.7269H59.4922V15.1773H62.0566L62.0675 16.4647Z" fill="white"/>
<path d="M18.7699 22.6247H20.6837V29.5126H24.056V31.1422H18.7699V22.6247Z" fill="white"/>
<path d="M28.903 31.2672C26.3982 31.2672 24.9127 29.3605 24.9127 26.9215C24.9127 24.3738 26.5392 22.4726 29.044 22.4726C31.6464 22.4726 33.0669 24.4281 33.0669 26.7694C33.0669 29.5723 31.397 31.2509 28.9139 31.2509L28.903 31.2672ZM28.9898 29.7407C30.2856 29.7407 31.0283 28.5131 31.0283 26.8509C31.0283 25.3244 30.3127 24.0153 28.9898 24.0153C27.6669 24.0153 26.9295 25.2973 26.9295 26.8889C26.9295 28.4805 27.694 29.7407 28.9789 29.7407H28.9898Z" fill="white"/>
<path d="M36.7102 31.1259L33.9994 22.6247H36.103L37.1385 26.2207C37.4259 27.242 37.6807 28.198 37.8922 29.2573H37.9301C38.1416 28.2361 38.4072 27.2311 38.6946 26.2588L39.7789 22.6247H41.8175L38.9602 31.1259H36.7102Z" fill="white"/>
<path d="M48.356 27.5299H45.2331V29.5506H48.7193V31.1259H43.2976V22.6247H48.5187V24.2H45.2115V25.9709H48.3343L48.356 27.5299Z" fill="white"/>
<path d="M55.6699 22.6247V27.5136C55.6699 28.9857 56.212 29.7299 57.2042 29.7299C58.1964 29.7299 58.7657 29.0237 58.7657 27.5136V22.6247H60.6741V27.3941C60.6741 30.0178 59.3566 31.2672 57.1392 31.2672C55.003 31.2672 53.756 30.0667 53.756 27.3669V22.6247H55.6699Z" fill="white"/>
<path d="M62.9946 29.1595C63.652 29.5016 64.3792 29.6875 65.1199 29.7027C66.0036 29.7027 66.4699 29.3388 66.4699 28.7738C66.4699 28.2089 66.0633 27.9373 65.044 27.5842C63.6344 27.0845 62.7018 26.3022 62.7018 25.0529C62.7018 23.6025 63.9271 22.5052 65.9115 22.5052C66.6573 22.4839 67.3984 22.6306 68.0801 22.9343L67.6518 24.4716C67.1031 24.2038 66.5001 24.0663 65.8898 24.0696C65.0603 24.0696 64.6536 24.4608 64.6536 24.8845C64.6536 25.4277 65.1199 25.6667 66.2313 26.0958C67.7277 26.639 68.4 27.4321 68.4 28.6435C68.4 30.0721 67.3157 31.2835 64.9844 31.2835C64.153 31.2869 63.3318 31.1011 62.5826 30.7403L62.9946 29.1595Z" fill="white"/>
<path d="M40.0825 39.6543C38.8301 39.6543 38.0873 38.7037 38.0873 37.4815C38.0648 37.1973 38.1014 36.9115 38.1949 36.6422C38.2884 36.3729 38.4366 36.126 38.6303 35.9172C38.824 35.7083 39.0589 35.542 39.3201 35.4288C39.5812 35.3157 39.863 35.2581 40.1476 35.2597C40.4251 35.2526 40.7011 35.3042 40.9573 35.4112C41.2136 35.5183 41.4445 35.6782 41.6348 35.8808C41.8252 36.0833 41.9708 36.3237 42.062 36.5865C42.1533 36.8492 42.1882 37.1283 42.1644 37.4054C42.1644 38.8069 41.3241 39.6434 40.0879 39.6434L40.0825 39.6543ZM40.1259 38.8938C40.7711 38.8938 41.1452 38.28 41.1452 37.4489C41.1452 36.6178 40.7873 36.0311 40.1259 36.0311C39.4644 36.0311 39.0903 36.6721 39.0903 37.4706C39.0903 38.2691 39.4753 38.8938 40.1205 38.8938H40.1259Z" fill="white"/>
<path d="M43.1512 39.6109V35.3575H44.2735L45.1518 36.9165C45.4135 37.3867 45.6453 37.8729 45.8458 38.3723C45.7915 37.8291 45.7699 37.237 45.7699 36.596V35.3575H46.6536V39.6109H45.6452L44.7397 37.9812C44.468 37.4947 44.2219 36.9943 44.0024 36.482H43.9753C44.0078 37.0252 44.0241 37.6444 44.0241 38.3398V39.6217L43.1512 39.6109Z" fill="white"/>
<path d="M78.2783 52.3872C77.8554 52.0612 77.7795 52.0124 75.2042 51.1595C77.438 50.6163 77.5356 50.5565 77.9151 50.2958C78.3529 49.999 78.7044 49.5914 78.9339 49.1143C79.1634 48.6372 79.2627 48.1078 79.2217 47.5798V47.4603C79.0374 45.7111 76.7874 42.3975 75.2693 41.6588C74.7998 41.4222 74.2762 41.3143 73.7516 41.3457C73.2269 41.3772 72.72 41.547 72.2819 41.838C71.8645 42.1096 71.8103 42.1477 70.1133 44.4672C69.9452 41.7511 69.6253 36.9817 69.5711 36.5363V36.4331V36.3353C69.4294 35.8174 69.1505 35.3476 68.7639 34.9756C68.3773 34.6036 67.8975 34.3432 67.3753 34.2222C65.5591 33.7659 60.7554 35.124 59.4651 36.4548C59.1 36.822 58.8363 37.2778 58.6994 37.7776C58.5626 38.2774 58.5574 38.8042 58.6844 39.3067L58.7331 39.5077L58.8253 39.6924C58.9446 39.9477 59.2753 40.4854 62.0783 44.8691L63.103 46.4988C60.6091 45.4721 60.506 45.4667 59.991 45.4612C59.4781 45.4537 58.9722 45.5806 58.5233 45.8293C58.0745 46.078 57.6983 46.4398 57.4319 46.879C57.1104 47.4593 56.9007 48.0951 56.8139 48.7531C55.8805 47.5089 54.4994 46.6786 52.9645 46.439C51.7347 46.1851 50.457 46.31 49.2994 46.7975C48.7443 46.453 48.1064 46.2656 47.4534 46.2551C46.8005 46.2445 46.1569 46.4113 45.591 46.7378C45.2536 46.9252 44.9554 47.1761 44.7127 47.4765V45.9882L44.5988 45.1027L44.5609 44.9452C44.4322 44.4565 44.1904 44.0051 43.855 43.6276C43.5197 43.2501 43.1002 42.9571 42.6307 42.7724C42.1044 42.5619 41.5362 42.4773 40.9715 42.5254C40.4068 42.5735 39.8611 42.7529 39.3777 43.0494C38.8431 43.3706 38.4079 43.8342 38.1208 44.3885C37.8336 44.9429 37.7056 45.5662 37.7512 46.1891V49.2203C37.3716 48.6266 36.8908 48.1045 36.3307 47.6775C34.6988 46.5531 32.6928 46.1728 30.3615 46.5803C29.0981 46.7872 27.9276 47.3746 27.0054 48.2642C27.0054 48.2642 27.0054 48.2045 26.9621 48.1773C26.7375 47.7738 26.4324 47.4208 26.0658 47.1405C25.6993 46.8601 25.2791 46.6583 24.8313 46.5477C23.2645 46.1185 21.2693 46.6509 20.4452 49.4647C20.4452 49.4647 20.3151 49.921 20.1307 50.5511L19.2362 48.8889C19.155 48.6777 19.0627 48.471 18.9597 48.2696L19.0193 48.3403C19.0193 48.2968 18.9597 48.2642 18.938 48.2208C18.9163 48.1773 18.8512 48.0958 18.8133 48.0361C18.3815 47.4011 17.7461 46.9332 17.0124 46.7099C16.2787 46.4866 15.4908 46.5214 14.7795 46.8084C14.0948 47.0509 13.5034 47.5028 13.0889 48.1003C12.6745 48.6978 12.4579 49.4107 12.4699 50.1383C12.4738 50.6401 12.5617 51.1377 12.7301 51.6104L12.7735 51.7353L16.6283 59.6064C15.9639 59.7536 15.3622 60.1058 14.908 60.6135C14.4538 61.1211 14.17 61.7588 14.0964 62.4366C14.0883 62.5722 14.0883 62.7083 14.0964 62.844C14.0988 63.2996 14.1966 63.7496 14.3834 64.1651C14.5701 64.5805 14.8418 64.9521 15.1807 65.2558C16.2325 66.2173 17.859 66.5378 19.7675 66.1467C21.8386 65.7393 23.0205 64.4845 23.8663 61.801L25.1404 57.803C25.4263 59.1201 26.0785 60.3292 27.0217 61.2904C28.0464 62.3116 29.9277 63.4632 33.0452 63.0178C35.3603 62.6919 36.9651 61.6543 37.8271 60.4375L37.8813 60.7309C38.0208 61.1838 38.2555 61.6014 38.5698 61.9556C38.884 62.3098 39.2705 62.5924 39.703 62.7842C40.1708 63.0027 40.6806 63.1159 41.1967 63.1159C41.7128 63.1159 42.2226 63.0027 42.6904 62.7842C43.1851 62.5695 43.6151 62.2286 43.9374 61.7956V63.0558C43.8899 63.7392 44.0479 64.4212 44.3909 65.0137C44.734 65.6063 45.2464 66.0823 45.8621 66.3803C46.3321 66.6133 46.847 66.7412 47.3712 66.7553C47.8954 66.7694 48.4164 66.6692 48.8982 66.4617C49.3452 66.2729 49.7451 65.9876 50.0694 65.6261C50.3937 65.2646 50.6343 64.8358 50.7741 64.3704L50.8175 64.2292L50.9422 63.3709V63.0124C52.2173 63.1513 53.5053 62.9174 54.6506 62.3388C55.1404 62.0828 55.5944 61.7632 56.0006 61.3882H56.8464C57.321 61.6482 57.8533 61.7845 58.3943 61.7845C58.9353 61.7845 59.4676 61.6482 59.9422 61.3882H62.3494C63.9759 62.3007 66.3452 63.0178 67.6193 62.7788C68.1384 62.6974 68.6266 62.4795 69.0342 62.1475C69.4419 61.8154 69.7543 61.3809 69.9398 60.8884V60.8395C70.097 60.3887 70.1241 60.2963 70.1295 57.7595C71.5229 60.0138 71.5988 60.0736 71.9892 60.3832C72.4045 60.7039 72.897 60.9089 73.4168 60.9776C73.9366 61.0463 74.4653 60.9761 74.9494 60.7743C76.5759 60.1116 79.0916 56.9284 79.341 55.1793C79.3625 55.0281 79.3733 54.8757 79.3735 54.723C79.3809 54.2776 79.2871 53.8364 79.0992 53.4327C78.9114 53.029 78.6344 52.6733 78.2892 52.3926" fill="white"/>
<path d="M58.8036 48.8563C58.4079 49.4919 58.2615 51.4963 58.3807 52.8272C58.4031 53.1785 58.4837 53.5236 58.6193 53.8484C58.686 53.9889 58.7891 54.1089 58.9178 54.1958C59.0466 54.2828 59.1962 54.3335 59.3512 54.3427C59.5464 54.3427 59.6657 54.3427 63.3307 53.1368L64.9572 52.5936C65.1633 52.5333 65.3441 52.4074 65.4723 52.2348C65.6005 52.0623 65.669 51.8526 65.6675 51.6375C65.6917 51.4109 65.6419 51.1825 65.5255 50.9866C65.4092 50.7908 65.2326 50.6379 65.0223 50.5511L63.8729 50.0785C59.9368 48.4489 59.7579 48.3891 59.5356 48.3891C59.3815 48.3854 59.2294 48.424 59.0957 48.5006C58.9619 48.5771 58.8515 48.6889 58.7765 48.8237" fill="#FFD7CF"/>
<path d="M67.6139 60.9807C67.6789 60.796 67.6843 60.6657 67.6952 56.8089C67.6952 56.8089 67.6952 55.1086 67.6952 55.0869C67.7005 54.8728 67.6362 54.6627 67.512 54.4883C67.3878 54.3139 67.2105 54.1847 67.0066 54.12C66.7996 54.0343 66.5712 54.0149 66.3528 54.0645C66.1344 54.1141 65.9366 54.2303 65.7868 54.397L64.9843 55.3531C62.2247 58.6123 62.1054 58.7481 62.0404 58.9437C61.9987 59.0545 61.9838 59.1737 61.997 59.2913C62.0211 59.4776 62.0983 59.653 62.2193 59.7965C62.859 60.557 65.9331 61.6923 66.909 61.5239C67.0626 61.5037 67.2079 61.4427 67.33 61.3471C67.452 61.2516 67.5463 61.1251 67.603 60.9807" fill="#FFD7CF"/>
<path d="M73.8325 59.639C74.7596 59.2696 76.7819 56.6948 76.9229 55.7062C76.9524 55.5536 76.9403 55.3958 76.8878 55.2495C76.8353 55.1033 76.7444 54.9739 76.6247 54.8751C76.4729 54.761 76.3536 54.7121 72.6885 53.5062L71.062 52.963C70.8609 52.8898 70.6413 52.8853 70.4374 52.9501C70.2334 53.015 70.0566 53.1455 69.9343 53.3215C69.7814 53.4896 69.6875 53.7032 69.6669 53.9297C69.6463 54.1563 69.7003 54.3833 69.8205 54.5763L70.4657 55.6301C72.6343 59.1664 72.8078 59.4326 72.965 59.5412C73.0874 59.6347 73.2329 59.6927 73.3859 59.709C73.5388 59.7253 73.6933 59.6992 73.8325 59.6336" fill="#FFD7CF"/>
<path d="M71.9458 50.5185C76.1042 49.5082 76.2831 49.4321 76.4295 49.3506C76.5565 49.2619 76.6569 49.1401 76.7199 48.9985C76.783 48.8568 76.8063 48.7006 76.7873 48.5467C76.7873 48.5467 76.7873 48.5467 76.7873 48.5141C76.6789 47.4874 74.8897 44.8257 74.006 44.3911C73.8688 44.3183 73.7149 44.283 73.5598 44.2887C73.4046 44.2944 73.2537 44.341 73.1223 44.4237C72.965 44.5324 72.8458 44.6899 70.6175 47.7427L69.5982 49.1333C69.4702 49.3031 69.401 49.51 69.401 49.7227C69.401 49.9354 69.4702 50.1424 69.5982 50.3121C69.7103 50.5058 69.8812 50.6587 70.0859 50.7485C70.2906 50.8384 70.5186 50.8606 70.7367 50.8119V50.8499C71.144 50.7159 71.5585 50.6052 71.9783 50.5185" fill="#FFD7CF"/>
<path d="M67.7711 47.0854C67.7006 45.4558 67.2018 38.0736 67.1476 37.7368C67.1015 37.5816 67.014 37.4419 66.8946 37.3328C66.7752 37.2237 66.6284 37.1493 66.4699 37.1175C65.3856 36.8514 61.3518 37.9975 60.5982 38.7472C60.4861 38.852 60.4032 38.9842 60.3576 39.1309C60.3119 39.2776 60.3052 39.4336 60.338 39.5837C60.4572 39.8281 62.1868 42.5551 63.4554 44.5432L65.4886 47.759C66.2313 48.9704 66.8386 48.7803 67.0392 48.7205C67.2398 48.6608 67.8362 48.4706 67.7711 47.0583" fill="#FFD7CF"/>
<path d="M59.1344 48.0197C58.7386 48.6553 58.5922 50.6597 58.7115 51.9906C58.7332 52.3443 58.8158 52.6917 58.9554 53.0173C59.0215 53.1567 59.1238 53.2756 59.2517 53.3617C59.3795 53.4477 59.5282 53.4976 59.6819 53.5062C59.8771 53.5062 59.9964 53.5061 63.6615 52.3057L65.288 51.7624C65.4926 51.7022 65.6721 51.5769 65.7993 51.4054C65.9264 51.2339 65.9944 51.0255 65.9928 50.8118C66.0174 50.5858 65.9684 50.3579 65.8531 50.1621C65.7378 49.9663 65.5624 49.8131 65.353 49.7254L64.2036 49.2583C60.2621 47.6286 60.0886 47.5634 59.8663 47.558C59.7112 47.5562 59.5586 47.5961 59.4241 47.6735C59.2897 47.7508 59.1784 47.8629 59.1018 47.998" fill="#EA0029"/>
<path d="M67.9446 60.1442C68.0096 59.9595 68.0205 59.8346 68.0259 55.9778C68.0259 55.9778 68.0259 54.2721 68.0259 54.2504C68.0294 54.0366 67.9645 53.8274 67.8405 53.6533C67.7166 53.4793 67.5402 53.3496 67.3373 53.2834C67.1304 53.1977 66.9019 53.1784 66.6835 53.228C66.4651 53.2776 66.2673 53.3937 66.1175 53.5605L65.3151 54.5165C62.55 57.7758 62.4361 57.917 62.3711 58.1017C62.33 58.2165 62.3152 58.339 62.3277 58.4602C62.3494 58.6456 62.4269 58.8199 62.55 58.96C63.1898 59.7205 66.2584 60.8558 67.2398 60.6874C67.3925 60.6668 67.537 60.6056 67.6581 60.51C67.7792 60.4145 67.8725 60.2881 67.9283 60.1442" fill="#EA0029"/>
<path d="M74.1686 58.8025C75.0958 58.4331 77.1126 55.8583 77.2536 54.8696C77.2826 54.7175 77.2708 54.5604 77.2193 54.4144C77.1679 54.2684 77.0787 54.1387 76.9608 54.0385C76.8036 53.9244 76.6843 53.8756 73.0247 52.6751L71.3982 52.1318C71.1967 52.0624 70.9782 52.0597 70.7751 52.1243C70.572 52.1888 70.3951 52.3172 70.2705 52.4904C70.1199 52.6599 70.0281 52.8737 70.0086 53.0998C69.989 53.3258 70.0428 53.5522 70.162 53.7452L70.8072 54.799C72.9759 58.3353 73.144 58.6015 73.3066 58.7101C73.4286 58.8042 73.5743 58.8625 73.7273 58.8788C73.8804 58.8951 74.035 58.8687 74.1741 58.8025" fill="#EA0029"/>
<path d="M72.2765 49.6928C76.4404 48.6879 76.6139 48.6336 76.7657 48.5249C76.8917 48.4355 76.991 48.3135 77.0531 48.1719C77.1152 48.0303 77.1376 47.8744 77.1181 47.721C77.1181 47.721 77.1181 47.721 77.1181 47.6884C77.0151 46.6617 75.2259 44 74.3422 43.5709C74.2084 43.4915 74.0558 43.4497 73.9003 43.4497C73.7448 43.4497 73.5922 43.4915 73.4585 43.5709C73.2958 43.6795 73.1765 43.837 70.9482 46.8899C70.9482 46.8899 69.9452 48.2642 69.9289 48.2805C69.8022 48.4518 69.7337 48.6594 69.7337 48.8726C69.7337 49.0858 69.8022 49.2934 69.9289 49.4647C70.0403 49.6576 70.2104 49.8096 70.4144 49.8986C70.6183 49.9875 70.8453 50.0087 71.0621 49.959V49.997C71.4701 49.8657 71.8845 49.7551 72.3036 49.6657" fill="#EA0029"/>
<path d="M68.0964 46.2543C68.0259 44.5975 67.5542 37.2425 67.4729 36.9002C67.4277 36.7455 67.3413 36.606 67.2228 36.4969C67.1043 36.3877 66.9583 36.3131 66.8006 36.281C65.7163 36.0202 61.6771 37.161 60.9235 37.9378C60.8124 38.0432 60.7305 38.1757 60.6858 38.3223C60.6411 38.469 60.6352 38.6247 60.6687 38.7743C60.788 39.0188 62.5175 41.7457 63.7861 43.7393L65.8193 46.9496C66.5621 48.161 67.1693 47.9709 67.3699 47.9111C67.5705 47.8513 68.1669 47.6612 68.0964 46.2815" fill="#EA0029"/>
<path d="M16.5633 63.6968C17.1054 64.1802 18.0813 64.3215 19.2741 64.0716C20.4669 63.8217 21.1121 63.3437 21.7843 61.1926L25.1458 50.6109C25.2344 50.3849 25.2767 50.1435 25.2701 49.9008C25.2636 49.6582 25.2084 49.4194 25.1078 49.1985C25.0212 49.0488 24.904 48.9192 24.7638 48.8181C24.6237 48.717 24.4638 48.6467 24.2946 48.6119C23.6928 48.4435 22.9446 48.4598 22.4783 50.0731L20.8898 55.5052L20.7163 56.0973L17.3494 49.8667C17.3494 49.8667 17.1271 49.2909 17.1217 49.2909C16.9672 49.0294 16.7228 48.8333 16.4344 48.7394C16.146 48.6454 15.8333 48.6599 15.5548 48.7803C14.6711 49.117 14.3783 49.9101 14.7307 50.9531L19.1115 59.8889C19.1592 60.0093 19.199 60.1327 19.2307 60.2583C19.2307 60.2583 19.2687 60.5027 19.2687 60.5082C19.2716 60.661 19.2438 60.8128 19.187 60.9546C19.1302 61.0965 19.0455 61.2254 18.938 61.3338C18.829 61.4324 18.7013 61.5077 18.5624 61.5554C18.4235 61.603 18.2765 61.6219 18.1301 61.6109H17.3982C17.1004 61.6174 16.8147 61.7306 16.593 61.9298C16.3712 62.1291 16.2279 62.4014 16.1892 62.6973C16.1616 62.8848 16.1808 63.0762 16.2451 63.2544C16.3095 63.4327 16.4169 63.5921 16.5578 63.7185" fill="#231F20"/>
<path d="M36.6614 52.8435C36.6328 52.1801 36.466 51.5302 36.1719 50.9352C35.8778 50.3403 35.4628 49.8135 34.9536 49.3886C33.9289 48.6118 32.4705 48.362 30.7464 48.6662C28.5777 49.041 27.2873 50.5891 26.9946 53.1477C26.6259 56.2059 27.1301 58.5091 28.453 59.8128C29.4452 60.796 30.9144 61.1872 32.709 60.9481C35.2626 60.5896 36.4066 59.1827 36.4066 58.2918C36.4271 58.001 36.3392 57.7128 36.1599 57.483C35.9807 57.2533 35.7228 57.0982 35.4361 57.0479C35.1054 56.9827 34.8235 57.0479 34.2054 57.5911C33.8368 57.9542 33.3856 58.2221 32.8907 58.3716C32.3957 58.5211 31.8719 58.5478 31.3644 58.4494C31.0277 58.3689 30.7157 58.207 30.4558 57.9779C30.1959 57.7487 29.996 57.4593 29.8735 57.1348C29.8735 57.1348 29.765 56.6948 29.7705 56.7437C29.6946 56.3472 29.662 55.956 29.906 55.7985L29.9656 55.7551H35.5771C36.0921 55.7551 36.3578 55.6899 36.5096 55.5215C36.8187 55.1847 36.7915 54.2015 36.6614 52.8326V52.8435ZM33.7825 53.6474H29.1036C28.9789 53.5605 28.9193 53.403 29.0114 52.9358C29.0683 52.6608 29.1729 52.3978 29.3205 52.159L29.5048 51.8765C29.841 51.4533 30.3117 51.1581 30.8385 51.04C32.465 50.638 33.6307 51.4746 33.815 52.9086C33.9072 53.5279 33.8476 53.6474 33.7825 53.6474Z" fill="#231F20"/>
<path d="M41.747 44.755C41.5223 44.6676 41.2803 44.6339 41.0403 44.6565C40.8004 44.6791 40.5689 44.7575 40.3645 44.8854C40.148 45.0251 39.9764 45.2246 39.8706 45.4598C39.7648 45.695 39.7292 45.9558 39.7681 46.2108V59.6118C39.7681 59.6118 39.844 60.0899 39.8494 60.1062C39.9003 60.2774 39.9871 60.4357 40.1039 60.5706C40.2208 60.7055 40.3651 60.8138 40.5271 60.8884C40.7174 60.9769 40.9246 61.0227 41.1343 61.0227C41.3441 61.0227 41.5513 60.9769 41.7416 60.8884C41.987 60.7733 42.1922 60.5869 42.3305 60.3535C42.4688 60.12 42.5337 59.8502 42.5169 59.5792V46.1402C42.5169 46.1402 42.4356 45.4938 42.4356 45.4775C42.3837 45.3123 42.2947 45.1612 42.1753 45.0359C42.0559 44.9106 41.9094 44.8145 41.747 44.755Z" fill="#231F20"/>
<path d="M52.4657 48.5304C51.8973 48.3962 51.3069 48.385 50.7338 48.4974C50.1607 48.6098 49.6181 48.8432 49.1422 49.1822C49.1422 49.1822 49.0283 49.2746 48.9849 49.3017L48.8928 49.3506L48.6163 49.4701L48.5349 49.1605L48.4699 49.0464L48.4428 48.9758C48.4155 48.941 48.3901 48.9048 48.3669 48.8672C48.1485 48.61 47.8436 48.4419 47.5098 48.3949C47.1761 48.3478 46.8367 48.425 46.556 48.6119C46.2036 48.8128 46.0138 49.0953 46.0138 49.9373V63.083C45.9748 63.3633 46.0231 63.6489 46.1522 63.9007C46.2812 64.1526 46.4847 64.3583 46.7349 64.4899C46.9318 64.5933 47.1492 64.6518 47.3713 64.6612C47.5935 64.6706 47.815 64.6307 48.0199 64.5442C48.1814 64.4786 48.3266 64.3785 48.4455 64.251C48.5645 64.1234 48.6542 63.9713 48.7084 63.8054L48.7898 63.2622V60.9481L48.7626 60.5788V60.4701V60.4158L48.8982 59.9812L49.3102 60.2583C49.3615 60.293 49.4104 60.3311 49.4566 60.3723L49.5813 60.4538L49.7169 60.5407L49.8524 60.6005C50.4513 60.8574 51.0999 60.9771 51.7509 60.9508C52.4019 60.9245 53.0387 60.7528 53.6151 60.4484C55.106 59.6716 55.8434 58.2755 56.0169 55.956C56.3747 51.3062 55.3066 49.0844 52.4548 48.5304H52.4657ZM52.3193 58.3733C50.4651 58.3733 50.1506 56.7437 50.1126 55.4835V54.7501V54.2069C50.2373 52.0341 50.6819 51.2084 51.8096 50.9476C52.1058 50.8491 52.4209 50.8214 52.7297 50.8667C53.0384 50.912 53.3324 51.029 53.5879 51.2084C54.244 51.7516 54.5367 52.838 54.5096 54.7284C54.5096 56.9012 54.1138 58.3679 52.341 58.3679" fill="#231F20"/>
<path d="M58.3862 58.6667C58.539 58.6677 58.6882 58.7141 58.8148 58.7998C58.9415 58.8856 59.04 59.007 59.098 59.1487C59.156 59.2904 59.1709 59.4461 59.1409 59.5963C59.1108 59.7465 59.037 59.8844 58.9289 59.9927C58.8208 60.101 58.6832 60.1749 58.5333 60.205C58.3834 60.2352 58.228 60.2202 58.0865 60.1621C57.9451 60.104 57.8239 60.0053 57.7383 59.8784C57.6527 59.7515 57.6065 59.602 57.6054 59.4489C57.604 59.3458 57.6232 59.2434 57.6619 59.1478C57.7006 59.0523 57.7581 58.9654 57.8308 58.8925C57.9036 58.8196 57.9903 58.762 58.0857 58.7232C58.181 58.6844 58.2832 58.6652 58.3862 58.6667ZM58.3862 60.1007C58.5506 60.0858 58.7034 60.0098 58.8147 59.8877C58.9261 59.7655 58.9878 59.6061 58.9878 59.4407C58.9878 59.2753 58.9261 59.1159 58.8147 58.9938C58.7034 58.8717 58.5506 58.7957 58.3862 58.7807C58.2991 58.7807 58.2129 58.7981 58.1326 58.8318C58.0523 58.8655 57.9795 58.9149 57.9184 58.9771C57.8573 59.0393 57.8092 59.113 57.7769 59.194C57.7446 59.275 57.7287 59.3617 57.7301 59.4489C57.7294 59.5351 57.7459 59.6207 57.7787 59.7005C57.8114 59.7802 57.8598 59.8526 57.921 59.9134C57.9821 59.9741 58.0548 60.022 58.1347 60.0542C58.2146 60.0864 58.3001 60.1022 58.3862 60.1007ZM58.0934 59.0143H58.4241C58.6356 59.0143 58.7386 59.0958 58.7386 59.275C58.7401 59.3071 58.735 59.3391 58.7236 59.3691C58.7122 59.399 58.6948 59.4264 58.6724 59.4493C58.65 59.4722 58.6231 59.4903 58.5935 59.5024C58.5638 59.5144 58.532 59.5203 58.5 59.5195L58.7603 59.9106H58.6247L58.3807 59.5249H58.2235V59.9106H58.0934V59.0143ZM58.2235 59.4163H58.3753C58.5 59.4163 58.6139 59.4163 58.6139 59.2696C58.6139 59.123 58.5109 59.1284 58.4133 59.1284H58.2235V59.4163Z" fill="#EA0029"/>
<path d="M27.8187 76.2014L27.6506 77.679C27.6018 77.9995 27.5584 78.3037 27.4988 78.597C27.6669 78.3526 27.8675 78.1027 28.0735 77.8528L29.044 76.6958L29.4452 76.8587L29.3151 78.3363C29.3151 78.6839 29.2446 78.999 29.1958 79.2869C29.353 79.0424 29.5319 78.7926 29.738 78.521L30.6488 77.353L31.1205 77.5486L29.2229 79.8518L28.7892 79.6726L28.903 78.2548C28.9267 77.9325 28.9665 77.6116 29.0223 77.2933C28.8375 77.5627 28.6385 77.8221 28.4259 78.0701L27.4988 79.1565L27.0651 78.9773L27.347 76.0276L27.8187 76.2014Z" fill="white"/>
<path d="M31.6572 77.679V79.162C31.6572 79.4879 31.6572 79.7921 31.6247 80.0909C31.7602 79.8302 31.9283 79.5477 32.0964 79.2815L32.9096 78.005L33.3271 78.119L33.3922 79.5966C33.3922 79.9497 33.3922 80.2647 33.3922 80.5581C33.5217 80.2707 33.6684 79.9913 33.8313 79.7215L34.5849 78.4504L35.0783 78.5808L33.4518 81.085L33.0018 80.9709L32.9259 79.5531C32.9096 79.2292 32.9096 78.9047 32.9259 78.5808C32.7797 78.8707 32.6168 79.1518 32.4379 79.4227L31.6572 80.6124L31.2018 80.4929L31.0988 77.5323L31.6572 77.679Z" fill="white"/>
<path d="M35.7181 78.684L35.8807 80.1561C35.8807 80.482 35.9349 80.7862 35.9458 81.085C36.0542 80.8079 36.1898 80.5417 36.3307 80.2267L37.003 78.8741L37.4313 78.9393L37.6482 80.4059C37.7024 80.7536 37.7404 81.0687 37.762 81.362C37.8603 81.0631 37.978 80.7709 38.1145 80.4874L38.7271 79.1403L39.2259 79.2163L37.9518 81.8889L37.4855 81.8183L37.247 80.3951C37.1982 80.0637 37.1602 79.7758 37.1386 79.4336C37.0228 79.7375 36.8907 80.0349 36.7428 80.3245L36.0867 81.5847L35.6259 81.5195L35.2084 78.5862L35.7181 78.684Z" fill="white"/>
<path d="M39.497 82.1116C39.4506 82.1071 39.4057 82.093 39.365 82.0702C39.3244 82.0474 39.2889 82.0163 39.2608 81.979C39.2328 81.9417 39.2128 81.899 39.2021 81.8536C39.1914 81.8081 39.1903 81.761 39.1988 81.715C39.2 81.6669 39.2112 81.6196 39.2316 81.576C39.252 81.5325 39.2812 81.4936 39.3174 81.4619C39.3536 81.4303 39.396 81.4065 39.4418 81.3921C39.4877 81.3777 39.536 81.373 39.5837 81.3783C39.6771 81.3934 39.7611 81.4439 39.8183 81.5194C39.8756 81.5949 39.9017 81.6895 39.8912 81.7837C39.8808 81.8779 39.8346 81.9645 39.7622 82.0255C39.6898 82.0865 39.5968 82.1174 39.5024 82.1116H39.497Z" fill="white"/>
<path d="M41.0259 79.3358L41.5681 81.0415C41.6277 81.2316 41.6873 81.4598 41.7253 81.6336C41.7849 81.4652 41.8554 81.2533 41.9367 81.0523L42.5873 79.4227H43.1295L42.2512 81.4C42.0286 82.0524 41.6573 82.6438 41.1669 83.1274C40.9769 83.2765 40.7536 83.3772 40.5163 83.4207L40.4132 82.9807C40.581 82.9376 40.738 82.8599 40.8741 82.7526C41.0666 82.6071 41.2256 82.4219 41.3403 82.2094C41.362 82.1706 41.3767 82.1283 41.3837 82.0844C41.3852 82.0388 41.374 81.9936 41.3512 81.9541L40.462 79.3086L41.0259 79.3358Z" fill="white"/>
<path d="M43.856 80.9383C43.8423 81.0689 43.8573 81.201 43.8998 81.3252C43.9424 81.4495 44.0115 81.5629 44.1024 81.6576C44.1933 81.7523 44.3037 81.826 44.426 81.8734C44.5483 81.9209 44.6794 81.941 44.8102 81.9323C45.0788 81.9407 45.3462 81.8945 45.5964 81.7965L45.6886 82.1605C45.3876 82.2831 45.0646 82.3423 44.7398 82.3343C44.5563 82.3406 44.3736 82.3086 44.2032 82.2403C44.0328 82.172 43.8784 82.0689 43.7499 81.9376C43.6214 81.8063 43.5216 81.6497 43.4568 81.4776C43.392 81.3056 43.3636 81.1219 43.3735 80.9383C43.354 80.748 43.374 80.5558 43.4323 80.3737C43.4906 80.1915 43.5859 80.0235 43.7122 79.8801C43.8385 79.7367 43.9931 79.6211 44.1662 79.5405C44.3393 79.4599 44.5272 79.4161 44.7181 79.4119C44.8849 79.4167 45.0488 79.4563 45.1994 79.5282C45.35 79.6002 45.484 79.7029 45.5927 79.8297C45.7014 79.9565 45.7825 80.1047 45.8307 80.2647C45.879 80.4247 45.8933 80.5931 45.8729 80.759C45.8803 80.8403 45.8803 80.9221 45.8729 81.0035L43.856 80.9383ZM45.3578 80.5798C45.3732 80.4774 45.3668 80.373 45.339 80.2734C45.3112 80.1738 45.2627 80.0811 45.1966 80.0016C45.1306 79.9221 45.0485 79.8575 44.9557 79.812C44.863 79.7665 44.7616 79.7412 44.6584 79.7378C44.4455 79.7501 44.245 79.8426 44.0972 79.9967C43.9494 80.1508 43.8652 80.3552 43.8615 80.5689L45.3578 80.5798Z" fill="white"/>
<path d="M46.491 78.1027H47.0006L47.1633 82.2528H46.6211L46.491 78.1027Z" fill="white"/>
<path d="M48.0253 80.2973C47.9928 79.9333 47.9657 79.6454 47.9223 79.3793L48.3831 79.3358L48.4536 79.8193C48.5372 79.6354 48.6702 79.4786 48.8378 79.3663C49.0054 79.254 49.2009 79.1908 49.4024 79.1837C50.091 79.1185 50.6494 79.6563 50.7253 80.5091C50.8175 81.525 50.2373 82.0845 49.5813 82.1388C49.411 82.1624 49.2376 82.1412 49.0779 82.0774C48.9182 82.0136 48.7778 81.9093 48.6705 81.7748L48.806 83.3067L48.2964 83.3556L48.0253 80.2973ZM48.6054 81.0035C48.6089 81.0759 48.6235 81.1474 48.6488 81.2153C48.7033 81.3845 48.8133 81.5303 48.9609 81.6289C49.1086 81.7276 49.2852 81.7732 49.462 81.7585C50.0042 81.7096 50.2807 81.2153 50.2211 80.5906C50.1723 80.0474 49.8416 79.564 49.294 79.6128C49.1135 79.6337 48.945 79.7137 48.8146 79.8404C48.6842 79.9671 48.5992 80.1335 48.5729 80.3136C48.5676 80.3841 48.5676 80.4549 48.5729 80.5254L48.6054 81.0035Z" fill="white"/>
<path d="M51.7717 81.8889C51.7247 81.8957 51.6768 81.8927 51.631 81.88C51.5853 81.8673 51.5426 81.8451 51.5059 81.8149C51.4692 81.7848 51.4391 81.7473 51.4177 81.7048C51.3962 81.6624 51.3838 81.6159 51.3813 81.5684C51.372 81.5215 51.3725 81.4731 51.3827 81.4264C51.3929 81.3797 51.4126 81.3356 51.4406 81.2968C51.4685 81.2581 51.5042 81.2255 51.5453 81.2012C51.5864 81.1769 51.6321 81.1614 51.6795 81.1555C51.7261 81.1487 51.7736 81.1516 51.819 81.164C51.8644 81.1764 51.9067 81.198 51.9434 81.2276C51.98 81.2572 52.0102 81.2941 52.032 81.3359C52.0537 81.3777 52.0666 81.4236 52.0699 81.4706C52.0792 81.5174 52.079 81.5657 52.0692 81.6124C52.0594 81.6592 52.0402 81.7034 52.0128 81.7425C51.9855 81.7816 51.9505 81.8147 51.9099 81.8399C51.8694 81.8651 51.8242 81.8817 51.7771 81.8889H51.7717Z" fill="white"/>
<path d="M54.862 81.1718C54.6336 81.3322 54.3725 81.4398 54.0976 81.4869C53.9122 81.5338 53.7189 81.5405 53.5308 81.5063C53.3426 81.4722 53.1639 81.3981 53.0068 81.289C52.8496 81.1799 52.7175 81.0383 52.6195 80.8738C52.5215 80.7093 52.4598 80.5257 52.4386 80.3353C52.3912 80.1388 52.3854 79.9345 52.4215 79.7356C52.4575 79.5367 52.5347 79.3476 52.6481 79.1803C52.7614 79.0131 52.9084 78.8714 53.0796 78.7644C53.2508 78.6574 53.4424 78.5874 53.6422 78.559C53.8828 78.5019 54.1334 78.5019 54.3741 78.559L54.3307 78.961C54.1313 78.9115 53.9229 78.9115 53.7235 78.961C53.5866 78.9845 53.4563 79.0368 53.3409 79.1143C53.2256 79.1918 53.1279 79.2928 53.0542 79.4107C52.9805 79.5286 52.9325 79.6608 52.9133 79.7986C52.8941 79.9364 52.9041 80.0767 52.9428 80.2104C52.9566 80.346 52.9987 80.4773 53.0664 80.5956C53.1342 80.7139 53.226 80.8166 53.3359 80.897C53.4459 80.9774 53.5714 81.0338 53.7045 81.0624C53.8376 81.0911 53.9752 81.0913 54.1084 81.0632C54.3228 81.0238 54.5262 80.9385 54.7048 80.8133L54.862 81.1718Z" fill="white"/>
<path d="M56.7054 80.8514C56.5262 80.9049 56.3378 80.9204 56.1523 80.8968C55.9668 80.8732 55.7883 80.8112 55.628 80.7145C55.4678 80.6179 55.3295 80.4889 55.2219 80.3357C55.1143 80.1825 55.0397 80.0084 55.003 79.8247C54.9333 79.6434 54.9024 79.4495 54.9124 79.2554C54.9224 79.0614 54.973 78.8717 55.0609 78.6985C55.1489 78.5253 55.2722 78.3727 55.4229 78.2504C55.5736 78.1281 55.7482 78.0389 55.9355 77.9887C56.1147 77.9334 56.3035 77.9164 56.4896 77.9388C56.6758 77.9612 56.8551 78.0225 57.0161 78.1188C57.1771 78.2151 57.3161 78.3441 57.4242 78.4976C57.5322 78.6511 57.6069 78.8256 57.6434 79.0099C57.7131 79.1916 57.744 79.3859 57.7341 79.5803C57.7241 79.7746 57.6736 79.9648 57.5857 80.1384C57.4978 80.3119 57.3745 80.4651 57.2238 80.5879C57.0731 80.7107 56.8984 80.8005 56.7109 80.8514H56.7054ZM56.6187 80.4766C56.7396 80.4269 56.8493 80.3534 56.9412 80.2602C57.0331 80.1671 57.1052 80.0564 57.1533 79.9346C57.2014 79.8129 57.2245 79.6826 57.2211 79.5517C57.2177 79.4208 57.188 79.292 57.1337 79.1729C57.0036 78.7111 56.5916 78.2005 56.0494 78.3689C55.9258 78.4146 55.8129 78.4853 55.7177 78.5767C55.6226 78.668 55.5472 78.778 55.4963 78.8998C55.4455 79.0216 55.4202 79.1526 55.4221 79.2846C55.4239 79.4167 55.4529 79.5469 55.5072 79.6672C55.6807 80.2593 56.147 80.6124 56.6241 80.4766H56.6187Z" fill="white"/>
<path d="M57.9633 78.3037C57.8386 78.0321 57.7247 77.8257 57.6163 77.6193L58.0229 77.4237L58.2398 77.8257C58.2479 77.6429 58.3071 77.466 58.4107 77.3153C58.5142 77.1645 58.6578 77.0459 58.8253 76.9728C58.9824 76.8951 59.1601 76.8695 59.3326 76.8998C59.5052 76.93 59.6636 77.0146 59.7849 77.1412C59.7926 76.9777 59.8371 76.818 59.9151 76.6741C60.0171 76.4729 60.1857 76.3135 60.3922 76.2232C60.7337 76.0603 61.341 76.044 61.7639 76.9348L62.4795 78.4395L62.0241 78.6568L61.3356 77.2064C61.1024 76.7121 60.7934 76.5057 60.4084 76.6632C60.2863 76.7258 60.1865 76.8246 60.1224 76.9461C60.0584 77.0676 60.0333 77.2059 60.0506 77.3422C60.0626 77.429 60.0882 77.5133 60.1265 77.5921L60.8801 79.1783L60.4247 79.3956L59.6982 77.8637C59.503 77.4509 59.1831 77.2444 58.8307 77.4128C58.7027 77.4845 58.5998 77.5937 58.5358 77.7258C58.4718 77.858 58.4499 78.0066 58.4729 78.1516C58.483 78.2364 58.5068 78.319 58.5434 78.3961L59.2807 79.9442L58.8253 80.1561L57.9633 78.3037Z" fill="white"/>
</svg>
