<svg width="26" height="25" viewBox="0 0 26 25" fill="none" xmlns="http://www.w3.org/2000/svg">
<g clip-path="url(#clip0_114_6146)">
<path d="M24.346 5.34556C23.6733 4.18636 22.9432 3.97313 21.4568 3.89205C19.9719 3.79445 16.2379 3.75391 13.0031 3.75391C9.76203 3.75391 6.02653 3.79445 4.54318 3.89055C3.05983 3.97313 2.32823 4.18485 1.64933 5.34556C0.956476 6.50327 0.599976 8.49734 0.599976 12.008C0.599976 12.011 0.599976 12.0125 0.599976 12.0125C0.599976 12.0155 0.599976 12.017 0.599976 12.017V12.02C0.599976 15.5156 0.956476 17.5247 1.64933 18.6704C2.32823 19.8296 3.05828 20.0399 4.54163 20.1375C6.02653 20.2215 9.76203 20.2711 13.0031 20.2711C16.2379 20.2711 19.9719 20.2215 21.4583 20.139C22.9448 20.0414 23.6748 19.8311 24.3475 18.6719C25.0466 17.5262 25.4 15.5171 25.4 12.0215C25.4 12.0215 25.4 12.017 25.4 12.014C25.4 12.014 25.4 12.011 25.4 12.0095C25.4 8.49734 25.0466 6.50327 24.346 5.34556ZM9.89998 16.5172V7.50781L17.65 12.0125L9.89998 16.5172Z" fill="#333C30"/>
</g>
<defs>
<clipPath id="clip0_114_6146">
<rect width="24.8" height="24.025" fill="white" transform="translate(0.599976)"/>
</clipPath>
</defs>
</svg>
